%TF.GenerationSoftware,KiCad,Pcbnew,7.0.9*%
%TF.CreationDate,2023-12-31T00:29:42+09:00*%
%TF.ProjectId,CustomUPDIProgrammer,43757374-6f6d-4555-9044-4950726f6772,rev?*%
%TF.SameCoordinates,Original*%
%TF.FileFunction,Paste,Top*%
%TF.FilePolarity,Positive*%
%FSLAX46Y46*%
G04 Gerber Fmt 4.6, Leading zero omitted, Abs format (unit mm)*
G04 Created by KiCad (PCBNEW 7.0.9) date 2023-12-31 00:29:42*
%MOMM*%
%LPD*%
G01*
G04 APERTURE LIST*
G04 Aperture macros list*
%AMRoundRect*
0 Rectangle with rounded corners*
0 $1 Rounding radius*
0 $2 $3 $4 $5 $6 $7 $8 $9 X,Y pos of 4 corners*
0 Add a 4 corners polygon primitive as box body*
4,1,4,$2,$3,$4,$5,$6,$7,$8,$9,$2,$3,0*
0 Add four circle primitives for the rounded corners*
1,1,$1+$1,$2,$3*
1,1,$1+$1,$4,$5*
1,1,$1+$1,$6,$7*
1,1,$1+$1,$8,$9*
0 Add four rect primitives between the rounded corners*
20,1,$1+$1,$2,$3,$4,$5,0*
20,1,$1+$1,$4,$5,$6,$7,0*
20,1,$1+$1,$6,$7,$8,$9,0*
20,1,$1+$1,$8,$9,$2,$3,0*%
G04 Aperture macros list end*
%ADD10RoundRect,0.225000X0.225000X0.250000X-0.225000X0.250000X-0.225000X-0.250000X0.225000X-0.250000X0*%
%ADD11R,1.400000X0.300000*%
%ADD12RoundRect,0.200000X0.275000X-0.200000X0.275000X0.200000X-0.275000X0.200000X-0.275000X-0.200000X0*%
%ADD13RoundRect,0.218750X0.256250X-0.218750X0.256250X0.218750X-0.256250X0.218750X-0.256250X-0.218750X0*%
%ADD14RoundRect,0.225000X0.250000X-0.225000X0.250000X0.225000X-0.250000X0.225000X-0.250000X-0.225000X0*%
%ADD15R,0.600000X1.450000*%
%ADD16R,0.300000X1.450000*%
%ADD17RoundRect,0.200000X-0.200000X-0.275000X0.200000X-0.275000X0.200000X0.275000X-0.200000X0.275000X0*%
%ADD18RoundRect,0.150000X-0.150000X0.512500X-0.150000X-0.512500X0.150000X-0.512500X0.150000X0.512500X0*%
%ADD19RoundRect,0.200000X-0.275000X0.200000X-0.275000X-0.200000X0.275000X-0.200000X0.275000X0.200000X0*%
%ADD20RoundRect,0.150000X-0.850000X0.350000X-0.850000X-0.350000X0.850000X-0.350000X0.850000X0.350000X0*%
%ADD21RoundRect,0.150000X0.850000X-0.350000X0.850000X0.350000X-0.850000X0.350000X-0.850000X-0.350000X0*%
%ADD22RoundRect,0.100000X0.400000X-0.500000X0.400000X0.500000X-0.400000X0.500000X-0.400000X-0.500000X0*%
%ADD23RoundRect,0.100000X0.400000X-0.350000X0.400000X0.350000X-0.400000X0.350000X-0.400000X-0.350000X0*%
%ADD24RoundRect,0.225000X-0.375000X0.225000X-0.375000X-0.225000X0.375000X-0.225000X0.375000X0.225000X0*%
%ADD25RoundRect,0.250000X-0.375000X-0.625000X0.375000X-0.625000X0.375000X0.625000X-0.375000X0.625000X0*%
%ADD26RoundRect,0.250000X0.375000X0.625000X-0.375000X0.625000X-0.375000X-0.625000X0.375000X-0.625000X0*%
G04 APERTURE END LIST*
D10*
%TO.C,C2*%
X140475000Y-47300000D03*
X138925000Y-47300000D03*
%TD*%
D11*
%TO.C,U1*%
X135800000Y-49200000D03*
X135800000Y-49700000D03*
X135800000Y-50200000D03*
X135800000Y-50700000D03*
X135800000Y-51200000D03*
X140200000Y-51200000D03*
X140200000Y-50700000D03*
X140200000Y-50200000D03*
X140200000Y-49700000D03*
X140200000Y-49200000D03*
%TD*%
D12*
%TO.C,R4*%
X139600000Y-57425000D03*
X139600000Y-55775000D03*
%TD*%
D13*
%TO.C,D5*%
X141500000Y-65787500D03*
X141500000Y-64212500D03*
%TD*%
D14*
%TO.C,C3*%
X130700000Y-47325000D03*
X130700000Y-45775000D03*
%TD*%
D15*
%TO.C,USB1*%
X138225000Y-42695000D03*
X137450000Y-42695000D03*
D16*
X136750000Y-42695000D03*
X136250000Y-42695000D03*
X135750000Y-42695000D03*
X135250000Y-42695000D03*
X134750000Y-42695000D03*
X134250000Y-42695000D03*
X133750000Y-42695000D03*
X133250000Y-42695000D03*
D15*
X132550000Y-42695000D03*
X131775000Y-42695000D03*
%TD*%
D17*
%TO.C,R1*%
X127275000Y-40800000D03*
X128925000Y-40800000D03*
%TD*%
D18*
%TO.C,U2*%
X128850000Y-45262500D03*
X127900000Y-45262500D03*
X126950000Y-45262500D03*
X126950000Y-47537500D03*
X128850000Y-47537500D03*
%TD*%
D19*
%TO.C,R3*%
X142400000Y-76675000D03*
X142400000Y-78325000D03*
%TD*%
D12*
%TO.C,R6*%
X139600000Y-65825000D03*
X139600000Y-64175000D03*
%TD*%
D13*
%TO.C,D3*%
X141500000Y-57387500D03*
X141500000Y-55812500D03*
%TD*%
D20*
%TO.C,SW1*%
X133500000Y-52800000D03*
X133500000Y-54800000D03*
X133500000Y-56800000D03*
X127500000Y-52800000D03*
X127500000Y-54800000D03*
X127500000Y-56800000D03*
%TD*%
D10*
%TO.C,C1*%
X140475000Y-53200000D03*
X138925000Y-53200000D03*
%TD*%
D12*
%TO.C,R5*%
X139600000Y-61625000D03*
X139600000Y-59975000D03*
%TD*%
D13*
%TO.C,D4*%
X141500000Y-61587500D03*
X141500000Y-60012500D03*
%TD*%
D21*
%TO.C,SW2*%
X127500000Y-64500000D03*
X127500000Y-62500000D03*
X127500000Y-60500000D03*
X133500000Y-64500000D03*
X133500000Y-62500000D03*
X133500000Y-60500000D03*
%TD*%
D22*
%TO.C,D1*%
X136150000Y-47250000D03*
D23*
X136150000Y-45550000D03*
X133850000Y-45550000D03*
X133850000Y-47450000D03*
%TD*%
D10*
%TO.C,C4*%
X128675000Y-49500000D03*
X127125000Y-49500000D03*
%TD*%
D17*
%TO.C,R2*%
X127275000Y-38900000D03*
X128925000Y-38900000D03*
%TD*%
D24*
%TO.C,D2*%
X142400000Y-71650000D03*
X142400000Y-74950000D03*
%TD*%
D25*
%TO.C,F2*%
X137600000Y-68900000D03*
X140400000Y-68900000D03*
%TD*%
D26*
%TO.C,F1*%
X133600000Y-49500000D03*
X130800000Y-49500000D03*
%TD*%
M02*
