%TF.GenerationSoftware,KiCad,Pcbnew,7.0.9*%
%TF.CreationDate,2023-12-31T00:29:42+09:00*%
%TF.ProjectId,CustomUPDIProgrammer,43757374-6f6d-4555-9044-4950726f6772,rev?*%
%TF.SameCoordinates,Original*%
%TF.FileFunction,Soldermask,Top*%
%TF.FilePolarity,Negative*%
%FSLAX46Y46*%
G04 Gerber Fmt 4.6, Leading zero omitted, Abs format (unit mm)*
G04 Created by KiCad (PCBNEW 7.0.9) date 2023-12-31 00:29:42*
%MOMM*%
%LPD*%
G01*
G04 APERTURE LIST*
G04 Aperture macros list*
%AMRoundRect*
0 Rectangle with rounded corners*
0 $1 Rounding radius*
0 $2 $3 $4 $5 $6 $7 $8 $9 X,Y pos of 4 corners*
0 Add a 4 corners polygon primitive as box body*
4,1,4,$2,$3,$4,$5,$6,$7,$8,$9,$2,$3,0*
0 Add four circle primitives for the rounded corners*
1,1,$1+$1,$2,$3*
1,1,$1+$1,$4,$5*
1,1,$1+$1,$6,$7*
1,1,$1+$1,$8,$9*
0 Add four rect primitives between the rounded corners*
20,1,$1+$1,$2,$3,$4,$5,0*
20,1,$1+$1,$4,$5,$6,$7,0*
20,1,$1+$1,$6,$7,$8,$9,0*
20,1,$1+$1,$8,$9,$2,$3,0*%
G04 Aperture macros list end*
%ADD10C,0.150000*%
%ADD11RoundRect,0.225000X0.225000X0.250000X-0.225000X0.250000X-0.225000X-0.250000X0.225000X-0.250000X0*%
%ADD12R,1.400000X0.300000*%
%ADD13RoundRect,0.200000X0.275000X-0.200000X0.275000X0.200000X-0.275000X0.200000X-0.275000X-0.200000X0*%
%ADD14RoundRect,0.218750X0.256250X-0.218750X0.256250X0.218750X-0.256250X0.218750X-0.256250X-0.218750X0*%
%ADD15RoundRect,0.225000X0.250000X-0.225000X0.250000X0.225000X-0.250000X0.225000X-0.250000X-0.225000X0*%
%ADD16R,1.700000X1.700000*%
%ADD17O,1.700000X1.700000*%
%ADD18C,0.650000*%
%ADD19R,0.600000X1.450000*%
%ADD20R,0.300000X1.450000*%
%ADD21O,1.000000X2.100000*%
%ADD22O,1.000000X1.600000*%
%ADD23RoundRect,0.200000X-0.200000X-0.275000X0.200000X-0.275000X0.200000X0.275000X-0.200000X0.275000X0*%
%ADD24RoundRect,0.150000X-0.150000X0.512500X-0.150000X-0.512500X0.150000X-0.512500X0.150000X0.512500X0*%
%ADD25RoundRect,0.200000X-0.275000X0.200000X-0.275000X-0.200000X0.275000X-0.200000X0.275000X0.200000X0*%
%ADD26C,0.900000*%
%ADD27RoundRect,0.150000X-0.850000X0.350000X-0.850000X-0.350000X0.850000X-0.350000X0.850000X0.350000X0*%
%ADD28RoundRect,0.150000X0.850000X-0.350000X0.850000X0.350000X-0.850000X0.350000X-0.850000X-0.350000X0*%
%ADD29RoundRect,0.100000X0.400000X-0.500000X0.400000X0.500000X-0.400000X0.500000X-0.400000X-0.500000X0*%
%ADD30RoundRect,0.100000X0.400000X-0.350000X0.400000X0.350000X-0.400000X0.350000X-0.400000X-0.350000X0*%
%ADD31RoundRect,0.225000X-0.375000X0.225000X-0.375000X-0.225000X0.375000X-0.225000X0.375000X0.225000X0*%
%ADD32RoundRect,0.250000X-0.375000X-0.625000X0.375000X-0.625000X0.375000X0.625000X-0.375000X0.625000X0*%
%ADD33RoundRect,0.250000X0.375000X0.625000X-0.375000X0.625000X-0.375000X-0.625000X0.375000X-0.625000X0*%
G04 APERTURE END LIST*
D10*
G36*
X141101296Y-44323823D02*
G01*
X141686013Y-44323823D01*
X141696694Y-44324056D01*
X141707176Y-44324752D01*
X141717448Y-44325904D01*
X141727503Y-44327506D01*
X141737330Y-44329552D01*
X141746921Y-44332036D01*
X141756266Y-44334950D01*
X141765357Y-44338290D01*
X141774185Y-44342047D01*
X141782739Y-44346218D01*
X141791011Y-44350794D01*
X141798993Y-44355770D01*
X141806674Y-44361140D01*
X141814045Y-44366897D01*
X141821098Y-44373034D01*
X141827824Y-44379547D01*
X141834212Y-44386427D01*
X141840255Y-44393670D01*
X141845942Y-44401269D01*
X141851266Y-44409217D01*
X141856216Y-44417508D01*
X141860783Y-44426137D01*
X141864959Y-44435096D01*
X141868734Y-44444379D01*
X141872099Y-44453981D01*
X141875045Y-44463895D01*
X141877563Y-44474114D01*
X141879644Y-44484632D01*
X141881278Y-44495443D01*
X141882456Y-44506542D01*
X141883170Y-44517920D01*
X141883410Y-44529573D01*
X141883170Y-44541264D01*
X141882456Y-44552677D01*
X141881278Y-44563804D01*
X141879644Y-44574640D01*
X141877563Y-44585179D01*
X141875045Y-44595414D01*
X141872099Y-44605341D01*
X141868734Y-44614952D01*
X141864959Y-44624241D01*
X141860783Y-44633204D01*
X141856216Y-44641833D01*
X141851266Y-44650122D01*
X141845942Y-44658066D01*
X141840255Y-44665658D01*
X141834212Y-44672893D01*
X141827824Y-44679764D01*
X141821098Y-44686265D01*
X141814045Y-44692391D01*
X141806674Y-44698135D01*
X141798993Y-44703491D01*
X141791011Y-44708454D01*
X141782739Y-44713017D01*
X141774185Y-44717173D01*
X141765357Y-44720918D01*
X141756266Y-44724245D01*
X141746921Y-44727148D01*
X141737330Y-44729621D01*
X141727503Y-44731657D01*
X141717448Y-44733252D01*
X141707176Y-44734399D01*
X141696694Y-44735091D01*
X141686013Y-44735323D01*
X141101296Y-44735323D01*
X141101296Y-44901286D01*
X141700081Y-44901286D01*
X141718342Y-44900856D01*
X141736226Y-44899575D01*
X141753720Y-44897455D01*
X141770810Y-44894510D01*
X141787484Y-44890753D01*
X141803729Y-44886196D01*
X141819530Y-44880853D01*
X141834875Y-44874736D01*
X141849750Y-44867859D01*
X141864142Y-44860234D01*
X141878037Y-44851874D01*
X141891423Y-44842793D01*
X141904285Y-44833003D01*
X141916612Y-44822517D01*
X141928388Y-44811348D01*
X141939601Y-44799510D01*
X141950238Y-44787015D01*
X141960286Y-44773876D01*
X141969730Y-44760105D01*
X141978558Y-44745717D01*
X141986756Y-44730724D01*
X141994311Y-44715139D01*
X142001210Y-44698974D01*
X142007439Y-44682244D01*
X142012986Y-44664960D01*
X142017836Y-44647136D01*
X142021976Y-44628785D01*
X142025394Y-44609919D01*
X142028075Y-44590552D01*
X142030007Y-44570697D01*
X142031175Y-44550366D01*
X142031568Y-44529573D01*
X142031175Y-44508876D01*
X142030007Y-44488630D01*
X142028075Y-44468847D01*
X142025394Y-44449542D01*
X142021976Y-44430728D01*
X142017836Y-44412418D01*
X142012986Y-44394626D01*
X142007439Y-44377366D01*
X142001210Y-44360651D01*
X141994311Y-44344494D01*
X141986756Y-44328910D01*
X141978558Y-44313912D01*
X141969730Y-44299513D01*
X141960286Y-44285727D01*
X141950238Y-44272567D01*
X141939601Y-44260048D01*
X141928388Y-44248182D01*
X141916612Y-44236984D01*
X141904285Y-44226466D01*
X141891423Y-44216643D01*
X141878037Y-44207527D01*
X141864142Y-44199133D01*
X141849750Y-44191474D01*
X141834875Y-44184564D01*
X141819530Y-44178416D01*
X141803729Y-44173044D01*
X141787484Y-44168461D01*
X141770810Y-44164681D01*
X141753720Y-44161717D01*
X141736226Y-44159583D01*
X141718342Y-44158293D01*
X141700081Y-44157860D01*
X141101296Y-44157860D01*
X141101296Y-44323823D01*
G37*
G36*
X141421026Y-43311011D02*
G01*
X141437105Y-43312007D01*
X141452866Y-43313663D01*
X141468296Y-43315976D01*
X141483380Y-43318943D01*
X141498105Y-43322562D01*
X141512456Y-43326830D01*
X141526418Y-43331744D01*
X141539978Y-43337301D01*
X141553121Y-43343497D01*
X141565833Y-43350332D01*
X141578100Y-43357800D01*
X141589908Y-43365901D01*
X141601241Y-43374630D01*
X141612087Y-43383985D01*
X141622431Y-43393963D01*
X141632258Y-43404561D01*
X141641554Y-43415776D01*
X141650305Y-43427606D01*
X141658497Y-43440048D01*
X141666116Y-43453098D01*
X141673147Y-43466754D01*
X141679575Y-43481013D01*
X141685388Y-43495873D01*
X141690570Y-43511329D01*
X141695108Y-43527380D01*
X141698986Y-43544023D01*
X141702191Y-43561255D01*
X141704709Y-43579072D01*
X141706525Y-43597472D01*
X141707625Y-43616453D01*
X141707995Y-43636010D01*
X141707995Y-43811206D01*
X142017500Y-43811206D01*
X142017500Y-43977169D01*
X141101296Y-43977169D01*
X141101296Y-43811206D01*
X141240001Y-43811206D01*
X141571488Y-43811206D01*
X141571488Y-43658212D01*
X141571286Y-43646850D01*
X141570686Y-43635885D01*
X141569696Y-43625315D01*
X141568322Y-43615137D01*
X141566572Y-43605348D01*
X141564454Y-43595947D01*
X141561975Y-43586931D01*
X141559143Y-43578298D01*
X141552449Y-43562169D01*
X141544432Y-43547543D01*
X141535151Y-43534400D01*
X141524666Y-43522721D01*
X141513038Y-43512488D01*
X141500326Y-43503680D01*
X141486589Y-43496280D01*
X141471889Y-43490267D01*
X141456285Y-43485624D01*
X141439836Y-43482331D01*
X141422603Y-43480369D01*
X141413711Y-43479881D01*
X141404645Y-43479719D01*
X141395605Y-43479881D01*
X141378082Y-43481186D01*
X141361346Y-43483813D01*
X141345452Y-43487785D01*
X141330454Y-43493121D01*
X141316407Y-43499841D01*
X141303365Y-43507966D01*
X141291383Y-43517516D01*
X141280514Y-43528511D01*
X141270814Y-43540972D01*
X141262337Y-43554918D01*
X141255137Y-43570371D01*
X141252033Y-43578669D01*
X141249269Y-43587350D01*
X141246851Y-43596419D01*
X141244786Y-43605876D01*
X141243082Y-43615726D01*
X141241744Y-43625969D01*
X141240780Y-43636610D01*
X141240197Y-43647650D01*
X141240001Y-43659091D01*
X141240001Y-43811206D01*
X141101296Y-43811206D01*
X141101296Y-43633592D01*
X141101670Y-43614138D01*
X141102783Y-43595262D01*
X141104618Y-43576967D01*
X141107163Y-43559256D01*
X141110400Y-43542131D01*
X141114315Y-43525594D01*
X141118893Y-43509648D01*
X141124119Y-43494296D01*
X141129978Y-43479541D01*
X141136454Y-43465384D01*
X141143533Y-43451829D01*
X141151199Y-43438878D01*
X141159438Y-43426533D01*
X141168234Y-43414798D01*
X141177572Y-43403675D01*
X141187437Y-43393166D01*
X141197814Y-43383274D01*
X141208688Y-43374001D01*
X141220044Y-43365351D01*
X141231867Y-43357325D01*
X141244141Y-43349927D01*
X141256851Y-43343158D01*
X141269984Y-43337022D01*
X141283522Y-43331521D01*
X141297451Y-43326657D01*
X141311757Y-43322433D01*
X141326424Y-43318852D01*
X141341437Y-43315917D01*
X141356780Y-43313629D01*
X141372440Y-43311992D01*
X141388400Y-43311008D01*
X141404645Y-43310679D01*
X141421026Y-43311011D01*
G37*
G36*
X141585035Y-42411885D02*
G01*
X141610874Y-42413328D01*
X141636024Y-42415723D01*
X141660475Y-42419059D01*
X141684216Y-42423327D01*
X141707235Y-42428517D01*
X141729523Y-42434620D01*
X141751069Y-42441626D01*
X141771862Y-42449527D01*
X141791890Y-42458311D01*
X141811144Y-42467971D01*
X141829613Y-42478496D01*
X141847285Y-42489876D01*
X141864150Y-42502104D01*
X141880198Y-42515168D01*
X141895418Y-42529059D01*
X141909798Y-42543768D01*
X141923329Y-42559286D01*
X141935998Y-42575603D01*
X141947797Y-42592709D01*
X141958713Y-42610594D01*
X141968737Y-42629251D01*
X141977857Y-42648668D01*
X141986062Y-42668836D01*
X141993342Y-42689747D01*
X141999687Y-42711389D01*
X142005085Y-42733755D01*
X142009525Y-42756834D01*
X142012998Y-42780617D01*
X142015492Y-42805094D01*
X142016996Y-42830257D01*
X142017500Y-42856094D01*
X142017500Y-43166478D01*
X141101296Y-43166478D01*
X141101296Y-43000515D01*
X141245057Y-43000515D01*
X141873958Y-43000515D01*
X141873958Y-42864227D01*
X141873651Y-42846594D01*
X141872731Y-42829512D01*
X141871198Y-42812980D01*
X141869050Y-42797000D01*
X141866289Y-42781573D01*
X141862912Y-42766699D01*
X141858921Y-42752378D01*
X141854315Y-42738611D01*
X141849094Y-42725400D01*
X141843257Y-42712743D01*
X141836804Y-42700643D01*
X141829735Y-42689099D01*
X141822049Y-42678113D01*
X141813747Y-42667684D01*
X141804827Y-42657814D01*
X141795290Y-42648503D01*
X141785136Y-42639751D01*
X141774364Y-42631560D01*
X141762974Y-42623930D01*
X141750965Y-42616861D01*
X141738337Y-42610354D01*
X141725091Y-42604409D01*
X141711225Y-42599028D01*
X141696740Y-42594211D01*
X141681634Y-42589959D01*
X141665909Y-42586271D01*
X141649563Y-42583149D01*
X141632597Y-42580593D01*
X141615009Y-42578604D01*
X141596801Y-42577183D01*
X141577970Y-42576330D01*
X141558518Y-42576045D01*
X141539169Y-42576330D01*
X141520439Y-42577182D01*
X141502330Y-42578600D01*
X141484840Y-42580583D01*
X141467970Y-42583130D01*
X141451718Y-42586238D01*
X141436085Y-42589906D01*
X141421070Y-42594132D01*
X141406672Y-42598916D01*
X141392892Y-42604255D01*
X141379728Y-42610148D01*
X141367181Y-42616594D01*
X141355250Y-42623591D01*
X141343934Y-42631137D01*
X141333233Y-42639231D01*
X141323148Y-42647871D01*
X141313676Y-42657056D01*
X141304819Y-42666785D01*
X141296575Y-42677055D01*
X141288944Y-42687865D01*
X141281926Y-42699214D01*
X141275521Y-42711101D01*
X141269727Y-42723522D01*
X141264545Y-42736479D01*
X141259975Y-42749967D01*
X141256014Y-42763987D01*
X141252665Y-42778536D01*
X141249925Y-42793613D01*
X141247795Y-42809217D01*
X141246273Y-42825346D01*
X141245361Y-42841998D01*
X141245057Y-42859172D01*
X141245057Y-43000515D01*
X141101296Y-43000515D01*
X141101296Y-42849939D01*
X141101798Y-42824661D01*
X141103296Y-42800023D01*
X141105780Y-42776036D01*
X141109239Y-42752711D01*
X141113663Y-42730058D01*
X141119040Y-42708088D01*
X141125360Y-42686812D01*
X141132613Y-42666240D01*
X141140787Y-42646382D01*
X141149872Y-42627251D01*
X141159857Y-42608855D01*
X141170732Y-42591206D01*
X141182485Y-42574314D01*
X141195106Y-42558191D01*
X141208585Y-42542846D01*
X141222910Y-42528290D01*
X141238072Y-42514534D01*
X141254058Y-42501588D01*
X141270859Y-42489464D01*
X141288464Y-42478171D01*
X141306861Y-42467721D01*
X141326041Y-42458123D01*
X141345993Y-42449390D01*
X141366706Y-42441530D01*
X141388169Y-42434555D01*
X141410372Y-42428476D01*
X141433303Y-42423303D01*
X141456953Y-42419047D01*
X141481310Y-42415718D01*
X141506363Y-42413327D01*
X141532103Y-42411884D01*
X141558518Y-42411401D01*
X141585035Y-42411885D01*
G37*
G36*
X141101296Y-42087828D02*
G01*
X141101296Y-42253791D01*
X142017500Y-42253791D01*
X142017500Y-42087828D01*
X141101296Y-42087828D01*
G37*
G36*
X142017500Y-41596094D02*
G01*
X142017500Y-41430131D01*
X141628421Y-41430131D01*
X141628421Y-41005662D01*
X142017500Y-41005662D01*
X142017500Y-40839259D01*
X141101296Y-40839259D01*
X141101296Y-41005662D01*
X141489275Y-41005662D01*
X141489275Y-41430131D01*
X141101296Y-41430131D01*
X141101296Y-41596094D01*
X142017500Y-41596094D01*
G37*
G36*
X142275347Y-40565365D02*
G01*
X142275157Y-40553691D01*
X142274592Y-40542326D01*
X142273653Y-40531265D01*
X142272346Y-40520505D01*
X142270673Y-40510043D01*
X142268639Y-40499875D01*
X142266247Y-40489998D01*
X142263501Y-40480408D01*
X142260403Y-40471102D01*
X142256959Y-40462076D01*
X142253172Y-40453327D01*
X142249044Y-40444851D01*
X142244581Y-40436644D01*
X142239786Y-40428704D01*
X142234661Y-40421026D01*
X142229212Y-40413608D01*
X142223442Y-40406445D01*
X142217353Y-40399534D01*
X142210951Y-40392872D01*
X142204238Y-40386455D01*
X142197219Y-40380280D01*
X142189897Y-40374343D01*
X142182275Y-40368641D01*
X142174357Y-40363170D01*
X142166148Y-40357926D01*
X142157650Y-40352907D01*
X142148867Y-40348108D01*
X142139803Y-40343526D01*
X142130462Y-40339158D01*
X142120847Y-40335001D01*
X142110962Y-40331049D01*
X142100811Y-40327301D01*
X141330347Y-40052308D01*
X141330347Y-40224426D01*
X141849338Y-40383355D01*
X141849338Y-40390389D01*
X141330347Y-40548879D01*
X141330347Y-40720557D01*
X142032008Y-40471502D01*
X142069157Y-40485351D01*
X142082986Y-40491164D01*
X142095174Y-40497397D01*
X142105789Y-40504058D01*
X142114900Y-40511156D01*
X142122576Y-40518698D01*
X142128887Y-40526692D01*
X142133900Y-40535147D01*
X142137685Y-40544070D01*
X142140311Y-40553470D01*
X142141847Y-40563354D01*
X142142362Y-40573732D01*
X142141924Y-40584609D01*
X142140602Y-40595996D01*
X142138466Y-40607899D01*
X142135584Y-40620328D01*
X142132025Y-40633289D01*
X142258201Y-40670878D01*
X142261525Y-40661917D01*
X142264682Y-40651455D01*
X142266889Y-40642711D01*
X142268917Y-40633266D01*
X142270733Y-40623184D01*
X142272298Y-40612525D01*
X142273578Y-40601352D01*
X142274537Y-40589726D01*
X142275138Y-40577710D01*
X142275347Y-40565365D01*
G37*
G36*
X141695940Y-39285055D02*
G01*
X141716280Y-39286104D01*
X141736035Y-39287835D01*
X141755200Y-39290232D01*
X141773769Y-39293281D01*
X141791738Y-39296968D01*
X141809099Y-39301276D01*
X141825849Y-39306193D01*
X141841980Y-39311702D01*
X141857488Y-39317789D01*
X141872367Y-39324439D01*
X141886611Y-39331638D01*
X141900215Y-39339371D01*
X141913173Y-39347622D01*
X141925479Y-39356378D01*
X141937128Y-39365623D01*
X141948115Y-39375342D01*
X141958433Y-39385522D01*
X141968078Y-39396147D01*
X141977043Y-39407201D01*
X141985323Y-39418672D01*
X141992912Y-39430543D01*
X141999806Y-39442800D01*
X142005997Y-39455429D01*
X142011481Y-39468414D01*
X142016251Y-39481740D01*
X142020304Y-39495394D01*
X142023632Y-39509360D01*
X142026230Y-39523623D01*
X142028093Y-39538168D01*
X142029214Y-39552982D01*
X142029590Y-39568048D01*
X142029387Y-39578926D01*
X142028790Y-39589430D01*
X142027815Y-39599568D01*
X142026479Y-39609347D01*
X142024797Y-39618773D01*
X142022788Y-39627853D01*
X142020467Y-39636593D01*
X142017850Y-39645002D01*
X142011796Y-39660849D01*
X142004759Y-39675448D01*
X141996871Y-39688854D01*
X141988264Y-39701121D01*
X141979069Y-39712303D01*
X141969418Y-39722456D01*
X141959445Y-39731632D01*
X141949280Y-39739888D01*
X141939056Y-39747276D01*
X141928905Y-39753853D01*
X141918958Y-39759671D01*
X141909349Y-39764786D01*
X141909349Y-39774238D01*
X142017500Y-39774238D01*
X142017500Y-39933387D01*
X141101296Y-39933387D01*
X141101296Y-39771600D01*
X141443993Y-39771600D01*
X141443993Y-39764786D01*
X141434467Y-39759855D01*
X141424532Y-39754250D01*
X141414328Y-39747907D01*
X141403996Y-39740760D01*
X141393679Y-39732744D01*
X141383517Y-39723793D01*
X141373653Y-39713841D01*
X141364226Y-39702824D01*
X141355379Y-39690677D01*
X141347253Y-39677333D01*
X141339990Y-39662727D01*
X141333730Y-39646795D01*
X141331020Y-39638310D01*
X141328615Y-39629470D01*
X141326531Y-39620265D01*
X141325228Y-39613111D01*
X141454324Y-39613111D01*
X141454576Y-39622742D01*
X141455327Y-39632096D01*
X141456570Y-39641172D01*
X141458297Y-39649968D01*
X141463175Y-39666712D01*
X141469904Y-39682313D01*
X141478426Y-39696754D01*
X141488683Y-39710020D01*
X141500617Y-39722096D01*
X141514170Y-39732967D01*
X141521535Y-39737945D01*
X141529284Y-39742617D01*
X141537408Y-39746979D01*
X141545901Y-39751030D01*
X141554755Y-39754768D01*
X141563963Y-39758191D01*
X141573518Y-39761297D01*
X141583413Y-39764085D01*
X141593640Y-39766552D01*
X141604191Y-39768696D01*
X141615061Y-39770516D01*
X141626241Y-39772009D01*
X141637725Y-39773173D01*
X141649505Y-39774008D01*
X141661573Y-39774510D01*
X141673923Y-39774678D01*
X141686302Y-39774507D01*
X141698415Y-39773998D01*
X141710254Y-39773152D01*
X141721810Y-39771973D01*
X141733075Y-39770461D01*
X141744041Y-39768621D01*
X141754699Y-39766453D01*
X141765041Y-39763961D01*
X141775059Y-39761148D01*
X141784745Y-39758014D01*
X141794090Y-39754563D01*
X141803085Y-39750798D01*
X141811723Y-39746720D01*
X141819995Y-39742333D01*
X141827892Y-39737638D01*
X141835407Y-39732637D01*
X141849256Y-39721731D01*
X141861475Y-39709634D01*
X141871997Y-39696364D01*
X141880755Y-39681942D01*
X141887683Y-39666386D01*
X141892714Y-39649716D01*
X141894498Y-39640969D01*
X141895782Y-39631951D01*
X141896558Y-39622664D01*
X141896819Y-39613111D01*
X141896546Y-39603243D01*
X141895733Y-39593671D01*
X141894393Y-39584397D01*
X141892534Y-39575421D01*
X141890168Y-39566744D01*
X141887306Y-39558368D01*
X141880137Y-39542522D01*
X141871111Y-39527892D01*
X141860316Y-39514486D01*
X141847836Y-39502315D01*
X141840992Y-39496695D01*
X141833759Y-39491386D01*
X141826147Y-39486391D01*
X141818169Y-39481710D01*
X141809834Y-39477344D01*
X141801153Y-39473294D01*
X141792137Y-39469562D01*
X141782797Y-39466149D01*
X141773143Y-39463055D01*
X141763187Y-39460282D01*
X141752938Y-39457831D01*
X141742408Y-39455703D01*
X141731608Y-39453900D01*
X141720547Y-39452422D01*
X141709238Y-39451270D01*
X141697690Y-39450446D01*
X141685915Y-39449951D01*
X141673923Y-39449786D01*
X141662037Y-39449949D01*
X141650374Y-39450437D01*
X141638944Y-39451249D01*
X141627756Y-39452386D01*
X141616822Y-39453846D01*
X141606150Y-39455628D01*
X141595753Y-39457733D01*
X141585638Y-39460158D01*
X141575818Y-39462905D01*
X141566301Y-39465972D01*
X141557098Y-39469358D01*
X141548219Y-39473062D01*
X141539675Y-39477085D01*
X141531475Y-39481426D01*
X141523629Y-39486083D01*
X141516148Y-39491057D01*
X141502321Y-39501950D01*
X141490074Y-39514100D01*
X141479489Y-39527502D01*
X141470646Y-39542151D01*
X141463627Y-39558041D01*
X141460827Y-39566450D01*
X141458513Y-39575168D01*
X141456696Y-39584194D01*
X141455385Y-39593526D01*
X141454591Y-39603166D01*
X141454324Y-39613111D01*
X141325228Y-39613111D01*
X141324786Y-39610687D01*
X141323399Y-39600729D01*
X141322386Y-39590382D01*
X141321765Y-39579637D01*
X141321554Y-39568488D01*
X141321918Y-39553691D01*
X141323007Y-39539110D01*
X141324818Y-39524762D01*
X141327347Y-39510664D01*
X141330591Y-39496832D01*
X141334546Y-39483282D01*
X141339208Y-39470032D01*
X141344573Y-39457098D01*
X141350639Y-39444497D01*
X141357401Y-39432245D01*
X141364855Y-39420358D01*
X141372999Y-39408854D01*
X141381829Y-39397750D01*
X141391340Y-39387061D01*
X141401530Y-39376804D01*
X141412394Y-39366997D01*
X141423929Y-39357655D01*
X141436132Y-39348795D01*
X141448999Y-39340434D01*
X141462525Y-39332589D01*
X141476709Y-39325275D01*
X141491545Y-39318511D01*
X141507031Y-39312311D01*
X141523162Y-39306694D01*
X141539935Y-39301675D01*
X141557347Y-39297272D01*
X141575394Y-39293500D01*
X141594071Y-39290377D01*
X141613377Y-39287919D01*
X141633306Y-39286143D01*
X141653856Y-39285065D01*
X141675022Y-39284702D01*
X141695940Y-39285055D01*
G37*
G36*
X142017500Y-39146656D02*
G01*
X142017500Y-38984650D01*
X141613693Y-38984650D01*
X141597638Y-38983890D01*
X141582233Y-38981652D01*
X141567533Y-38977997D01*
X141553590Y-38972989D01*
X141540456Y-38966689D01*
X141528186Y-38959159D01*
X141516833Y-38950461D01*
X141506449Y-38940658D01*
X141497087Y-38929812D01*
X141488802Y-38917985D01*
X141481645Y-38905239D01*
X141475671Y-38891635D01*
X141470931Y-38877238D01*
X141467480Y-38862107D01*
X141465371Y-38846306D01*
X141464656Y-38829897D01*
X141464873Y-38819409D01*
X141465484Y-38808599D01*
X141466429Y-38797784D01*
X141467651Y-38787280D01*
X141469089Y-38777405D01*
X141470684Y-38768475D01*
X141472808Y-38759125D01*
X141474108Y-38754719D01*
X141325071Y-38754719D01*
X141323686Y-38764020D01*
X141322698Y-38772985D01*
X141321884Y-38782609D01*
X141321262Y-38792475D01*
X141320854Y-38802164D01*
X141320680Y-38811260D01*
X141320675Y-38812971D01*
X141321195Y-38827568D01*
X141322747Y-38841820D01*
X141325317Y-38855687D01*
X141328890Y-38869128D01*
X141333453Y-38882103D01*
X141338990Y-38894571D01*
X141345488Y-38906492D01*
X141352933Y-38917825D01*
X141361310Y-38928529D01*
X141370606Y-38938564D01*
X141380806Y-38947890D01*
X141391896Y-38956465D01*
X141403862Y-38964249D01*
X141416689Y-38971202D01*
X141430364Y-38977283D01*
X141444872Y-38982451D01*
X141444872Y-38989705D01*
X141330347Y-38989705D01*
X141330347Y-39146656D01*
X142017500Y-39146656D01*
G37*
G36*
X142017500Y-38647228D02*
G01*
X142017500Y-38485222D01*
X141330347Y-38485222D01*
X141330347Y-38647228D01*
X142017500Y-38647228D01*
G37*
G36*
X141232967Y-38565895D02*
G01*
X141232513Y-38556367D01*
X141231182Y-38547103D01*
X141229017Y-38538153D01*
X141226063Y-38529563D01*
X141222365Y-38521384D01*
X141217967Y-38513662D01*
X141212913Y-38506446D01*
X141204201Y-38496677D01*
X141194263Y-38488319D01*
X141183250Y-38481535D01*
X141171311Y-38476487D01*
X141158598Y-38473338D01*
X141149766Y-38472375D01*
X141145259Y-38472253D01*
X141136228Y-38472739D01*
X141127461Y-38474167D01*
X141114904Y-38477966D01*
X141103191Y-38483611D01*
X141092469Y-38490938D01*
X141082886Y-38499785D01*
X141074589Y-38509988D01*
X141069846Y-38517462D01*
X141065784Y-38525419D01*
X141062448Y-38533810D01*
X141059880Y-38542586D01*
X141058125Y-38551699D01*
X141057227Y-38561101D01*
X141057112Y-38565895D01*
X141057566Y-38575498D01*
X141058898Y-38584823D01*
X141061065Y-38593821D01*
X141064023Y-38602447D01*
X141067727Y-38610653D01*
X141072135Y-38618392D01*
X141077203Y-38625616D01*
X141085945Y-38635387D01*
X141095924Y-38643738D01*
X141106993Y-38650508D01*
X141119004Y-38655541D01*
X141131808Y-38658677D01*
X141140713Y-38659636D01*
X141145259Y-38659758D01*
X141154214Y-38659274D01*
X141162913Y-38657852D01*
X141175384Y-38654067D01*
X141187031Y-38648437D01*
X141197702Y-38641122D01*
X141207248Y-38632280D01*
X141215519Y-38622071D01*
X141220251Y-38614583D01*
X141224305Y-38606605D01*
X141227636Y-38598184D01*
X141230201Y-38589366D01*
X141231955Y-38580198D01*
X141232853Y-38570729D01*
X141232967Y-38565895D01*
G37*
G36*
X142017500Y-37857640D02*
G01*
X141909349Y-37857640D01*
X141909349Y-37867312D01*
X141918958Y-37872429D01*
X141928905Y-37878254D01*
X141939056Y-37884841D01*
X141949280Y-37892244D01*
X141959445Y-37900516D01*
X141969418Y-37909712D01*
X141979069Y-37919884D01*
X141988264Y-37931087D01*
X141996871Y-37943374D01*
X142004759Y-37956800D01*
X142011796Y-37971418D01*
X142017850Y-37987281D01*
X142020467Y-37995697D01*
X142022788Y-38004444D01*
X142024797Y-38013530D01*
X142026479Y-38022961D01*
X142027815Y-38032744D01*
X142028790Y-38042885D01*
X142029387Y-38053391D01*
X142029590Y-38064269D01*
X142029214Y-38079335D01*
X142028093Y-38094147D01*
X142026230Y-38108689D01*
X142023632Y-38122948D01*
X142020304Y-38136909D01*
X142016251Y-38150557D01*
X142011481Y-38163877D01*
X142005997Y-38176854D01*
X141999806Y-38189475D01*
X141992912Y-38201723D01*
X141985323Y-38213585D01*
X141977043Y-38225046D01*
X141968078Y-38236092D01*
X141958433Y-38246706D01*
X141948115Y-38256875D01*
X141937128Y-38266585D01*
X141925479Y-38275820D01*
X141913173Y-38284565D01*
X141900215Y-38292806D01*
X141886611Y-38300529D01*
X141872367Y-38307719D01*
X141857488Y-38314360D01*
X141841980Y-38320438D01*
X141825849Y-38325939D01*
X141809099Y-38330848D01*
X141791738Y-38335150D01*
X141773769Y-38338831D01*
X141755200Y-38341875D01*
X141736035Y-38344268D01*
X141716280Y-38345996D01*
X141695940Y-38347043D01*
X141675022Y-38347396D01*
X141653856Y-38347033D01*
X141633306Y-38345955D01*
X141613377Y-38344178D01*
X141594071Y-38341721D01*
X141575394Y-38338598D01*
X141557347Y-38334827D01*
X141539935Y-38330424D01*
X141523162Y-38325407D01*
X141507031Y-38319791D01*
X141491545Y-38313594D01*
X141476709Y-38306831D01*
X141462525Y-38299521D01*
X141448999Y-38291678D01*
X141436132Y-38283321D01*
X141423929Y-38274466D01*
X141412394Y-38265129D01*
X141401530Y-38255326D01*
X141391340Y-38245076D01*
X141381829Y-38234394D01*
X141372999Y-38223297D01*
X141364855Y-38211802D01*
X141357401Y-38199925D01*
X141350639Y-38187683D01*
X141344573Y-38175092D01*
X141339208Y-38162170D01*
X141334546Y-38148933D01*
X141330591Y-38135398D01*
X141327347Y-38121581D01*
X141324818Y-38107499D01*
X141323007Y-38093169D01*
X141321918Y-38078607D01*
X141321554Y-38063830D01*
X141321765Y-38052660D01*
X141322386Y-38041897D01*
X141323399Y-38031532D01*
X141324786Y-38021558D01*
X141325254Y-38018987D01*
X141454324Y-38018987D01*
X141454591Y-38028951D01*
X141455385Y-38038607D01*
X141456696Y-38047955D01*
X141458513Y-38056993D01*
X141460827Y-38065721D01*
X141466903Y-38082245D01*
X141474844Y-38097523D01*
X141484569Y-38111551D01*
X141495995Y-38124324D01*
X141509042Y-38135839D01*
X141516148Y-38141123D01*
X141523629Y-38146091D01*
X141531475Y-38150743D01*
X141539675Y-38155077D01*
X141548219Y-38159093D01*
X141557098Y-38162791D01*
X141566301Y-38166170D01*
X141575818Y-38169230D01*
X141585638Y-38171970D01*
X141595753Y-38174390D01*
X141606150Y-38176488D01*
X141616822Y-38178266D01*
X141627756Y-38179721D01*
X141638944Y-38180854D01*
X141650374Y-38181663D01*
X141662037Y-38182150D01*
X141673923Y-38182312D01*
X141685915Y-38182147D01*
X141697690Y-38181654D01*
X141709238Y-38180833D01*
X141720547Y-38179685D01*
X141731608Y-38178211D01*
X141742408Y-38176413D01*
X141752938Y-38174291D01*
X141763187Y-38171846D01*
X141773143Y-38169080D01*
X141782797Y-38165993D01*
X141792137Y-38162587D01*
X141801153Y-38158861D01*
X141809834Y-38154818D01*
X141818169Y-38150459D01*
X141826147Y-38145784D01*
X141833759Y-38140794D01*
X141840992Y-38135490D01*
X141847836Y-38129874D01*
X141860316Y-38117708D01*
X141871111Y-38104304D01*
X141880137Y-38089669D01*
X141887306Y-38073812D01*
X141890168Y-38065427D01*
X141892534Y-38056740D01*
X141894393Y-38047752D01*
X141895733Y-38038462D01*
X141896546Y-38028874D01*
X141896819Y-38018987D01*
X141896558Y-38009434D01*
X141895782Y-38000149D01*
X141894498Y-37991134D01*
X141890440Y-37973923D01*
X141884452Y-37957820D01*
X141876601Y-37942844D01*
X141866952Y-37929014D01*
X141855574Y-37916347D01*
X141842531Y-37904863D01*
X141835407Y-37899570D01*
X141827892Y-37894580D01*
X141819995Y-37889895D01*
X141811723Y-37885518D01*
X141803085Y-37881450D01*
X141794090Y-37877694D01*
X141784745Y-37874252D01*
X141775059Y-37871128D01*
X141765041Y-37868322D01*
X141754699Y-37865837D01*
X141744041Y-37863676D01*
X141733075Y-37861842D01*
X141721810Y-37860335D01*
X141710254Y-37859160D01*
X141698415Y-37858317D01*
X141686302Y-37857810D01*
X141673923Y-37857640D01*
X141661573Y-37857807D01*
X141649505Y-37858307D01*
X141637725Y-37859139D01*
X141626241Y-37860299D01*
X141615061Y-37861787D01*
X141604191Y-37863601D01*
X141593640Y-37865739D01*
X141583413Y-37868198D01*
X141573518Y-37870978D01*
X141563963Y-37874075D01*
X141554755Y-37877489D01*
X141545901Y-37881218D01*
X141537408Y-37885259D01*
X141529284Y-37889611D01*
X141521535Y-37894272D01*
X141514170Y-37899241D01*
X141500617Y-37910091D01*
X141488683Y-37922147D01*
X141478426Y-37935395D01*
X141469904Y-37949819D01*
X141463175Y-37965406D01*
X141458297Y-37982139D01*
X141456570Y-37990931D01*
X141455327Y-38000004D01*
X141454576Y-38009357D01*
X141454324Y-38018987D01*
X141325254Y-38018987D01*
X141326531Y-38011965D01*
X141328615Y-38002746D01*
X141331020Y-37993892D01*
X141333730Y-37985396D01*
X141339990Y-37969442D01*
X141347253Y-37954819D01*
X141355379Y-37941460D01*
X141364226Y-37929301D01*
X141373653Y-37918275D01*
X141383517Y-37908317D01*
X141393679Y-37899361D01*
X141403996Y-37891341D01*
X141414328Y-37884192D01*
X141424532Y-37877848D01*
X141434467Y-37872243D01*
X141443993Y-37867312D01*
X141443993Y-37860717D01*
X141101296Y-37860717D01*
X141101296Y-37698271D01*
X142017500Y-37698271D01*
X142017500Y-37857640D01*
G37*
G36*
X143529500Y-43051733D02*
G01*
X143303746Y-43127790D01*
X143303746Y-43472246D01*
X143529500Y-43547863D01*
X143529500Y-43725037D01*
X142613296Y-43402563D01*
X142613296Y-43303645D01*
X142801241Y-43303645D01*
X143170316Y-43427622D01*
X143170316Y-43172633D01*
X142801241Y-43296391D01*
X142801241Y-43303645D01*
X142613296Y-43303645D01*
X142613296Y-43197692D01*
X143529500Y-42874559D01*
X143529500Y-43051733D01*
G37*
G36*
X143529500Y-42321276D02*
G01*
X143421349Y-42321276D01*
X143421349Y-42330948D01*
X143430958Y-42336065D01*
X143440905Y-42341890D01*
X143451056Y-42348477D01*
X143461280Y-42355880D01*
X143471445Y-42364152D01*
X143481418Y-42373347D01*
X143491069Y-42383519D01*
X143500264Y-42394722D01*
X143508871Y-42407010D01*
X143516759Y-42420436D01*
X143523796Y-42435053D01*
X143529850Y-42450917D01*
X143532467Y-42459333D01*
X143534788Y-42468080D01*
X143536797Y-42477166D01*
X143538479Y-42486597D01*
X143539815Y-42496379D01*
X143540790Y-42506520D01*
X143541387Y-42517027D01*
X143541590Y-42527905D01*
X143541214Y-42542971D01*
X143540093Y-42557782D01*
X143538230Y-42572325D01*
X143535632Y-42586584D01*
X143532304Y-42600545D01*
X143528251Y-42614192D01*
X143523481Y-42627512D01*
X143517997Y-42640490D01*
X143511806Y-42653110D01*
X143504912Y-42665359D01*
X143497323Y-42677221D01*
X143489043Y-42688682D01*
X143480078Y-42699727D01*
X143470433Y-42710342D01*
X143460115Y-42720511D01*
X143449128Y-42730221D01*
X143437479Y-42739455D01*
X143425173Y-42748201D01*
X143412215Y-42756442D01*
X143398611Y-42764165D01*
X143384367Y-42771354D01*
X143369488Y-42777995D01*
X143353980Y-42784074D01*
X143337849Y-42789575D01*
X143321099Y-42794484D01*
X143303738Y-42798786D01*
X143285769Y-42802466D01*
X143267200Y-42805511D01*
X143248035Y-42807904D01*
X143228280Y-42809632D01*
X143207940Y-42810679D01*
X143187022Y-42811031D01*
X143165856Y-42810668D01*
X143145306Y-42809590D01*
X143125377Y-42807814D01*
X143106071Y-42805356D01*
X143087394Y-42802234D01*
X143069347Y-42798463D01*
X143051935Y-42794060D01*
X143035162Y-42789043D01*
X143019031Y-42783427D01*
X143003545Y-42777229D01*
X142988709Y-42770467D01*
X142974525Y-42763156D01*
X142960999Y-42755314D01*
X142948132Y-42746957D01*
X142935929Y-42738101D01*
X142924394Y-42728764D01*
X142913530Y-42718962D01*
X142903340Y-42708712D01*
X142893829Y-42698030D01*
X142884999Y-42686933D01*
X142876855Y-42675437D01*
X142869401Y-42663560D01*
X142862639Y-42651318D01*
X142856573Y-42638728D01*
X142851208Y-42625806D01*
X142846546Y-42612569D01*
X142842591Y-42599034D01*
X142839347Y-42585217D01*
X142836818Y-42571135D01*
X142835007Y-42556804D01*
X142833918Y-42542242D01*
X142833554Y-42527465D01*
X142833765Y-42516296D01*
X142834386Y-42505533D01*
X142835399Y-42495168D01*
X142836786Y-42485193D01*
X142837254Y-42482622D01*
X142966324Y-42482622D01*
X142966591Y-42492587D01*
X142967385Y-42502243D01*
X142968696Y-42511590D01*
X142970513Y-42520628D01*
X142972827Y-42529356D01*
X142978903Y-42545880D01*
X142986844Y-42561158D01*
X142996569Y-42575186D01*
X143007995Y-42587960D01*
X143021042Y-42599475D01*
X143028148Y-42604759D01*
X143035629Y-42609727D01*
X143043475Y-42614378D01*
X143051675Y-42618713D01*
X143060219Y-42622729D01*
X143069098Y-42626427D01*
X143078301Y-42629806D01*
X143087818Y-42632866D01*
X143097638Y-42635606D01*
X143107753Y-42638025D01*
X143118150Y-42640124D01*
X143128822Y-42641901D01*
X143139756Y-42643357D01*
X143150944Y-42644489D01*
X143162374Y-42645299D01*
X143174037Y-42645785D01*
X143185923Y-42645948D01*
X143197915Y-42645783D01*
X143209690Y-42645289D01*
X143221238Y-42644468D01*
X143232547Y-42643320D01*
X143243608Y-42641847D01*
X143254408Y-42640049D01*
X143264938Y-42637927D01*
X143275187Y-42635482D01*
X143285143Y-42632716D01*
X143294797Y-42629629D01*
X143304137Y-42626222D01*
X143313153Y-42622497D01*
X143321834Y-42618454D01*
X143330169Y-42614094D01*
X143338147Y-42609419D01*
X143345759Y-42604429D01*
X143352992Y-42599126D01*
X143359836Y-42593510D01*
X143372316Y-42581344D01*
X143383111Y-42567939D01*
X143392137Y-42553304D01*
X143399306Y-42537447D01*
X143402168Y-42529063D01*
X143404534Y-42520376D01*
X143406393Y-42511387D01*
X143407733Y-42502098D01*
X143408546Y-42492510D01*
X143408819Y-42482622D01*
X143408558Y-42473070D01*
X143407782Y-42463785D01*
X143406498Y-42454770D01*
X143402440Y-42437559D01*
X143396452Y-42421456D01*
X143388601Y-42406480D01*
X143378952Y-42392649D01*
X143367574Y-42379983D01*
X143354531Y-42368499D01*
X143347407Y-42363206D01*
X143339892Y-42358216D01*
X143331995Y-42353531D01*
X143323723Y-42349153D01*
X143315085Y-42345086D01*
X143306090Y-42341330D01*
X143296745Y-42337888D01*
X143287059Y-42334763D01*
X143277041Y-42331957D01*
X143266699Y-42329473D01*
X143256041Y-42327312D01*
X143245075Y-42325477D01*
X143233810Y-42323971D01*
X143222254Y-42322795D01*
X143210415Y-42321953D01*
X143198302Y-42321445D01*
X143185923Y-42321276D01*
X143173573Y-42321443D01*
X143161505Y-42321943D01*
X143149725Y-42322774D01*
X143138241Y-42323935D01*
X143127061Y-42325423D01*
X143116191Y-42327237D01*
X143105640Y-42329374D01*
X143095413Y-42331834D01*
X143085518Y-42334613D01*
X143075963Y-42337711D01*
X143066755Y-42341125D01*
X143057901Y-42344854D01*
X143049408Y-42348895D01*
X143041284Y-42353247D01*
X143033535Y-42357908D01*
X143026170Y-42362876D01*
X143012617Y-42373726D01*
X143000683Y-42385783D01*
X142990426Y-42399031D01*
X142981904Y-42413455D01*
X142975175Y-42429041D01*
X142970297Y-42445774D01*
X142968570Y-42454566D01*
X142967327Y-42463640D01*
X142966576Y-42472992D01*
X142966324Y-42482622D01*
X142837254Y-42482622D01*
X142838531Y-42475600D01*
X142840615Y-42466381D01*
X142843020Y-42457528D01*
X142845730Y-42449031D01*
X142851990Y-42433078D01*
X142859253Y-42418454D01*
X142867379Y-42405096D01*
X142876226Y-42392936D01*
X142885653Y-42381910D01*
X142895517Y-42371952D01*
X142905679Y-42362996D01*
X142915996Y-42354976D01*
X142926328Y-42347827D01*
X142936532Y-42341483D01*
X142946467Y-42335879D01*
X142955993Y-42330948D01*
X142955993Y-42324353D01*
X142613296Y-42324353D01*
X142613296Y-42161907D01*
X143529500Y-42161907D01*
X143529500Y-42321276D01*
G37*
G36*
X143529500Y-41584004D02*
G01*
X143435197Y-41584004D01*
X143435197Y-41589500D01*
X143445942Y-41595434D01*
X143456452Y-41602200D01*
X143466666Y-41609810D01*
X143476520Y-41618275D01*
X143485950Y-41627609D01*
X143494892Y-41637823D01*
X143503284Y-41648929D01*
X143511062Y-41660941D01*
X143518163Y-41673869D01*
X143524522Y-41687727D01*
X143530077Y-41702526D01*
X143534765Y-41718279D01*
X143538521Y-41734998D01*
X143540030Y-41743723D01*
X143541283Y-41752695D01*
X143542270Y-41761914D01*
X143542986Y-41771383D01*
X143543421Y-41781102D01*
X143543568Y-41791073D01*
X143543358Y-41803279D01*
X143542730Y-41815282D01*
X143541685Y-41827070D01*
X143540225Y-41838631D01*
X143538350Y-41849953D01*
X143536064Y-41861024D01*
X143533366Y-41871831D01*
X143530259Y-41882363D01*
X143526743Y-41892608D01*
X143522822Y-41902552D01*
X143518495Y-41912186D01*
X143513765Y-41921495D01*
X143508633Y-41930468D01*
X143503100Y-41939093D01*
X143497168Y-41947358D01*
X143490839Y-41955250D01*
X143484114Y-41962758D01*
X143476994Y-41969870D01*
X143469481Y-41976572D01*
X143461576Y-41982854D01*
X143453281Y-41988703D01*
X143444598Y-41994107D01*
X143435528Y-41999054D01*
X143426071Y-42003531D01*
X143416231Y-42007527D01*
X143406008Y-42011030D01*
X143395404Y-42014027D01*
X143384421Y-42016506D01*
X143373059Y-42018456D01*
X143361320Y-42019863D01*
X143349206Y-42020716D01*
X143336719Y-42021003D01*
X143322545Y-42020634D01*
X143309028Y-42019539D01*
X143296152Y-42017742D01*
X143283901Y-42015265D01*
X143272258Y-42012130D01*
X143261206Y-42008359D01*
X143250730Y-42003976D01*
X143240812Y-41999001D01*
X143231438Y-41993458D01*
X143222589Y-41987368D01*
X143214251Y-41980754D01*
X143206405Y-41973639D01*
X143199037Y-41966044D01*
X143192129Y-41957991D01*
X143185666Y-41949504D01*
X143179631Y-41940605D01*
X143174007Y-41931315D01*
X143168778Y-41921657D01*
X143163928Y-41911654D01*
X143159441Y-41901327D01*
X143155299Y-41890699D01*
X143151487Y-41879792D01*
X143147988Y-41868629D01*
X143144786Y-41857232D01*
X143141865Y-41845622D01*
X143139207Y-41833824D01*
X143136797Y-41821858D01*
X143134619Y-41809747D01*
X143132656Y-41797513D01*
X143130891Y-41785179D01*
X143129308Y-41772767D01*
X143127891Y-41760299D01*
X143126705Y-41749135D01*
X143125572Y-41738394D01*
X143124482Y-41728070D01*
X143123425Y-41718160D01*
X143122390Y-41708657D01*
X143121368Y-41699559D01*
X143119321Y-41682558D01*
X143117204Y-41667121D01*
X143114935Y-41653212D01*
X143112433Y-41640795D01*
X143109619Y-41629836D01*
X143106410Y-41620299D01*
X143102726Y-41612149D01*
X143096132Y-41602445D01*
X143088016Y-41595662D01*
X143078103Y-41591680D01*
X143066122Y-41590379D01*
X143063484Y-41590379D01*
X143051173Y-41590859D01*
X143039556Y-41592292D01*
X143028647Y-41594668D01*
X143018459Y-41597976D01*
X143009007Y-41602207D01*
X143000304Y-41607350D01*
X142992364Y-41613394D01*
X142985201Y-41620329D01*
X142978829Y-41628146D01*
X142973262Y-41636833D01*
X142968513Y-41646380D01*
X142964597Y-41656778D01*
X142961526Y-41668015D01*
X142959316Y-41680082D01*
X142957980Y-41692968D01*
X142957532Y-41706663D01*
X142957995Y-41721110D01*
X142959352Y-41734779D01*
X142961553Y-41747677D01*
X142964549Y-41759807D01*
X142968290Y-41771177D01*
X142972729Y-41781791D01*
X142977814Y-41791654D01*
X142983498Y-41800773D01*
X142989730Y-41809152D01*
X142996461Y-41816798D01*
X143003643Y-41823715D01*
X143011226Y-41829909D01*
X143019160Y-41835386D01*
X143027397Y-41840151D01*
X143035886Y-41844209D01*
X143044580Y-41847567D01*
X143023257Y-41998802D01*
X143011689Y-41995224D01*
X143000479Y-41991213D01*
X142989626Y-41986777D01*
X142979132Y-41981923D01*
X142968998Y-41976659D01*
X142959223Y-41970994D01*
X142949809Y-41964933D01*
X142940757Y-41958486D01*
X142932066Y-41951659D01*
X142923738Y-41944460D01*
X142915773Y-41936898D01*
X142908172Y-41928979D01*
X142900936Y-41920712D01*
X142894064Y-41912103D01*
X142887559Y-41903161D01*
X142881419Y-41893893D01*
X142875647Y-41884307D01*
X142870243Y-41874411D01*
X142865207Y-41864212D01*
X142860540Y-41853717D01*
X142856243Y-41842935D01*
X142852316Y-41831873D01*
X142848760Y-41820539D01*
X142845575Y-41808940D01*
X142842763Y-41797085D01*
X142840324Y-41784980D01*
X142838258Y-41772633D01*
X142836566Y-41760052D01*
X142835249Y-41747245D01*
X142834308Y-41734219D01*
X142833743Y-41720982D01*
X142833554Y-41707542D01*
X142833716Y-41695215D01*
X142834210Y-41682817D01*
X142835051Y-41670379D01*
X142836251Y-41657932D01*
X142837823Y-41645505D01*
X142839782Y-41633129D01*
X142842139Y-41620835D01*
X142844909Y-41608651D01*
X142848104Y-41596610D01*
X142850147Y-41589939D01*
X143202190Y-41589939D01*
X143203758Y-41592082D01*
X143208251Y-41600570D01*
X143212425Y-41611740D01*
X143215035Y-41620414D01*
X143217507Y-41629889D01*
X143219845Y-41640007D01*
X143222048Y-41650613D01*
X143224119Y-41661549D01*
X143226060Y-41672660D01*
X143227871Y-41683788D01*
X143229556Y-41694778D01*
X143231114Y-41705472D01*
X143232549Y-41715714D01*
X143233860Y-41725348D01*
X143235602Y-41738317D01*
X143237727Y-41751693D01*
X143240248Y-41764584D01*
X143243196Y-41776938D01*
X143246600Y-41788703D01*
X143250491Y-41799827D01*
X143254899Y-41810257D01*
X143259854Y-41819941D01*
X143265387Y-41828827D01*
X143271529Y-41836863D01*
X143278308Y-41843997D01*
X143285756Y-41850177D01*
X143293902Y-41855350D01*
X143302778Y-41859464D01*
X143312412Y-41862467D01*
X143322837Y-41864307D01*
X143334081Y-41864932D01*
X143344912Y-41864373D01*
X143355066Y-41862722D01*
X143364539Y-41860024D01*
X143373329Y-41856322D01*
X143381432Y-41851656D01*
X143388845Y-41846072D01*
X143395567Y-41839611D01*
X143401593Y-41832317D01*
X143406921Y-41824231D01*
X143411548Y-41815398D01*
X143415471Y-41805859D01*
X143418687Y-41795658D01*
X143421194Y-41784838D01*
X143422988Y-41773441D01*
X143424066Y-41761510D01*
X143424426Y-41749088D01*
X143424238Y-41740044D01*
X143423679Y-41731217D01*
X143421490Y-41714228D01*
X143417938Y-41698158D01*
X143413099Y-41683046D01*
X143407052Y-41668928D01*
X143399874Y-41655842D01*
X143391645Y-41643825D01*
X143382441Y-41632914D01*
X143372340Y-41623147D01*
X143361422Y-41614561D01*
X143349762Y-41607193D01*
X143337440Y-41601081D01*
X143324533Y-41596263D01*
X143311119Y-41592775D01*
X143297277Y-41590654D01*
X143283083Y-41589939D01*
X143202190Y-41589939D01*
X142850147Y-41589939D01*
X142851739Y-41584740D01*
X142855826Y-41573073D01*
X142860378Y-41561638D01*
X142865409Y-41550465D01*
X142870932Y-41539586D01*
X142876961Y-41529030D01*
X142883508Y-41518828D01*
X142890587Y-41509009D01*
X142898211Y-41499605D01*
X142906394Y-41490645D01*
X142915149Y-41482159D01*
X142924488Y-41474179D01*
X142934427Y-41466733D01*
X142944976Y-41459854D01*
X142956151Y-41453569D01*
X142967964Y-41447911D01*
X142980428Y-41442909D01*
X142993557Y-41438593D01*
X143007364Y-41434995D01*
X143021863Y-41432143D01*
X143037066Y-41430068D01*
X143052987Y-41428802D01*
X143069639Y-41428373D01*
X143529500Y-41428373D01*
X143529500Y-41584004D01*
G37*
G36*
X143207940Y-40616936D02*
G01*
X143228280Y-40617985D01*
X143248035Y-40619715D01*
X143267200Y-40622112D01*
X143285769Y-40625161D01*
X143303738Y-40628847D01*
X143321099Y-40633155D01*
X143337849Y-40638070D01*
X143353980Y-40643577D01*
X143369488Y-40649663D01*
X143384367Y-40656311D01*
X143398611Y-40663507D01*
X143412215Y-40671236D01*
X143425173Y-40679484D01*
X143437479Y-40688236D01*
X143449128Y-40697476D01*
X143460115Y-40707190D01*
X143470433Y-40717363D01*
X143480078Y-40727981D01*
X143489043Y-40739028D01*
X143497323Y-40750490D01*
X143504912Y-40762352D01*
X143511806Y-40774599D01*
X143517997Y-40787217D01*
X143523481Y-40800190D01*
X143528251Y-40813503D01*
X143532304Y-40827142D01*
X143535632Y-40841093D01*
X143538230Y-40855340D01*
X143540093Y-40869868D01*
X143541214Y-40884662D01*
X143541590Y-40899709D01*
X143541387Y-40910607D01*
X143540790Y-40921130D01*
X143539815Y-40931285D01*
X143538479Y-40941080D01*
X143536797Y-40950521D01*
X143534788Y-40959615D01*
X143532467Y-40968369D01*
X143529850Y-40976790D01*
X143523796Y-40992658D01*
X143516759Y-41007275D01*
X143508871Y-41020695D01*
X143500264Y-41032974D01*
X143491069Y-41044165D01*
X143481418Y-41054325D01*
X143471445Y-41063506D01*
X143461280Y-41071765D01*
X143451056Y-41079156D01*
X143440905Y-41085733D01*
X143430958Y-41091552D01*
X143421349Y-41096666D01*
X143421349Y-41103261D01*
X143787347Y-41103261D01*
X143787347Y-41265267D01*
X142842347Y-41265267D01*
X142842347Y-41105899D01*
X142955993Y-41105899D01*
X142955993Y-41096666D01*
X142946467Y-41091735D01*
X142936532Y-41086131D01*
X142926328Y-41079786D01*
X142915996Y-41072637D01*
X142905679Y-41064618D01*
X142895517Y-41055662D01*
X142885653Y-41045703D01*
X142876226Y-41034678D01*
X142867379Y-41022518D01*
X142859253Y-41009160D01*
X142851990Y-40994536D01*
X142845730Y-40978583D01*
X142843020Y-40970086D01*
X142840615Y-40961233D01*
X142838531Y-40952013D01*
X142837254Y-40944992D01*
X142966324Y-40944992D01*
X142966576Y-40954622D01*
X142967327Y-40963974D01*
X142968570Y-40973047D01*
X142970297Y-40981839D01*
X142975175Y-40998573D01*
X142981904Y-41014159D01*
X142990426Y-41028583D01*
X143000683Y-41041831D01*
X143012617Y-41053887D01*
X143026170Y-41064738D01*
X143033535Y-41069706D01*
X143041284Y-41074367D01*
X143049408Y-41078719D01*
X143057901Y-41082760D01*
X143066755Y-41086489D01*
X143075963Y-41089903D01*
X143085518Y-41093001D01*
X143095413Y-41095780D01*
X143105640Y-41098240D01*
X143116191Y-41100377D01*
X143127061Y-41102191D01*
X143138241Y-41103679D01*
X143149725Y-41104840D01*
X143161505Y-41105671D01*
X143173573Y-41106171D01*
X143185923Y-41106338D01*
X143198302Y-41106169D01*
X143210415Y-41105661D01*
X143222254Y-41104819D01*
X143233810Y-41103643D01*
X143245075Y-41102137D01*
X143256041Y-41100302D01*
X143266699Y-41098141D01*
X143277041Y-41095657D01*
X143287059Y-41092851D01*
X143296745Y-41089726D01*
X143306090Y-41086284D01*
X143315085Y-41082528D01*
X143323723Y-41078460D01*
X143331995Y-41074083D01*
X143339892Y-41069398D01*
X143347407Y-41064408D01*
X143361256Y-41053522D01*
X143373475Y-41041445D01*
X143383997Y-41028194D01*
X143392755Y-41013788D01*
X143399683Y-40998246D01*
X143404714Y-40981587D01*
X143406498Y-40972844D01*
X143407782Y-40963829D01*
X143408558Y-40954544D01*
X143408819Y-40944992D01*
X143408546Y-40935104D01*
X143407733Y-40925516D01*
X143406393Y-40916227D01*
X143404534Y-40907238D01*
X143402168Y-40898551D01*
X143399306Y-40890167D01*
X143392137Y-40874310D01*
X143383111Y-40859675D01*
X143372316Y-40846270D01*
X143359836Y-40834104D01*
X143352992Y-40828488D01*
X143345759Y-40823185D01*
X143338147Y-40818195D01*
X143330169Y-40813519D01*
X143321834Y-40809160D01*
X143313153Y-40805117D01*
X143304137Y-40801392D01*
X143294797Y-40797985D01*
X143285143Y-40794898D01*
X143275187Y-40792132D01*
X143264938Y-40789687D01*
X143254408Y-40787565D01*
X143243608Y-40785767D01*
X143232547Y-40784293D01*
X143221238Y-40783146D01*
X143209690Y-40782324D01*
X143197915Y-40781831D01*
X143185923Y-40781666D01*
X143174037Y-40781829D01*
X143162374Y-40782315D01*
X143150944Y-40783125D01*
X143139756Y-40784257D01*
X143128822Y-40785713D01*
X143118150Y-40787490D01*
X143107753Y-40789589D01*
X143097638Y-40792008D01*
X143087818Y-40794748D01*
X143078301Y-40797808D01*
X143069098Y-40801187D01*
X143060219Y-40804885D01*
X143051675Y-40808901D01*
X143043475Y-40813235D01*
X143035629Y-40817887D01*
X143028148Y-40822855D01*
X143014321Y-40833739D01*
X143002074Y-40845884D01*
X142991489Y-40859285D01*
X142982646Y-40873939D01*
X142975627Y-40889840D01*
X142972827Y-40898258D01*
X142970513Y-40906986D01*
X142968696Y-40916024D01*
X142967385Y-40925371D01*
X142966591Y-40935027D01*
X142966324Y-40944992D01*
X142837254Y-40944992D01*
X142836786Y-40942421D01*
X142835399Y-40932446D01*
X142834386Y-40922081D01*
X142833765Y-40911318D01*
X142833554Y-40900149D01*
X142833918Y-40885372D01*
X142835007Y-40870810D01*
X142836818Y-40856479D01*
X142839347Y-40842397D01*
X142842591Y-40828580D01*
X142846546Y-40815045D01*
X142851208Y-40801808D01*
X142856573Y-40788886D01*
X142862639Y-40776296D01*
X142869401Y-40764054D01*
X142876855Y-40752177D01*
X142884999Y-40740681D01*
X142893829Y-40729584D01*
X142903340Y-40718902D01*
X142913530Y-40708652D01*
X142924394Y-40698850D01*
X142935929Y-40689513D01*
X142948132Y-40680657D01*
X142960999Y-40672300D01*
X142974525Y-40664458D01*
X142988709Y-40657147D01*
X143003545Y-40650385D01*
X143019031Y-40644187D01*
X143035162Y-40638571D01*
X143051935Y-40633554D01*
X143069347Y-40629151D01*
X143087394Y-40625380D01*
X143106071Y-40622258D01*
X143125377Y-40619800D01*
X143145306Y-40618024D01*
X143165856Y-40616946D01*
X143187022Y-40616583D01*
X143207940Y-40616936D01*
G37*
G36*
X142842347Y-40135180D02*
G01*
X142842347Y-40270808D01*
X142677922Y-40270808D01*
X142677922Y-40432594D01*
X142842347Y-40432594D01*
X142842347Y-40530194D01*
X142967643Y-40530194D01*
X142967643Y-40432594D01*
X143349688Y-40432594D01*
X143361633Y-40432401D01*
X143373191Y-40431665D01*
X143384362Y-40430399D01*
X143395147Y-40428614D01*
X143405543Y-40426322D01*
X143415553Y-40423537D01*
X143425174Y-40420270D01*
X143434407Y-40416534D01*
X143443252Y-40412340D01*
X143451709Y-40407702D01*
X143459776Y-40402630D01*
X143467455Y-40397138D01*
X143474744Y-40391238D01*
X143481644Y-40384942D01*
X143488154Y-40378262D01*
X143494274Y-40371210D01*
X143500003Y-40363799D01*
X143505342Y-40356041D01*
X143510291Y-40347948D01*
X143514848Y-40339532D01*
X143519014Y-40330806D01*
X143522789Y-40321782D01*
X143526172Y-40312472D01*
X143529163Y-40302888D01*
X143531762Y-40293042D01*
X143533968Y-40282948D01*
X143535782Y-40272616D01*
X143537203Y-40262060D01*
X143538230Y-40251291D01*
X143538864Y-40240322D01*
X143539105Y-40229165D01*
X143538952Y-40217832D01*
X143538387Y-40205282D01*
X143537471Y-40193476D01*
X143536258Y-40182416D01*
X143534802Y-40172105D01*
X143533158Y-40162545D01*
X143531379Y-40153737D01*
X143528894Y-40143168D01*
X143526395Y-40133946D01*
X143523450Y-40124321D01*
X143522905Y-40122650D01*
X143396289Y-40149908D01*
X143398477Y-40159542D01*
X143400301Y-40169444D01*
X143401628Y-40179230D01*
X143402382Y-40188082D01*
X143402664Y-40197389D01*
X143402252Y-40208597D01*
X143400895Y-40219265D01*
X143398414Y-40229270D01*
X143394631Y-40238490D01*
X143389365Y-40246801D01*
X143382438Y-40254081D01*
X143373669Y-40260206D01*
X143362880Y-40265055D01*
X143349892Y-40268504D01*
X143339923Y-40269965D01*
X143328843Y-40270713D01*
X143322870Y-40270808D01*
X142967643Y-40270808D01*
X142967643Y-40135180D01*
X142842347Y-40135180D01*
G37*
G36*
X143230326Y-39876014D02*
G01*
X143241209Y-39875692D01*
X143251803Y-39874976D01*
X143262105Y-39873873D01*
X143272110Y-39872389D01*
X143281817Y-39870530D01*
X143291220Y-39868302D01*
X143300315Y-39865711D01*
X143309100Y-39862763D01*
X143317571Y-39859464D01*
X143325723Y-39855820D01*
X143341057Y-39847521D01*
X143355073Y-39837915D01*
X143367741Y-39827049D01*
X143379030Y-39814973D01*
X143388911Y-39801735D01*
X143397355Y-39787382D01*
X143404330Y-39771964D01*
X143409807Y-39755528D01*
X143411975Y-39746944D01*
X143413757Y-39738123D01*
X143415149Y-39729072D01*
X143416149Y-39719797D01*
X143416751Y-39710304D01*
X143416952Y-39700599D01*
X143416595Y-39687686D01*
X143415526Y-39675178D01*
X143413750Y-39663096D01*
X143411271Y-39651462D01*
X143408095Y-39640300D01*
X143404224Y-39629632D01*
X143399665Y-39619481D01*
X143394421Y-39609869D01*
X143388497Y-39600818D01*
X143381897Y-39592351D01*
X143374627Y-39584491D01*
X143366690Y-39577260D01*
X143358090Y-39570681D01*
X143348834Y-39564776D01*
X143338924Y-39559568D01*
X143328366Y-39555079D01*
X143345292Y-39404063D01*
X143356361Y-39406980D01*
X143367184Y-39410367D01*
X143377753Y-39414220D01*
X143388062Y-39418532D01*
X143398104Y-39423297D01*
X143407872Y-39428511D01*
X143417360Y-39434168D01*
X143426559Y-39440261D01*
X143435464Y-39446786D01*
X143444067Y-39453736D01*
X143452362Y-39461106D01*
X143460342Y-39468890D01*
X143468000Y-39477082D01*
X143475328Y-39485677D01*
X143482321Y-39494670D01*
X143488970Y-39504053D01*
X143495271Y-39513823D01*
X143501214Y-39523972D01*
X143506794Y-39534496D01*
X143512004Y-39545389D01*
X143516836Y-39556645D01*
X143521285Y-39568258D01*
X143525342Y-39580223D01*
X143529001Y-39592534D01*
X143532256Y-39605185D01*
X143535099Y-39618171D01*
X143537524Y-39631486D01*
X143539523Y-39645124D01*
X143541090Y-39659080D01*
X143542218Y-39673348D01*
X143542899Y-39687922D01*
X143543128Y-39702797D01*
X143542728Y-39721972D01*
X143541533Y-39740668D01*
X143539554Y-39758876D01*
X143536804Y-39776586D01*
X143533291Y-39793792D01*
X143529028Y-39810484D01*
X143524025Y-39826653D01*
X143518292Y-39842292D01*
X143511841Y-39857392D01*
X143504683Y-39871945D01*
X143496828Y-39885942D01*
X143488287Y-39899374D01*
X143479070Y-39912233D01*
X143469190Y-39924511D01*
X143458656Y-39936200D01*
X143447480Y-39947290D01*
X143435672Y-39957774D01*
X143423242Y-39967642D01*
X143410203Y-39976887D01*
X143396565Y-39985500D01*
X143382338Y-39993472D01*
X143367533Y-40000796D01*
X143352162Y-40007462D01*
X143336234Y-40013462D01*
X143319762Y-40018788D01*
X143302755Y-40023432D01*
X143285225Y-40027384D01*
X143267182Y-40030636D01*
X143248637Y-40033181D01*
X143229601Y-40035009D01*
X143210085Y-40036112D01*
X143190100Y-40036481D01*
X143170414Y-40036107D01*
X143151138Y-40034992D01*
X143132288Y-40033146D01*
X143113876Y-40030581D01*
X143095918Y-40027308D01*
X143078426Y-40023338D01*
X143061415Y-40018681D01*
X143044899Y-40013349D01*
X143028892Y-40007353D01*
X143013409Y-40000703D01*
X142998463Y-39993411D01*
X142984067Y-39985488D01*
X142970238Y-39976945D01*
X142956987Y-39967792D01*
X142944330Y-39958041D01*
X142932280Y-39947702D01*
X142920852Y-39936787D01*
X142910059Y-39925307D01*
X142899916Y-39913272D01*
X142890436Y-39900694D01*
X142881634Y-39887584D01*
X142873524Y-39873952D01*
X142866119Y-39859809D01*
X142859434Y-39845167D01*
X142853483Y-39830037D01*
X142848280Y-39814429D01*
X142843839Y-39798355D01*
X142840174Y-39781825D01*
X142837299Y-39764850D01*
X142835228Y-39747442D01*
X142833975Y-39729612D01*
X142833554Y-39711370D01*
X142833597Y-39709172D01*
X142959730Y-39709172D01*
X142960581Y-39726888D01*
X142963074Y-39743820D01*
X142967123Y-39759929D01*
X142972637Y-39775172D01*
X142979530Y-39789508D01*
X142987713Y-39802897D01*
X142997097Y-39815296D01*
X143007595Y-39826665D01*
X143019118Y-39836962D01*
X143031579Y-39846146D01*
X143044888Y-39854176D01*
X143058957Y-39861011D01*
X143073699Y-39866610D01*
X143089025Y-39870931D01*
X143104847Y-39873932D01*
X143121077Y-39875574D01*
X143121077Y-39552441D01*
X143103869Y-39553322D01*
X143087321Y-39555605D01*
X143071495Y-39559244D01*
X143056453Y-39564194D01*
X143042258Y-39570409D01*
X143028970Y-39577843D01*
X143016654Y-39586450D01*
X143005370Y-39596185D01*
X142995180Y-39607002D01*
X142986148Y-39618854D01*
X142978335Y-39631698D01*
X142971803Y-39645486D01*
X142966614Y-39660173D01*
X142962831Y-39675714D01*
X142960515Y-39692062D01*
X142959730Y-39709172D01*
X142833597Y-39709172D01*
X142833865Y-39695577D01*
X142834803Y-39679949D01*
X142836372Y-39664508D01*
X142838578Y-39649276D01*
X142841426Y-39634276D01*
X142844921Y-39619528D01*
X142849070Y-39605056D01*
X142853877Y-39590882D01*
X142859347Y-39577027D01*
X142865487Y-39563513D01*
X142872301Y-39550363D01*
X142879794Y-39537598D01*
X142887973Y-39525241D01*
X142896842Y-39513314D01*
X142906407Y-39501838D01*
X142916673Y-39490837D01*
X142927645Y-39480331D01*
X142939329Y-39470343D01*
X142951731Y-39460895D01*
X142964855Y-39452010D01*
X142978707Y-39443708D01*
X142993292Y-39436012D01*
X143008615Y-39428945D01*
X143024683Y-39422528D01*
X143041500Y-39416784D01*
X143059071Y-39411733D01*
X143077403Y-39407399D01*
X143096499Y-39403804D01*
X143116367Y-39400969D01*
X143137011Y-39398917D01*
X143158436Y-39397670D01*
X143180647Y-39397249D01*
X143230326Y-39397249D01*
X143230326Y-39876014D01*
G37*
G36*
X143529500Y-39260522D02*
G01*
X143529500Y-39098516D01*
X143125693Y-39098516D01*
X143109638Y-39097756D01*
X143094233Y-39095518D01*
X143079533Y-39091863D01*
X143065590Y-39086855D01*
X143052456Y-39080555D01*
X143040186Y-39073025D01*
X143028833Y-39064327D01*
X143018449Y-39054524D01*
X143009087Y-39043678D01*
X143000802Y-39031851D01*
X142993645Y-39019105D01*
X142987671Y-39005501D01*
X142982931Y-38991104D01*
X142979480Y-38975973D01*
X142977371Y-38960172D01*
X142976656Y-38943763D01*
X142976873Y-38933275D01*
X142977484Y-38922465D01*
X142978429Y-38911650D01*
X142979651Y-38901146D01*
X142981089Y-38891271D01*
X142982684Y-38882341D01*
X142984808Y-38872991D01*
X142986108Y-38868585D01*
X142837071Y-38868585D01*
X142835686Y-38877886D01*
X142834698Y-38886851D01*
X142833884Y-38896475D01*
X142833262Y-38906341D01*
X142832854Y-38916030D01*
X142832680Y-38925126D01*
X142832675Y-38926837D01*
X142833195Y-38941434D01*
X142834747Y-38955686D01*
X142837317Y-38969553D01*
X142840890Y-38982994D01*
X142845453Y-38995969D01*
X142850990Y-39008437D01*
X142857488Y-39020358D01*
X142864933Y-39031691D01*
X142873310Y-39042395D01*
X142882606Y-39052430D01*
X142892806Y-39061756D01*
X142903896Y-39070331D01*
X142915862Y-39078115D01*
X142928689Y-39085068D01*
X142942364Y-39091149D01*
X142956872Y-39096317D01*
X142956872Y-39103571D01*
X142842347Y-39103571D01*
X142842347Y-39260522D01*
X143529500Y-39260522D01*
G37*
D11*
%TO.C,C2*%
X140475000Y-47300000D03*
X138925000Y-47300000D03*
%TD*%
D12*
%TO.C,U1*%
X135800000Y-49200000D03*
X135800000Y-49700000D03*
X135800000Y-50200000D03*
X135800000Y-50700000D03*
X135800000Y-51200000D03*
X140200000Y-51200000D03*
X140200000Y-50700000D03*
X140200000Y-50200000D03*
X140200000Y-49700000D03*
X140200000Y-49200000D03*
%TD*%
D13*
%TO.C,R4*%
X139600000Y-57425000D03*
X139600000Y-55775000D03*
%TD*%
D14*
%TO.C,D5*%
X141500000Y-65787500D03*
X141500000Y-64212500D03*
%TD*%
D15*
%TO.C,C3*%
X130700000Y-47325000D03*
X130700000Y-45775000D03*
%TD*%
D16*
%TO.C,J1*%
X132870000Y-77440000D03*
D17*
X130330000Y-77440000D03*
X132870000Y-74900000D03*
X130330000Y-74900000D03*
X132870000Y-72360000D03*
X130330000Y-72360000D03*
%TD*%
D18*
%TO.C,USB1*%
X137890000Y-41250000D03*
X132110000Y-41250000D03*
D19*
X138225000Y-42695000D03*
X137450000Y-42695000D03*
D20*
X136750000Y-42695000D03*
X136250000Y-42695000D03*
X135750000Y-42695000D03*
X135250000Y-42695000D03*
X134750000Y-42695000D03*
X134250000Y-42695000D03*
X133750000Y-42695000D03*
X133250000Y-42695000D03*
D19*
X132550000Y-42695000D03*
X131775000Y-42695000D03*
D21*
X139320000Y-41780000D03*
D22*
X139320000Y-37600000D03*
D21*
X130680000Y-41780000D03*
D22*
X130680000Y-37600000D03*
%TD*%
D23*
%TO.C,R1*%
X127275000Y-40800000D03*
X128925000Y-40800000D03*
%TD*%
D24*
%TO.C,U2*%
X128850000Y-45262500D03*
X127900000Y-45262500D03*
X126950000Y-45262500D03*
X126950000Y-47537500D03*
X128850000Y-47537500D03*
%TD*%
D25*
%TO.C,R3*%
X142400000Y-76675000D03*
X142400000Y-78325000D03*
%TD*%
D13*
%TO.C,R6*%
X139600000Y-65825000D03*
X139600000Y-64175000D03*
%TD*%
D14*
%TO.C,D3*%
X141500000Y-57387500D03*
X141500000Y-55812500D03*
%TD*%
D26*
%TO.C,SW1*%
X130500000Y-52550000D03*
X130500000Y-57050000D03*
D27*
X133500000Y-52800000D03*
X133500000Y-54800000D03*
X133500000Y-56800000D03*
X127500000Y-52800000D03*
X127500000Y-54800000D03*
X127500000Y-56800000D03*
%TD*%
D11*
%TO.C,C1*%
X140475000Y-53200000D03*
X138925000Y-53200000D03*
%TD*%
D13*
%TO.C,R5*%
X139600000Y-61625000D03*
X139600000Y-59975000D03*
%TD*%
D14*
%TO.C,D4*%
X141500000Y-61587500D03*
X141500000Y-60012500D03*
%TD*%
D16*
%TO.C,J2*%
X138100000Y-77425000D03*
D17*
X138100000Y-74885000D03*
X138100000Y-72345000D03*
%TD*%
D26*
%TO.C,SW2*%
X130500000Y-64750000D03*
X130500000Y-60250000D03*
D28*
X127500000Y-64500000D03*
X127500000Y-62500000D03*
X127500000Y-60500000D03*
X133500000Y-64500000D03*
X133500000Y-62500000D03*
X133500000Y-60500000D03*
%TD*%
D29*
%TO.C,D1*%
X136150000Y-47250000D03*
D30*
X136150000Y-45550000D03*
X133850000Y-45550000D03*
X133850000Y-47450000D03*
%TD*%
D11*
%TO.C,C4*%
X128675000Y-49500000D03*
X127125000Y-49500000D03*
%TD*%
D23*
%TO.C,R2*%
X127275000Y-38900000D03*
X128925000Y-38900000D03*
%TD*%
D31*
%TO.C,D2*%
X142400000Y-71650000D03*
X142400000Y-74950000D03*
%TD*%
D32*
%TO.C,F2*%
X137600000Y-68900000D03*
X140400000Y-68900000D03*
%TD*%
D33*
%TO.C,F1*%
X133600000Y-49500000D03*
X130800000Y-49500000D03*
%TD*%
M02*
