%TF.GenerationSoftware,KiCad,Pcbnew,7.0.9*%
%TF.CreationDate,2023-12-31T00:29:42+09:00*%
%TF.ProjectId,CustomUPDIProgrammer,43757374-6f6d-4555-9044-4950726f6772,rev?*%
%TF.SameCoordinates,Original*%
%TF.FileFunction,Copper,L1,Top*%
%TF.FilePolarity,Positive*%
%FSLAX46Y46*%
G04 Gerber Fmt 4.6, Leading zero omitted, Abs format (unit mm)*
G04 Created by KiCad (PCBNEW 7.0.9) date 2023-12-31 00:29:42*
%MOMM*%
%LPD*%
G01*
G04 APERTURE LIST*
G04 Aperture macros list*
%AMRoundRect*
0 Rectangle with rounded corners*
0 $1 Rounding radius*
0 $2 $3 $4 $5 $6 $7 $8 $9 X,Y pos of 4 corners*
0 Add a 4 corners polygon primitive as box body*
4,1,4,$2,$3,$4,$5,$6,$7,$8,$9,$2,$3,0*
0 Add four circle primitives for the rounded corners*
1,1,$1+$1,$2,$3*
1,1,$1+$1,$4,$5*
1,1,$1+$1,$6,$7*
1,1,$1+$1,$8,$9*
0 Add four rect primitives between the rounded corners*
20,1,$1+$1,$2,$3,$4,$5,0*
20,1,$1+$1,$4,$5,$6,$7,0*
20,1,$1+$1,$6,$7,$8,$9,0*
20,1,$1+$1,$8,$9,$2,$3,0*%
G04 Aperture macros list end*
%TA.AperFunction,SMDPad,CuDef*%
%ADD10RoundRect,0.225000X0.225000X0.250000X-0.225000X0.250000X-0.225000X-0.250000X0.225000X-0.250000X0*%
%TD*%
%TA.AperFunction,SMDPad,CuDef*%
%ADD11R,1.400000X0.300000*%
%TD*%
%TA.AperFunction,SMDPad,CuDef*%
%ADD12RoundRect,0.200000X0.275000X-0.200000X0.275000X0.200000X-0.275000X0.200000X-0.275000X-0.200000X0*%
%TD*%
%TA.AperFunction,SMDPad,CuDef*%
%ADD13RoundRect,0.218750X0.256250X-0.218750X0.256250X0.218750X-0.256250X0.218750X-0.256250X-0.218750X0*%
%TD*%
%TA.AperFunction,SMDPad,CuDef*%
%ADD14RoundRect,0.225000X0.250000X-0.225000X0.250000X0.225000X-0.250000X0.225000X-0.250000X-0.225000X0*%
%TD*%
%TA.AperFunction,ComponentPad*%
%ADD15R,1.700000X1.700000*%
%TD*%
%TA.AperFunction,ComponentPad*%
%ADD16O,1.700000X1.700000*%
%TD*%
%TA.AperFunction,SMDPad,CuDef*%
%ADD17R,0.600000X1.450000*%
%TD*%
%TA.AperFunction,SMDPad,CuDef*%
%ADD18R,0.300000X1.450000*%
%TD*%
%TA.AperFunction,ComponentPad*%
%ADD19O,1.000000X2.100000*%
%TD*%
%TA.AperFunction,ComponentPad*%
%ADD20O,1.000000X1.600000*%
%TD*%
%TA.AperFunction,SMDPad,CuDef*%
%ADD21RoundRect,0.200000X-0.200000X-0.275000X0.200000X-0.275000X0.200000X0.275000X-0.200000X0.275000X0*%
%TD*%
%TA.AperFunction,SMDPad,CuDef*%
%ADD22RoundRect,0.150000X-0.150000X0.512500X-0.150000X-0.512500X0.150000X-0.512500X0.150000X0.512500X0*%
%TD*%
%TA.AperFunction,SMDPad,CuDef*%
%ADD23RoundRect,0.200000X-0.275000X0.200000X-0.275000X-0.200000X0.275000X-0.200000X0.275000X0.200000X0*%
%TD*%
%TA.AperFunction,SMDPad,CuDef*%
%ADD24RoundRect,0.150000X-0.850000X0.350000X-0.850000X-0.350000X0.850000X-0.350000X0.850000X0.350000X0*%
%TD*%
%TA.AperFunction,SMDPad,CuDef*%
%ADD25RoundRect,0.150000X0.850000X-0.350000X0.850000X0.350000X-0.850000X0.350000X-0.850000X-0.350000X0*%
%TD*%
%TA.AperFunction,SMDPad,CuDef*%
%ADD26RoundRect,0.100000X0.400000X-0.500000X0.400000X0.500000X-0.400000X0.500000X-0.400000X-0.500000X0*%
%TD*%
%TA.AperFunction,SMDPad,CuDef*%
%ADD27RoundRect,0.100000X0.400000X-0.350000X0.400000X0.350000X-0.400000X0.350000X-0.400000X-0.350000X0*%
%TD*%
%TA.AperFunction,SMDPad,CuDef*%
%ADD28RoundRect,0.225000X-0.375000X0.225000X-0.375000X-0.225000X0.375000X-0.225000X0.375000X0.225000X0*%
%TD*%
%TA.AperFunction,SMDPad,CuDef*%
%ADD29RoundRect,0.250000X-0.375000X-0.625000X0.375000X-0.625000X0.375000X0.625000X-0.375000X0.625000X0*%
%TD*%
%TA.AperFunction,SMDPad,CuDef*%
%ADD30RoundRect,0.250000X0.375000X0.625000X-0.375000X0.625000X-0.375000X-0.625000X0.375000X-0.625000X0*%
%TD*%
%TA.AperFunction,ViaPad*%
%ADD31C,0.800000*%
%TD*%
%TA.AperFunction,Conductor*%
%ADD32C,0.500000*%
%TD*%
%TA.AperFunction,Conductor*%
%ADD33C,0.300000*%
%TD*%
%TA.AperFunction,Conductor*%
%ADD34C,0.200000*%
%TD*%
%TA.AperFunction,Conductor*%
%ADD35C,0.250000*%
%TD*%
G04 APERTURE END LIST*
D10*
%TO.P,C2,1*%
%TO.N,+3.3V*%
X140475000Y-47300000D03*
%TO.P,C2,2*%
%TO.N,GND*%
X138925000Y-47300000D03*
%TD*%
D11*
%TO.P,U1,1,UD+*%
%TO.N,D+*%
X135800000Y-49200000D03*
%TO.P,U1,2,UD-*%
%TO.N,D-*%
X135800000Y-49700000D03*
%TO.P,U1,3,GND*%
%TO.N,GND*%
X135800000Y-50200000D03*
%TO.P,U1,4,~{RTS}*%
%TO.N,unconnected-(U1-~{RTS}-Pad4)*%
X135800000Y-50700000D03*
%TO.P,U1,5,~{CTS}*%
%TO.N,unconnected-(U1-~{CTS}-Pad5)*%
X135800000Y-51200000D03*
%TO.P,U1,6,TNOW*%
%TO.N,Net-(U1-TNOW)*%
X140200000Y-51200000D03*
%TO.P,U1,7,VCC*%
%TO.N,VCC*%
X140200000Y-50700000D03*
%TO.P,U1,8,TXD*%
%TO.N,TXD*%
X140200000Y-50200000D03*
%TO.P,U1,9,RXD*%
%TO.N,RXD*%
X140200000Y-49700000D03*
%TO.P,U1,10,V3*%
%TO.N,+3.3V*%
X140200000Y-49200000D03*
%TD*%
D12*
%TO.P,R4,1*%
%TO.N,Net-(U1-TNOW)*%
X139600000Y-57425000D03*
%TO.P,R4,2*%
%TO.N,Net-(D3-A)*%
X139600000Y-55775000D03*
%TD*%
D13*
%TO.P,D5,1,K*%
%TO.N,GND*%
X141500000Y-65787500D03*
%TO.P,D5,2,A*%
%TO.N,Net-(D5-A)*%
X141500000Y-64212500D03*
%TD*%
D14*
%TO.P,C3,1*%
%TO.N,+5V*%
X130700000Y-47325000D03*
%TO.P,C3,2*%
%TO.N,GND*%
X130700000Y-45775000D03*
%TD*%
D15*
%TO.P,J1,1,Pin_1*%
%TO.N,UPDI*%
X132870000Y-77440000D03*
D16*
%TO.P,J1,2,Pin_2*%
%TO.N,VOUT*%
X130330000Y-77440000D03*
%TO.P,J1,3,Pin_3*%
%TO.N,unconnected-(J1-Pin_3-Pad3)*%
X132870000Y-74900000D03*
%TO.P,J1,4,Pin_4*%
%TO.N,TXD-Serial*%
X130330000Y-74900000D03*
%TO.P,J1,5,Pin_5*%
%TO.N,RXD-Serial*%
X132870000Y-72360000D03*
%TO.P,J1,6,Pin_6*%
%TO.N,GND*%
X130330000Y-72360000D03*
%TD*%
D17*
%TO.P,USB1,1,GND*%
%TO.N,GND*%
X138225000Y-42695000D03*
%TO.P,USB1,2,VBUS*%
%TO.N,VBUS*%
X137450000Y-42695000D03*
D18*
%TO.P,USB1,3,SBU2*%
%TO.N,unconnected-(USB1-SBU2-Pad3)*%
X136750000Y-42695000D03*
%TO.P,USB1,4,CC1*%
%TO.N,Net-(USB1-CC1)*%
X136250000Y-42695000D03*
%TO.P,USB1,5,DN2*%
%TO.N,D-*%
X135750000Y-42695000D03*
%TO.P,USB1,6,DP1*%
%TO.N,D+*%
X135250000Y-42695000D03*
%TO.P,USB1,7,DN1*%
%TO.N,D-*%
X134750000Y-42695000D03*
%TO.P,USB1,8,DP2*%
%TO.N,D+*%
X134250000Y-42695000D03*
%TO.P,USB1,9,SBU1*%
%TO.N,unconnected-(USB1-SBU1-Pad9)*%
X133750000Y-42695000D03*
%TO.P,USB1,10,CC2*%
%TO.N,Net-(USB1-CC2)*%
X133250000Y-42695000D03*
D17*
%TO.P,USB1,11,VBUS*%
%TO.N,VBUS*%
X132550000Y-42695000D03*
%TO.P,USB1,12,GND*%
%TO.N,GND*%
X131775000Y-42695000D03*
D19*
%TO.P,USB1,13,SHIELD*%
X139320000Y-41780000D03*
D20*
X139320000Y-37600000D03*
D19*
X130680000Y-41780000D03*
D20*
X130680000Y-37600000D03*
%TD*%
D21*
%TO.P,R1,1*%
%TO.N,Net-(USB1-CC2)*%
X127275000Y-40800000D03*
%TO.P,R1,2*%
%TO.N,GND*%
X128925000Y-40800000D03*
%TD*%
D22*
%TO.P,U2,1,VIN*%
%TO.N,+5V*%
X128850000Y-45262500D03*
%TO.P,U2,2,GND*%
%TO.N,GND*%
X127900000Y-45262500D03*
%TO.P,U2,3,EN*%
%TO.N,+5V*%
X126950000Y-45262500D03*
%TO.P,U2,4,NC*%
%TO.N,unconnected-(U2-NC-Pad4)*%
X126950000Y-47537500D03*
%TO.P,U2,5,VOUT*%
%TO.N,+3.3V*%
X128850000Y-47537500D03*
%TD*%
D23*
%TO.P,R3,1*%
%TO.N,RXD-UPDI*%
X142400000Y-76675000D03*
%TO.P,R3,2*%
%TO.N,UPDI*%
X142400000Y-78325000D03*
%TD*%
D12*
%TO.P,R6,1*%
%TO.N,VOUT*%
X139600000Y-65825000D03*
%TO.P,R6,2*%
%TO.N,Net-(D5-A)*%
X139600000Y-64175000D03*
%TD*%
D13*
%TO.P,D3,1,K*%
%TO.N,GND*%
X141500000Y-57387500D03*
%TO.P,D3,2,A*%
%TO.N,Net-(D3-A)*%
X141500000Y-55812500D03*
%TD*%
D24*
%TO.P,SW1,1,A*%
%TO.N,+5V*%
X133500000Y-52800000D03*
%TO.P,SW1,2,B*%
%TO.N,VCC*%
X133500000Y-54800000D03*
%TO.P,SW1,3,C*%
%TO.N,+3.3V*%
X133500000Y-56800000D03*
%TO.P,SW1,4,A*%
%TO.N,+5V*%
X127500000Y-52800000D03*
%TO.P,SW1,5,B*%
%TO.N,VCC*%
X127500000Y-54800000D03*
%TO.P,SW1,6,C*%
%TO.N,+3.3V*%
X127500000Y-56800000D03*
%TD*%
D10*
%TO.P,C1,1*%
%TO.N,VCC*%
X140475000Y-53200000D03*
%TO.P,C1,2*%
%TO.N,GND*%
X138925000Y-53200000D03*
%TD*%
D12*
%TO.P,R5,1*%
%TO.N,VCC*%
X139600000Y-61625000D03*
%TO.P,R5,2*%
%TO.N,Net-(D4-A)*%
X139600000Y-59975000D03*
%TD*%
D13*
%TO.P,D4,1,K*%
%TO.N,GND*%
X141500000Y-61587500D03*
%TO.P,D4,2,A*%
%TO.N,Net-(D4-A)*%
X141500000Y-60012500D03*
%TD*%
D15*
%TO.P,J2,1,Pin_1*%
%TO.N,UPDI*%
X138100000Y-77425000D03*
D16*
%TO.P,J2,2,Pin_2*%
%TO.N,GND*%
X138100000Y-74885000D03*
%TO.P,J2,3,Pin_3*%
%TO.N,VOUT*%
X138100000Y-72345000D03*
%TD*%
D25*
%TO.P,SW2,1,A*%
%TO.N,TXD-UPDI*%
X127500000Y-64500000D03*
%TO.P,SW2,2,B*%
%TO.N,TXD*%
X127500000Y-62500000D03*
%TO.P,SW2,3,C*%
%TO.N,TXD-Serial*%
X127500000Y-60500000D03*
%TO.P,SW2,4,A*%
%TO.N,RXD-UPDI*%
X133500000Y-64500000D03*
%TO.P,SW2,5,B*%
%TO.N,RXD*%
X133500000Y-62500000D03*
%TO.P,SW2,6,C*%
%TO.N,RXD-Serial*%
X133500000Y-60500000D03*
%TD*%
D26*
%TO.P,D1,1,GND*%
%TO.N,GND*%
X136150000Y-47250000D03*
D27*
%TO.P,D1,2,I/O1*%
%TO.N,D-*%
X136150000Y-45550000D03*
%TO.P,D1,3,I/O2*%
%TO.N,D+*%
X133850000Y-45550000D03*
%TO.P,D1,4,VCC*%
%TO.N,VBUS*%
X133850000Y-47450000D03*
%TD*%
D10*
%TO.P,C4,1*%
%TO.N,+3.3V*%
X128675000Y-49500000D03*
%TO.P,C4,2*%
%TO.N,GND*%
X127125000Y-49500000D03*
%TD*%
D21*
%TO.P,R2,1*%
%TO.N,Net-(USB1-CC1)*%
X127275000Y-38900000D03*
%TO.P,R2,2*%
%TO.N,GND*%
X128925000Y-38900000D03*
%TD*%
D28*
%TO.P,D2,1,K*%
%TO.N,TXD-UPDI*%
X142400000Y-71650000D03*
%TO.P,D2,2,A*%
%TO.N,RXD-UPDI*%
X142400000Y-74950000D03*
%TD*%
D29*
%TO.P,F2,1*%
%TO.N,VCC*%
X137600000Y-68900000D03*
%TO.P,F2,2*%
%TO.N,VOUT*%
X140400000Y-68900000D03*
%TD*%
D30*
%TO.P,F1,1*%
%TO.N,VBUS*%
X133600000Y-49500000D03*
%TO.P,F1,2*%
%TO.N,+5V*%
X130800000Y-49500000D03*
%TD*%
D31*
%TO.N,GND*%
X138800000Y-44500000D03*
X141600000Y-48100000D03*
X128900000Y-37800000D03*
X136500000Y-78300000D03*
X142700000Y-61600000D03*
X130700000Y-44700000D03*
X133200000Y-41100000D03*
X138800000Y-45500000D03*
X139600000Y-58700000D03*
X139800000Y-44500000D03*
X127500000Y-59100000D03*
X136500000Y-76500000D03*
X134500000Y-78300000D03*
X128900000Y-41900000D03*
X143000000Y-82000000D03*
X143000000Y-38000000D03*
X137800000Y-53200000D03*
X134500000Y-76500000D03*
X136800000Y-61500000D03*
X136800000Y-64700000D03*
X142700000Y-57400000D03*
X132100000Y-79000000D03*
X137500000Y-47300000D03*
X135900000Y-67800000D03*
X141500000Y-66900000D03*
X127000000Y-82000000D03*
X128500000Y-69200000D03*
X134100000Y-51350000D03*
X127900000Y-44000000D03*
%TO.N,+3.3V*%
X140500000Y-46200000D03*
X127000000Y-50900000D03*
X128000000Y-50900000D03*
X135100000Y-56800000D03*
X128000000Y-58000000D03*
X127000000Y-58000000D03*
%TO.N,VBUS*%
X137600000Y-45300000D03*
X132400000Y-44300000D03*
X137600000Y-44300000D03*
X132400000Y-45300000D03*
%TO.N,TXD*%
X129100000Y-62500000D03*
X142000000Y-50400000D03*
%TO.N,RXD*%
X131900000Y-62500000D03*
X142000000Y-49400000D03*
%TO.N,Net-(USB1-CC2)*%
X133500000Y-44300000D03*
X127300000Y-41900000D03*
%TO.N,Net-(USB1-CC1)*%
X136500000Y-44300000D03*
X127300000Y-37800000D03*
%TO.N,Net-(U1-TNOW)*%
X138500000Y-57400000D03*
X139700000Y-52000000D03*
%TO.N,TXD-UPDI*%
X127500000Y-65700000D03*
X141200000Y-71650000D03*
%TO.N,RXD-UPDI*%
X141200000Y-74950000D03*
X133500000Y-65700000D03*
%TD*%
D32*
%TO.N,VCC*%
X140475000Y-53435938D02*
X140475000Y-53200000D01*
X127500000Y-54800000D02*
X128200000Y-54800000D01*
X128200000Y-54800000D02*
X128700000Y-55300000D01*
X137900000Y-62450000D02*
X137900000Y-68600000D01*
X136700000Y-59400000D02*
X136700000Y-56000000D01*
D33*
X139600000Y-61625000D02*
X138375000Y-61625000D01*
X138375000Y-61625000D02*
X137900000Y-62100000D01*
D32*
X135550000Y-54800000D02*
X136725000Y-55975000D01*
X138300000Y-54400000D02*
X137900000Y-54800000D01*
X137900000Y-61650000D02*
X137900000Y-62100000D01*
X132300000Y-55300000D02*
X132800000Y-54800000D01*
D33*
X138375000Y-61625000D02*
X137900000Y-61150000D01*
D32*
X139500000Y-54400000D02*
X140475000Y-53425000D01*
X137900000Y-62100000D02*
X137900000Y-62450000D01*
D33*
X138375000Y-61625000D02*
X137925000Y-61625000D01*
D32*
X139500000Y-54400000D02*
X138300000Y-54400000D01*
X136700000Y-56000000D02*
X136725000Y-55975000D01*
X137900000Y-68600000D02*
X137600000Y-68900000D01*
D33*
X137925000Y-61625000D02*
X137900000Y-61650000D01*
D32*
X137900000Y-61150000D02*
X137900000Y-61650000D01*
X140475000Y-53425000D02*
X140475000Y-53200000D01*
D33*
X140475000Y-53200000D02*
X141500000Y-52175000D01*
D32*
X137900000Y-60600000D02*
X136700000Y-59400000D01*
X128700000Y-55300000D02*
X132300000Y-55300000D01*
X133500000Y-54800000D02*
X135000000Y-54800000D01*
X135000000Y-54800000D02*
X135550000Y-54800000D01*
X136725000Y-55975000D02*
X137900000Y-54800000D01*
X132800000Y-54800000D02*
X133500000Y-54800000D01*
D33*
X141500000Y-51000000D02*
X141200000Y-50700000D01*
X141500000Y-52175000D02*
X141500000Y-51000000D01*
X141200000Y-50700000D02*
X140200000Y-50700000D01*
D32*
X137900000Y-62450000D02*
X137900000Y-60600000D01*
D33*
%TO.N,GND*%
X130700000Y-44700000D02*
X130700000Y-45775000D01*
D32*
X138850000Y-43750000D02*
X139100000Y-43750000D01*
X139100000Y-42200000D02*
X139300000Y-42000000D01*
X139100000Y-43750000D02*
X138550000Y-43750000D01*
D33*
X142700000Y-57400000D02*
X141512500Y-57400000D01*
D32*
X138550000Y-43750000D02*
X138425000Y-43625000D01*
D33*
X141512500Y-57400000D02*
X141500000Y-57387500D01*
D32*
X138225000Y-43425000D02*
X138425000Y-43625000D01*
D33*
X142700000Y-61600000D02*
X141512500Y-61600000D01*
X134650000Y-50350000D02*
X134650000Y-50800000D01*
D32*
X138225000Y-42695000D02*
X138225000Y-43425000D01*
X138510000Y-42200000D02*
X139100000Y-42200000D01*
D33*
X128925000Y-40800000D02*
X128925000Y-41875000D01*
X128925000Y-41875000D02*
X128900000Y-41900000D01*
X128925000Y-38900000D02*
X128925000Y-37825000D01*
D32*
X131775000Y-42575000D02*
X131400000Y-42200000D01*
D33*
X135800000Y-50200000D02*
X137400000Y-50200000D01*
X135800000Y-50200000D02*
X134800000Y-50200000D01*
D32*
X130700000Y-42200000D02*
X130700000Y-41800000D01*
X131775000Y-42695000D02*
X131775000Y-42575000D01*
D33*
X134800000Y-50200000D02*
X134650000Y-50350000D01*
D32*
X138550000Y-43750000D02*
X138550000Y-44250000D01*
X131400000Y-42200000D02*
X130700000Y-42200000D01*
X130700000Y-41800000D02*
X130680000Y-41780000D01*
D33*
X128925000Y-37825000D02*
X128900000Y-37800000D01*
X141512500Y-61600000D02*
X141500000Y-61587500D01*
X134650000Y-50800000D02*
X134100000Y-51350000D01*
X141500000Y-66900000D02*
X141500000Y-65787500D01*
D32*
X138225000Y-42695000D02*
X138225000Y-42485000D01*
D33*
X127900000Y-44000000D02*
X127900000Y-45262500D01*
D32*
X138550000Y-44250000D02*
X138900000Y-44600000D01*
D33*
X138925000Y-53200000D02*
X137800000Y-53200000D01*
D32*
X139100000Y-43750000D02*
X139550000Y-43750000D01*
X138225000Y-42485000D02*
X138510000Y-42200000D01*
D33*
%TO.N,+3.3V*%
X140200000Y-49200000D02*
X140700000Y-49200000D01*
D32*
X128675000Y-49500000D02*
X128675000Y-50225000D01*
X128700000Y-56100000D02*
X132300000Y-56100000D01*
X127500000Y-57500000D02*
X128000000Y-58000000D01*
X127000000Y-50900000D02*
X128000000Y-50900000D01*
X128850000Y-49325000D02*
X128675000Y-49500000D01*
X128850000Y-48600000D02*
X128850000Y-49325000D01*
X128000000Y-58000000D02*
X127000000Y-58000000D01*
X127500000Y-56800000D02*
X127500000Y-57500000D01*
X128000000Y-56800000D02*
X128700000Y-56100000D01*
D33*
X135100000Y-56800000D02*
X133500000Y-56800000D01*
D32*
X128850000Y-47687500D02*
X128850000Y-48600000D01*
X127500000Y-57500000D02*
X127000000Y-58000000D01*
D33*
X140700000Y-47525000D02*
X140475000Y-47300000D01*
D32*
X128000000Y-50900000D02*
X128300000Y-50600000D01*
D33*
X140700000Y-49200000D02*
X140700000Y-47525000D01*
D32*
X127500000Y-56800000D02*
X128000000Y-56800000D01*
X133000000Y-56800000D02*
X133500000Y-56800000D01*
D33*
X140475000Y-46225000D02*
X140500000Y-46200000D01*
D32*
X132300000Y-56100000D02*
X133000000Y-56800000D01*
D33*
X140475000Y-47300000D02*
X140475000Y-46225000D01*
D32*
X128675000Y-50225000D02*
X128000000Y-50900000D01*
D34*
%TO.N,+5V*%
X128850000Y-45262500D02*
X128700000Y-45412500D01*
D32*
X130800000Y-49500000D02*
X130800000Y-50600000D01*
X130700000Y-47325000D02*
X130700000Y-49400000D01*
X130800000Y-50600000D02*
X131600000Y-51400000D01*
X129500000Y-46356250D02*
X129500000Y-45912500D01*
D34*
X128700000Y-46100000D02*
X128350000Y-46450000D01*
X127100000Y-46100000D02*
X127100000Y-45412500D01*
D32*
X131600000Y-51400000D02*
X133000000Y-52800000D01*
X130700000Y-49400000D02*
X130800000Y-49500000D01*
X133000000Y-52800000D02*
X133500000Y-52800000D01*
D34*
X128350000Y-46450000D02*
X127450000Y-46450000D01*
X127450000Y-46450000D02*
X127100000Y-46100000D01*
X127100000Y-45412500D02*
X126950000Y-45262500D01*
D32*
X128600000Y-52800000D02*
X130800000Y-50600000D01*
X127500000Y-52800000D02*
X128600000Y-52800000D01*
X130468750Y-47325000D02*
X129500000Y-46356250D01*
X129500000Y-45912500D02*
X128850000Y-45262500D01*
D34*
X128700000Y-45412500D02*
X128700000Y-46100000D01*
D32*
X128850000Y-45556250D02*
X128850000Y-45262500D01*
X130700000Y-47325000D02*
X130468750Y-47325000D01*
D34*
%TO.N,D-*%
X135750000Y-41650000D02*
X135750000Y-42695000D01*
X137000000Y-49500000D02*
X136800000Y-49700000D01*
X136150000Y-45550000D02*
X135200000Y-46500000D01*
X134750000Y-41650000D02*
X135000000Y-41400000D01*
X136600000Y-48400000D02*
X137000000Y-48800000D01*
X135500000Y-41400000D02*
X135750000Y-41650000D01*
X136800000Y-49700000D02*
X135800000Y-49700000D01*
X134750000Y-42695000D02*
X134750000Y-41650000D01*
X135750000Y-42695000D02*
X135750000Y-45150000D01*
X135750000Y-45150000D02*
X136150000Y-45550000D01*
X135500000Y-48400000D02*
X136600000Y-48400000D01*
X135200000Y-46500000D02*
X135200000Y-48100000D01*
X135000000Y-41400000D02*
X135500000Y-41400000D01*
X137000000Y-48800000D02*
X137000000Y-49500000D01*
X135200000Y-48100000D02*
X135500000Y-48400000D01*
%TO.N,D+*%
X135250000Y-42695000D02*
X135250000Y-43750000D01*
X134250000Y-44275000D02*
X134525000Y-44000000D01*
X134450000Y-43925000D02*
X134250000Y-43725000D01*
X134250000Y-45150000D02*
X134250000Y-44275000D01*
X134800000Y-48300000D02*
X134800000Y-46500000D01*
X135200000Y-49100000D02*
X135200000Y-48700000D01*
X135300000Y-49200000D02*
X135200000Y-49100000D01*
X134250000Y-43725000D02*
X134250000Y-42695000D01*
X133850000Y-45550000D02*
X134250000Y-45150000D01*
X135200000Y-48700000D02*
X134800000Y-48300000D01*
X135000000Y-44000000D02*
X134700000Y-44000000D01*
X135800000Y-49200000D02*
X135300000Y-49200000D01*
X134700000Y-44000000D02*
X134525000Y-44000000D01*
X135250000Y-43750000D02*
X135000000Y-44000000D01*
X134525000Y-44000000D02*
X134450000Y-43925000D01*
X134800000Y-46500000D02*
X133850000Y-45550000D01*
D32*
%TO.N,VBUS*%
X132550000Y-44150000D02*
X132400000Y-44300000D01*
X133850000Y-49250000D02*
X133600000Y-49500000D01*
X137600000Y-45400000D02*
X137450000Y-45250000D01*
X133850000Y-47450000D02*
X133850000Y-49250000D01*
X132400000Y-45400000D02*
X132550000Y-45250000D01*
X137450000Y-44450000D02*
X137600000Y-44300000D01*
X132550000Y-45250000D02*
X132550000Y-44450000D01*
X132550000Y-46150000D02*
X133850000Y-47450000D01*
X132550000Y-42695000D02*
X132550000Y-44150000D01*
X132400000Y-45400000D02*
X132550000Y-45550000D01*
X132550000Y-45550000D02*
X132550000Y-46150000D01*
X137450000Y-45250000D02*
X137450000Y-44450000D01*
X137450000Y-44150000D02*
X137600000Y-44300000D01*
X132550000Y-44450000D02*
X132400000Y-44300000D01*
X137450000Y-42695000D02*
X137450000Y-44150000D01*
D33*
%TO.N,TXD*%
X140200000Y-50200000D02*
X141800000Y-50200000D01*
X129100000Y-62500000D02*
X127500000Y-62500000D01*
X141800000Y-50200000D02*
X142000000Y-50400000D01*
%TO.N,RXD*%
X141700000Y-49700000D02*
X142000000Y-49400000D01*
X131900000Y-62500000D02*
X133500000Y-62500000D01*
X140200000Y-49700000D02*
X141700000Y-49700000D01*
%TO.N,VOUT*%
X139950000Y-66175000D02*
X139600000Y-65825000D01*
D32*
X140100000Y-69300000D02*
X140100000Y-70345000D01*
D33*
X139950000Y-68450000D02*
X139950000Y-66175000D01*
D32*
X140400000Y-69000000D02*
X140100000Y-69300000D01*
D33*
X140400000Y-68900000D02*
X139950000Y-68450000D01*
D32*
X140400000Y-68900000D02*
X140400000Y-69000000D01*
X140100000Y-70345000D02*
X138100000Y-72345000D01*
D33*
%TO.N,UPDI*%
X141675000Y-78325000D02*
X140775000Y-77425000D01*
X132885000Y-77425000D02*
X132870000Y-77440000D01*
X140775000Y-77425000D02*
X138100000Y-77425000D01*
X142400000Y-78325000D02*
X141675000Y-78325000D01*
X138100000Y-77425000D02*
X132885000Y-77425000D01*
D35*
%TO.N,Net-(USB1-CC2)*%
X127275000Y-41875000D02*
X127300000Y-41900000D01*
X133250000Y-42695000D02*
X133250000Y-44050000D01*
X127275000Y-40800000D02*
X127275000Y-41875000D01*
X133250000Y-44050000D02*
X133500000Y-44300000D01*
%TO.N,Net-(USB1-CC1)*%
X136250000Y-44050000D02*
X136500000Y-44300000D01*
X136250000Y-42695000D02*
X136250000Y-44050000D01*
D33*
X127275000Y-37825000D02*
X127300000Y-37800000D01*
X127275000Y-38900000D02*
X127275000Y-37825000D01*
%TO.N,Net-(D3-A)*%
X139600000Y-55775000D02*
X141462500Y-55775000D01*
X141462500Y-55775000D02*
X141500000Y-55812500D01*
%TO.N,Net-(U1-TNOW)*%
X140200000Y-51200000D02*
X139700000Y-51200000D01*
X139600000Y-57425000D02*
X138525000Y-57425000D01*
X139700000Y-51200000D02*
X139700000Y-52000000D01*
X138525000Y-57425000D02*
X138500000Y-57400000D01*
%TO.N,Net-(D4-A)*%
X139600000Y-59975000D02*
X141462500Y-59975000D01*
X141462500Y-59975000D02*
X141500000Y-60012500D01*
D34*
%TO.N,Net-(D5-A)*%
X141462500Y-64175000D02*
X141500000Y-64212500D01*
D33*
X139600000Y-64175000D02*
X141462500Y-64175000D01*
%TO.N,TXD-UPDI*%
X127500000Y-64500000D02*
X127500000Y-65700000D01*
X142400000Y-71650000D02*
X141200000Y-71650000D01*
%TO.N,RXD-UPDI*%
X142400000Y-76675000D02*
X142400000Y-74950000D01*
X142400000Y-74950000D02*
X141200000Y-74950000D01*
X133500000Y-64500000D02*
X133500000Y-65600000D01*
%TO.N,TXD-Serial*%
X127500000Y-60500000D02*
X127850000Y-60850000D01*
X129900000Y-62100000D02*
X129900000Y-62900000D01*
X129200000Y-74900000D02*
X130330000Y-74900000D01*
X128650000Y-60850000D02*
X129900000Y-62100000D01*
X127850000Y-60850000D02*
X128650000Y-60850000D01*
X128100000Y-73800000D02*
X129200000Y-74900000D01*
X129500000Y-63300000D02*
X129500000Y-69700000D01*
X129500000Y-69700000D02*
X128100000Y-71100000D01*
X128100000Y-71100000D02*
X128100000Y-73800000D01*
X129900000Y-62900000D02*
X129500000Y-63300000D01*
%TO.N,RXD-Serial*%
X135900000Y-61500000D02*
X135200000Y-60800000D01*
X132870000Y-72360000D02*
X132870000Y-68930000D01*
X132870000Y-68930000D02*
X135900000Y-65900000D01*
X133800000Y-60800000D02*
X133500000Y-60500000D01*
X135200000Y-60800000D02*
X133800000Y-60800000D01*
X135900000Y-65900000D02*
X135900000Y-61500000D01*
%TD*%
%TA.AperFunction,Conductor*%
%TO.N,GND*%
G36*
X129443039Y-36920185D02*
G01*
X129488794Y-36972989D01*
X129500000Y-37024500D01*
X129500000Y-43000000D01*
X130000000Y-43500000D01*
X130448638Y-43500000D01*
X130515677Y-43519685D01*
X130536319Y-43536319D01*
X131000000Y-44000000D01*
X131590814Y-44000000D01*
X131657853Y-44019685D01*
X131703608Y-44072489D01*
X131713910Y-44138946D01*
X131694355Y-44299999D01*
X131714859Y-44468869D01*
X131714860Y-44468874D01*
X131775182Y-44627931D01*
X131845332Y-44729560D01*
X131867215Y-44795915D01*
X131849750Y-44863566D01*
X131845332Y-44870440D01*
X131775183Y-44972068D01*
X131775182Y-44972068D01*
X131714860Y-45131125D01*
X131714859Y-45131130D01*
X131694355Y-45300000D01*
X131714859Y-45468869D01*
X131714860Y-45468874D01*
X131775182Y-45627931D01*
X131800340Y-45664378D01*
X131871817Y-45767929D01*
X131957728Y-45844040D01*
X131994853Y-45903226D01*
X131999500Y-45936853D01*
X131999500Y-46140602D01*
X131997238Y-46206829D01*
X132007715Y-46249819D01*
X132008901Y-46256061D01*
X132014929Y-46299920D01*
X132022079Y-46316379D01*
X132028819Y-46336420D01*
X132033067Y-46353852D01*
X132054763Y-46392439D01*
X132057582Y-46398115D01*
X132075220Y-46438720D01*
X132075221Y-46438722D01*
X132086541Y-46452636D01*
X132098439Y-46470117D01*
X132107234Y-46485760D01*
X132107236Y-46485761D01*
X132138532Y-46517057D01*
X132142783Y-46521766D01*
X132170722Y-46556108D01*
X132185381Y-46566455D01*
X132201552Y-46580077D01*
X133013181Y-47391706D01*
X133046666Y-47453029D01*
X133049500Y-47479387D01*
X133049500Y-47831517D01*
X133054573Y-47863545D01*
X133064354Y-47925304D01*
X133121950Y-48038342D01*
X133203475Y-48119867D01*
X133236959Y-48181188D01*
X133231975Y-48250880D01*
X133190104Y-48306814D01*
X133130577Y-48330662D01*
X133093441Y-48335121D01*
X132952656Y-48390639D01*
X132832077Y-48482077D01*
X132740639Y-48602656D01*
X132685122Y-48743438D01*
X132680917Y-48778460D01*
X132674500Y-48831898D01*
X132674500Y-50168102D01*
X132678988Y-50205472D01*
X132685122Y-50256561D01*
X132685122Y-50256563D01*
X132685123Y-50256564D01*
X132698155Y-50289610D01*
X132740639Y-50397343D01*
X132832077Y-50517922D01*
X132952656Y-50609360D01*
X132952657Y-50609360D01*
X132952658Y-50609361D01*
X133093436Y-50664877D01*
X133181898Y-50675500D01*
X133181903Y-50675500D01*
X134018097Y-50675500D01*
X134018102Y-50675500D01*
X134106564Y-50664877D01*
X134247342Y-50609361D01*
X134367922Y-50517922D01*
X134459361Y-50397342D01*
X134514877Y-50256564D01*
X134525500Y-50168102D01*
X134525500Y-48891254D01*
X134545185Y-48824215D01*
X134597989Y-48778460D01*
X134667147Y-48768516D01*
X134730703Y-48797541D01*
X134737181Y-48803573D01*
X134763181Y-48829573D01*
X134796666Y-48890896D01*
X134799500Y-48917254D01*
X134799500Y-49394856D01*
X134799502Y-49394882D01*
X134803489Y-49429258D01*
X134801726Y-49429462D01*
X134801726Y-49470540D01*
X134803490Y-49470745D01*
X134799500Y-49505131D01*
X134799500Y-49894856D01*
X134799502Y-49894882D01*
X134802413Y-49919987D01*
X134802415Y-49919991D01*
X134847793Y-50022764D01*
X134935360Y-50110331D01*
X134932942Y-50112748D01*
X134964842Y-50151829D01*
X134972747Y-50221250D01*
X134941865Y-50283924D01*
X134935301Y-50289610D01*
X134935360Y-50289669D01*
X134847794Y-50377234D01*
X134802415Y-50480006D01*
X134802415Y-50480008D01*
X134799500Y-50505131D01*
X134799500Y-50894856D01*
X134799502Y-50894882D01*
X134803489Y-50929258D01*
X134801726Y-50929462D01*
X134801726Y-50970540D01*
X134803490Y-50970745D01*
X134799500Y-51005131D01*
X134799500Y-51394856D01*
X134799502Y-51394882D01*
X134802413Y-51419987D01*
X134802415Y-51419991D01*
X134847793Y-51522764D01*
X134847794Y-51522765D01*
X134927235Y-51602206D01*
X135030009Y-51647585D01*
X135055135Y-51650500D01*
X136544864Y-51650499D01*
X136544879Y-51650497D01*
X136544882Y-51650497D01*
X136569987Y-51647586D01*
X136569988Y-51647585D01*
X136569991Y-51647585D01*
X136672765Y-51602206D01*
X136752206Y-51522765D01*
X136797585Y-51419991D01*
X136800500Y-51394865D01*
X136800499Y-51005136D01*
X136800497Y-51005117D01*
X136796511Y-50970742D01*
X136798280Y-50970536D01*
X136798282Y-50929460D01*
X136796510Y-50929255D01*
X136799904Y-50900000D01*
X136800500Y-50894865D01*
X136800499Y-50505136D01*
X136800497Y-50505117D01*
X136797586Y-50480012D01*
X136797585Y-50480010D01*
X136797585Y-50480009D01*
X136752206Y-50377235D01*
X136687152Y-50312181D01*
X136653667Y-50250858D01*
X136658651Y-50181166D01*
X136700523Y-50125233D01*
X136765987Y-50100816D01*
X136774833Y-50100500D01*
X136863431Y-50100500D01*
X136863433Y-50100500D01*
X136884501Y-50093654D01*
X136903417Y-50089112D01*
X136925304Y-50085646D01*
X136945044Y-50075586D01*
X136963011Y-50068144D01*
X136984090Y-50061296D01*
X137002026Y-50048263D01*
X137018588Y-50038114D01*
X137038342Y-50028050D01*
X137053834Y-50012557D01*
X137053841Y-50012552D01*
X137312552Y-49753841D01*
X137312557Y-49753834D01*
X137328050Y-49738342D01*
X137338109Y-49718598D01*
X137348269Y-49702018D01*
X137361296Y-49684089D01*
X137368142Y-49663017D01*
X137375588Y-49645043D01*
X137385645Y-49625305D01*
X137385646Y-49625304D01*
X137389112Y-49603416D01*
X137393651Y-49584510D01*
X137400500Y-49563433D01*
X137400500Y-49436567D01*
X137400500Y-48768481D01*
X137400500Y-48766159D01*
X137400499Y-48766129D01*
X137400499Y-48736568D01*
X137400499Y-48736567D01*
X137393653Y-48715501D01*
X137389111Y-48696580D01*
X137385646Y-48674696D01*
X137375586Y-48654952D01*
X137368140Y-48636974D01*
X137361297Y-48615913D01*
X137361296Y-48615912D01*
X137361296Y-48615910D01*
X137348269Y-48597981D01*
X137338104Y-48581392D01*
X137328050Y-48561658D01*
X137238342Y-48471950D01*
X136859287Y-48092893D01*
X136859256Y-48092864D01*
X136838342Y-48071950D01*
X136838341Y-48071949D01*
X136818600Y-48061890D01*
X136802014Y-48051726D01*
X136784090Y-48038704D01*
X136784091Y-48038704D01*
X136763018Y-48031857D01*
X136745045Y-48024412D01*
X136725307Y-48014355D01*
X136725304Y-48014354D01*
X136703418Y-48010887D01*
X136684507Y-48006346D01*
X136663439Y-47999501D01*
X136663434Y-47999500D01*
X136663433Y-47999500D01*
X136663429Y-47999500D01*
X135724500Y-47999500D01*
X135657461Y-47979815D01*
X135611706Y-47927011D01*
X135600500Y-47875500D01*
X135600500Y-46717254D01*
X135620185Y-46650215D01*
X135636815Y-46629577D01*
X135929574Y-46336817D01*
X135990897Y-46303333D01*
X136017255Y-46300499D01*
X136581517Y-46300499D01*
X136581518Y-46300499D01*
X136675304Y-46285646D01*
X136788342Y-46228050D01*
X136878050Y-46138342D01*
X136935646Y-46025304D01*
X136935646Y-46025302D01*
X136935647Y-46025301D01*
X136950500Y-45931522D01*
X136950882Y-45926669D01*
X136953236Y-45926854D01*
X136970026Y-45869174D01*
X137022722Y-45823294D01*
X137091857Y-45813188D01*
X137155480Y-45842063D01*
X137156684Y-45843114D01*
X137175407Y-45859701D01*
X137199150Y-45880736D01*
X137323466Y-45945982D01*
X137349775Y-45959790D01*
X137514944Y-46000500D01*
X137685056Y-46000500D01*
X137850225Y-45959790D01*
X137957998Y-45903226D01*
X138000849Y-45880736D01*
X138000850Y-45880734D01*
X138000852Y-45880734D01*
X138128183Y-45767929D01*
X138224818Y-45627930D01*
X138285140Y-45468872D01*
X138305645Y-45300000D01*
X138285140Y-45131128D01*
X138224818Y-44972070D01*
X138154666Y-44870437D01*
X138132784Y-44804086D01*
X138150249Y-44736435D01*
X138154652Y-44729581D01*
X138224818Y-44627930D01*
X138285140Y-44468872D01*
X138305645Y-44300000D01*
X138295554Y-44216892D01*
X138286090Y-44138946D01*
X138297551Y-44070023D01*
X138344455Y-44018237D01*
X138409186Y-44000000D01*
X139000000Y-44000000D01*
X139463681Y-43536319D01*
X139525004Y-43502834D01*
X139551362Y-43500000D01*
X140000000Y-43500000D01*
X140500000Y-43000000D01*
X140500000Y-37024500D01*
X140519685Y-36957461D01*
X140572489Y-36911706D01*
X140624000Y-36900500D01*
X142942417Y-36900500D01*
X142997294Y-36900500D01*
X143002694Y-36900735D01*
X143180116Y-36916258D01*
X143201401Y-36920011D01*
X143259499Y-36935578D01*
X143365577Y-36964001D01*
X143385878Y-36971390D01*
X143539920Y-37043221D01*
X143558635Y-37054026D01*
X143681695Y-37140194D01*
X143697858Y-37151511D01*
X143714416Y-37165405D01*
X143834594Y-37285583D01*
X143848488Y-37302141D01*
X143945972Y-37441363D01*
X143956779Y-37460081D01*
X144028606Y-37614114D01*
X144035999Y-37634426D01*
X144079988Y-37798598D01*
X144083741Y-37819883D01*
X144099264Y-37997300D01*
X144099500Y-38002706D01*
X144099500Y-81997293D01*
X144099264Y-82002699D01*
X144083741Y-82180116D01*
X144079988Y-82201401D01*
X144035999Y-82365573D01*
X144028606Y-82385885D01*
X143956779Y-82539918D01*
X143945972Y-82558636D01*
X143848488Y-82697858D01*
X143834594Y-82714416D01*
X143714416Y-82834594D01*
X143697858Y-82848488D01*
X143558636Y-82945972D01*
X143539918Y-82956779D01*
X143385885Y-83028606D01*
X143365573Y-83035999D01*
X143201401Y-83079988D01*
X143180116Y-83083741D01*
X143042705Y-83095763D01*
X143002694Y-83099264D01*
X142997294Y-83099500D01*
X127002705Y-83099500D01*
X126997304Y-83099264D01*
X126953379Y-83095421D01*
X126819882Y-83083741D01*
X126798597Y-83079988D01*
X126634425Y-83035999D01*
X126614113Y-83028606D01*
X126460081Y-82956779D01*
X126441363Y-82945972D01*
X126302141Y-82848488D01*
X126285583Y-82834594D01*
X126165405Y-82714416D01*
X126151511Y-82697858D01*
X126054027Y-82558636D01*
X126043220Y-82539918D01*
X125971390Y-82385878D01*
X125964000Y-82365573D01*
X125920011Y-82201401D01*
X125916258Y-82180115D01*
X125903258Y-82031525D01*
X125900734Y-82002682D01*
X125900499Y-81997284D01*
X125900499Y-64904269D01*
X126199500Y-64904269D01*
X126202353Y-64934699D01*
X126202353Y-64934701D01*
X126247206Y-65062880D01*
X126247207Y-65062882D01*
X126327850Y-65172150D01*
X126437118Y-65252793D01*
X126479011Y-65267452D01*
X126565299Y-65297646D01*
X126595730Y-65300500D01*
X126595734Y-65300500D01*
X126722681Y-65300500D01*
X126789720Y-65320185D01*
X126835475Y-65372989D01*
X126845419Y-65442147D01*
X126838624Y-65468465D01*
X126830181Y-65490727D01*
X126814860Y-65531125D01*
X126814859Y-65531130D01*
X126794355Y-65700000D01*
X126814859Y-65868869D01*
X126814860Y-65868874D01*
X126875182Y-66027931D01*
X126937475Y-66118177D01*
X126971817Y-66167929D01*
X127051933Y-66238905D01*
X127099150Y-66280736D01*
X127249773Y-66359789D01*
X127249775Y-66359790D01*
X127414944Y-66400500D01*
X127585056Y-66400500D01*
X127750225Y-66359790D01*
X127829692Y-66318081D01*
X127900849Y-66280736D01*
X127900850Y-66280734D01*
X127900852Y-66280734D01*
X128028183Y-66167929D01*
X128124818Y-66027930D01*
X128185140Y-65868872D01*
X128205645Y-65700000D01*
X128185140Y-65531128D01*
X128161376Y-65468468D01*
X128156010Y-65398808D01*
X128189157Y-65337302D01*
X128250295Y-65303480D01*
X128277319Y-65300500D01*
X128404270Y-65300500D01*
X128434699Y-65297646D01*
X128434701Y-65297646D01*
X128520980Y-65267455D01*
X128562882Y-65252793D01*
X128672150Y-65172150D01*
X128752793Y-65062882D01*
X128775219Y-64998790D01*
X128797646Y-64934701D01*
X128797646Y-64934699D01*
X128800500Y-64904269D01*
X128800500Y-64095730D01*
X128797646Y-64065300D01*
X128797646Y-64065298D01*
X128764006Y-63969163D01*
X128752793Y-63937118D01*
X128672150Y-63827850D01*
X128562882Y-63747207D01*
X128562880Y-63747206D01*
X128434700Y-63702353D01*
X128404270Y-63699500D01*
X128404266Y-63699500D01*
X126595734Y-63699500D01*
X126595730Y-63699500D01*
X126565300Y-63702353D01*
X126565298Y-63702353D01*
X126437119Y-63747206D01*
X126437117Y-63747207D01*
X126327850Y-63827850D01*
X126247207Y-63937117D01*
X126247206Y-63937119D01*
X126202353Y-64065298D01*
X126202353Y-64065300D01*
X126199500Y-64095730D01*
X126199500Y-64904269D01*
X125900499Y-64904269D01*
X125900499Y-62904269D01*
X126199500Y-62904269D01*
X126202353Y-62934699D01*
X126202353Y-62934701D01*
X126239487Y-63040820D01*
X126247207Y-63062882D01*
X126327850Y-63172150D01*
X126437118Y-63252793D01*
X126479845Y-63267744D01*
X126565299Y-63297646D01*
X126595730Y-63300500D01*
X126595734Y-63300500D01*
X128404270Y-63300500D01*
X128434699Y-63297646D01*
X128434701Y-63297646D01*
X128498790Y-63275219D01*
X128562882Y-63252793D01*
X128672150Y-63172150D01*
X128672155Y-63172142D01*
X128676872Y-63167427D01*
X128738194Y-63133939D01*
X128807885Y-63138920D01*
X128822170Y-63145302D01*
X128849775Y-63159790D01*
X128849777Y-63159790D01*
X128849778Y-63159791D01*
X128880760Y-63167427D01*
X128954547Y-63185613D01*
X129014927Y-63220769D01*
X129046716Y-63282988D01*
X129048785Y-63310645D01*
X129047275Y-63351007D01*
X129048316Y-63360243D01*
X129047485Y-63360336D01*
X129049500Y-63375635D01*
X129049500Y-69462034D01*
X129029815Y-69529073D01*
X129013181Y-69549715D01*
X127801804Y-70761092D01*
X127796617Y-70765727D01*
X127766033Y-70790117D01*
X127766029Y-70790121D01*
X127732519Y-70839271D01*
X127697206Y-70887118D01*
X127693216Y-70894667D01*
X127689528Y-70902326D01*
X127671992Y-70959177D01*
X127652353Y-71015301D01*
X127650771Y-71023659D01*
X127649500Y-71032100D01*
X127649500Y-71091573D01*
X127647275Y-71151009D01*
X127648316Y-71160243D01*
X127647485Y-71160336D01*
X127649500Y-71175635D01*
X127649500Y-73771217D01*
X127649110Y-73778155D01*
X127647925Y-73788679D01*
X127644729Y-73817034D01*
X127655788Y-73875479D01*
X127664652Y-73934290D01*
X127667162Y-73942427D01*
X127669978Y-73950475D01*
X127697777Y-74003072D01*
X127723576Y-74056644D01*
X127728362Y-74063665D01*
X127733431Y-74070532D01*
X127733434Y-74070538D01*
X127733438Y-74070542D01*
X127775495Y-74112599D01*
X127815947Y-74156196D01*
X127823210Y-74161988D01*
X127822689Y-74162641D01*
X127834930Y-74172034D01*
X128861090Y-75198193D01*
X128865726Y-75203380D01*
X128890121Y-75233970D01*
X128890121Y-75233971D01*
X128939271Y-75267480D01*
X128987118Y-75302793D01*
X128994654Y-75306776D01*
X129002319Y-75310467D01*
X129002327Y-75310472D01*
X129059177Y-75328007D01*
X129115297Y-75347645D01*
X129115299Y-75347645D01*
X129115301Y-75347646D01*
X129115302Y-75347646D01*
X129123679Y-75349230D01*
X129132096Y-75350499D01*
X129132098Y-75350500D01*
X129191569Y-75350500D01*
X129192885Y-75350549D01*
X129196989Y-75350702D01*
X129263247Y-75372874D01*
X129303362Y-75419345D01*
X129347632Y-75508253D01*
X129445133Y-75637364D01*
X129476128Y-75678407D01*
X129633698Y-75822052D01*
X129814981Y-75934298D01*
X130013802Y-76011321D01*
X130210613Y-76048111D01*
X130272893Y-76079779D01*
X130308166Y-76140092D01*
X130305232Y-76209900D01*
X130265023Y-76267040D01*
X130210613Y-76291888D01*
X130013802Y-76328679D01*
X130013799Y-76328679D01*
X130013799Y-76328680D01*
X129814982Y-76405701D01*
X129814980Y-76405702D01*
X129633699Y-76517947D01*
X129476127Y-76661593D01*
X129347632Y-76831746D01*
X129252596Y-77022605D01*
X129252596Y-77022607D01*
X129194244Y-77227689D01*
X129174571Y-77439999D01*
X129174571Y-77440000D01*
X129194244Y-77652310D01*
X129252596Y-77857392D01*
X129252596Y-77857394D01*
X129347632Y-78048253D01*
X129476127Y-78218406D01*
X129476128Y-78218407D01*
X129633698Y-78362052D01*
X129814981Y-78474298D01*
X130013802Y-78551321D01*
X130223390Y-78590500D01*
X130223392Y-78590500D01*
X130436608Y-78590500D01*
X130436610Y-78590500D01*
X130646198Y-78551321D01*
X130845019Y-78474298D01*
X131026302Y-78362052D01*
X131183872Y-78218407D01*
X131312366Y-78048255D01*
X131370024Y-77932461D01*
X131407403Y-77857394D01*
X131407403Y-77857393D01*
X131407405Y-77857389D01*
X131465756Y-77652310D01*
X131472029Y-77584605D01*
X131497814Y-77519669D01*
X131554614Y-77478981D01*
X131624395Y-77475461D01*
X131685002Y-77510225D01*
X131717193Y-77572238D01*
X131719500Y-77596047D01*
X131719500Y-78334856D01*
X131719502Y-78334882D01*
X131722413Y-78359987D01*
X131722415Y-78359991D01*
X131767793Y-78462764D01*
X131767794Y-78462765D01*
X131847235Y-78542206D01*
X131950009Y-78587585D01*
X131975135Y-78590500D01*
X133764864Y-78590499D01*
X133764879Y-78590497D01*
X133764882Y-78590497D01*
X133789987Y-78587586D01*
X133789988Y-78587585D01*
X133789991Y-78587585D01*
X133892765Y-78542206D01*
X133972206Y-78462765D01*
X134017585Y-78359991D01*
X134020500Y-78334865D01*
X134020500Y-77999500D01*
X134040185Y-77932461D01*
X134092989Y-77886706D01*
X134144500Y-77875500D01*
X136825501Y-77875500D01*
X136892540Y-77895185D01*
X136938295Y-77947989D01*
X136949501Y-77999500D01*
X136949501Y-78319856D01*
X136949502Y-78319882D01*
X136952413Y-78344987D01*
X136952415Y-78344991D01*
X136997793Y-78447764D01*
X136997794Y-78447765D01*
X137077235Y-78527206D01*
X137180009Y-78572585D01*
X137205135Y-78575500D01*
X138994864Y-78575499D01*
X138994879Y-78575497D01*
X138994882Y-78575497D01*
X139019987Y-78572586D01*
X139019988Y-78572585D01*
X139019991Y-78572585D01*
X139122765Y-78527206D01*
X139202206Y-78447765D01*
X139247585Y-78344991D01*
X139250500Y-78319865D01*
X139250500Y-77999500D01*
X139270185Y-77932461D01*
X139322989Y-77886706D01*
X139374500Y-77875500D01*
X140537034Y-77875500D01*
X140604073Y-77895185D01*
X140624715Y-77911819D01*
X141336090Y-78623193D01*
X141340726Y-78628380D01*
X141365121Y-78658970D01*
X141365121Y-78658971D01*
X141414271Y-78692480D01*
X141462118Y-78727793D01*
X141469665Y-78731781D01*
X141477322Y-78735468D01*
X141477327Y-78735472D01*
X141534172Y-78753006D01*
X141590300Y-78772646D01*
X141590305Y-78772646D01*
X141598698Y-78774234D01*
X141607095Y-78775500D01*
X141607098Y-78775500D01*
X141625250Y-78775500D01*
X141692289Y-78795185D01*
X141724516Y-78825189D01*
X141767452Y-78882544D01*
X141767455Y-78882547D01*
X141882664Y-78968793D01*
X141882671Y-78968797D01*
X141927618Y-78985561D01*
X142017517Y-79019091D01*
X142077127Y-79025500D01*
X142722872Y-79025499D01*
X142782483Y-79019091D01*
X142917331Y-78968796D01*
X143032546Y-78882546D01*
X143118796Y-78767331D01*
X143169091Y-78632483D01*
X143175500Y-78572873D01*
X143175499Y-78077128D01*
X143169091Y-78017517D01*
X143129668Y-77911819D01*
X143118797Y-77882671D01*
X143118793Y-77882664D01*
X143032547Y-77767455D01*
X143032544Y-77767452D01*
X142917335Y-77681206D01*
X142917328Y-77681202D01*
X142782486Y-77630910D01*
X142782485Y-77630909D01*
X142782483Y-77630909D01*
X142722873Y-77624500D01*
X142722863Y-77624500D01*
X142077129Y-77624500D01*
X142077123Y-77624501D01*
X142017516Y-77630908D01*
X141882671Y-77681202D01*
X141882669Y-77681203D01*
X141846092Y-77708585D01*
X141780627Y-77733001D01*
X141712354Y-77718149D01*
X141684101Y-77696998D01*
X141113908Y-77126805D01*
X141109271Y-77121617D01*
X141105856Y-77117335D01*
X141084879Y-77091030D01*
X141035728Y-77057519D01*
X140987882Y-77022207D01*
X140980297Y-77018198D01*
X140972677Y-77014529D01*
X140948161Y-77006967D01*
X140915822Y-76996992D01*
X140895154Y-76989760D01*
X140859695Y-76977352D01*
X140851326Y-76975768D01*
X140842904Y-76974500D01*
X140842902Y-76974500D01*
X140783426Y-76974500D01*
X140723990Y-76972275D01*
X140714756Y-76973316D01*
X140714662Y-76972486D01*
X140699364Y-76974500D01*
X139374499Y-76974500D01*
X139307460Y-76954815D01*
X139261705Y-76902011D01*
X139250499Y-76850500D01*
X139250499Y-76530143D01*
X139250499Y-76530136D01*
X139249325Y-76520009D01*
X139247586Y-76505012D01*
X139247585Y-76505010D01*
X139247585Y-76505009D01*
X139202206Y-76402235D01*
X139122765Y-76322794D01*
X139122763Y-76322793D01*
X139019992Y-76277415D01*
X138994868Y-76274500D01*
X138862519Y-76274500D01*
X138795480Y-76254815D01*
X138749725Y-76202011D01*
X138739781Y-76132853D01*
X138768806Y-76069297D01*
X138791395Y-76048925D01*
X138971082Y-75923105D01*
X139138105Y-75756082D01*
X139273600Y-75562578D01*
X139373429Y-75348492D01*
X139373432Y-75348486D01*
X139430636Y-75135000D01*
X138533686Y-75135000D01*
X138559493Y-75094844D01*
X138600000Y-74956889D01*
X138600000Y-74950000D01*
X140494355Y-74950000D01*
X140514859Y-75118869D01*
X140514860Y-75118874D01*
X140575182Y-75277931D01*
X140623888Y-75348492D01*
X140671817Y-75417929D01*
X140773772Y-75508253D01*
X140799150Y-75530736D01*
X140949773Y-75609789D01*
X140949775Y-75609790D01*
X141114944Y-75650500D01*
X141285056Y-75650500D01*
X141450225Y-75609790D01*
X141545010Y-75560042D01*
X141613514Y-75546317D01*
X141677559Y-75571036D01*
X141765025Y-75637364D01*
X141870991Y-75679152D01*
X141926133Y-75722056D01*
X141949327Y-75787963D01*
X141949500Y-75794505D01*
X141949500Y-75921138D01*
X141929815Y-75988177D01*
X141889581Y-76025637D01*
X141889769Y-76025888D01*
X141887441Y-76027630D01*
X141884932Y-76029967D01*
X141882670Y-76031202D01*
X141767455Y-76117452D01*
X141767452Y-76117455D01*
X141681206Y-76232664D01*
X141681202Y-76232671D01*
X141630910Y-76367513D01*
X141630909Y-76367517D01*
X141624500Y-76427127D01*
X141624500Y-76427134D01*
X141624500Y-76427135D01*
X141624500Y-76922870D01*
X141624501Y-76922876D01*
X141630908Y-76982483D01*
X141681202Y-77117328D01*
X141681206Y-77117335D01*
X141767452Y-77232544D01*
X141767455Y-77232547D01*
X141882664Y-77318793D01*
X141882671Y-77318797D01*
X141882910Y-77318886D01*
X142017517Y-77369091D01*
X142077127Y-77375500D01*
X142722872Y-77375499D01*
X142782483Y-77369091D01*
X142917331Y-77318796D01*
X143032546Y-77232546D01*
X143118796Y-77117331D01*
X143169091Y-76982483D01*
X143175500Y-76922873D01*
X143175499Y-76427128D01*
X143169091Y-76367517D01*
X143154605Y-76328679D01*
X143118797Y-76232671D01*
X143118793Y-76232664D01*
X143032547Y-76117455D01*
X143032544Y-76117452D01*
X142917329Y-76031202D01*
X142915068Y-76029967D01*
X142913246Y-76028145D01*
X142910231Y-76025888D01*
X142910555Y-76025454D01*
X142865665Y-75980559D01*
X142850500Y-75921138D01*
X142850500Y-75794505D01*
X142870185Y-75727466D01*
X142922989Y-75681711D01*
X142928974Y-75679165D01*
X143034975Y-75637364D01*
X143150078Y-75550078D01*
X143237364Y-75434975D01*
X143290359Y-75300590D01*
X143300500Y-75216144D01*
X143300500Y-74683856D01*
X143290359Y-74599410D01*
X143237364Y-74465025D01*
X143237363Y-74465024D01*
X143237363Y-74465023D01*
X143150078Y-74349921D01*
X143034976Y-74262636D01*
X142900588Y-74209640D01*
X142857242Y-74204435D01*
X142816144Y-74199500D01*
X141983856Y-74199500D01*
X141945841Y-74204065D01*
X141899411Y-74209640D01*
X141765023Y-74262636D01*
X141677559Y-74328963D01*
X141612248Y-74353786D01*
X141545009Y-74339956D01*
X141450225Y-74290209D01*
X141285056Y-74249500D01*
X141114944Y-74249500D01*
X140949773Y-74290210D01*
X140799150Y-74369263D01*
X140671816Y-74482072D01*
X140575182Y-74622068D01*
X140514860Y-74781125D01*
X140514859Y-74781130D01*
X140494355Y-74950000D01*
X138600000Y-74950000D01*
X138600000Y-74813111D01*
X138559493Y-74675156D01*
X138533686Y-74635000D01*
X139430636Y-74635000D01*
X139430635Y-74634999D01*
X139373432Y-74421513D01*
X139373429Y-74421507D01*
X139273600Y-74207422D01*
X139273599Y-74207420D01*
X139138113Y-74013926D01*
X139138108Y-74013920D01*
X138971082Y-73846894D01*
X138777578Y-73711399D01*
X138578426Y-73618533D01*
X138525987Y-73572360D01*
X138506835Y-73505167D01*
X138527051Y-73438286D01*
X138580216Y-73392951D01*
X138586005Y-73390537D01*
X138615019Y-73379298D01*
X138796302Y-73267052D01*
X138953872Y-73123407D01*
X139082366Y-72953255D01*
X139128801Y-72860000D01*
X139177403Y-72762394D01*
X139177403Y-72762393D01*
X139177405Y-72762389D01*
X139235756Y-72557310D01*
X139255429Y-72345000D01*
X139235756Y-72132690D01*
X139223597Y-72089956D01*
X139224183Y-72020090D01*
X139255180Y-71968343D01*
X139573523Y-71650000D01*
X140494355Y-71650000D01*
X140514859Y-71818869D01*
X140514860Y-71818874D01*
X140575182Y-71977931D01*
X140637475Y-72068177D01*
X140671817Y-72117929D01*
X140777505Y-72211560D01*
X140799150Y-72230736D01*
X140949773Y-72309789D01*
X140949775Y-72309790D01*
X141114944Y-72350500D01*
X141285056Y-72350500D01*
X141450225Y-72309790D01*
X141545010Y-72260042D01*
X141613514Y-72246317D01*
X141677559Y-72271036D01*
X141765023Y-72337363D01*
X141765024Y-72337363D01*
X141765025Y-72337364D01*
X141899410Y-72390359D01*
X141983856Y-72400500D01*
X141983862Y-72400500D01*
X142816138Y-72400500D01*
X142816144Y-72400500D01*
X142900590Y-72390359D01*
X143034975Y-72337364D01*
X143150078Y-72250078D01*
X143237364Y-72134975D01*
X143290359Y-72000590D01*
X143300500Y-71916144D01*
X143300500Y-71383856D01*
X143290359Y-71299410D01*
X143237364Y-71165025D01*
X143237363Y-71165024D01*
X143237363Y-71165023D01*
X143150078Y-71049921D01*
X143034976Y-70962636D01*
X142900588Y-70909640D01*
X142857242Y-70904435D01*
X142816144Y-70899500D01*
X141983856Y-70899500D01*
X141945841Y-70904065D01*
X141899411Y-70909640D01*
X141765023Y-70962636D01*
X141677559Y-71028963D01*
X141612248Y-71053786D01*
X141545009Y-71039956D01*
X141450225Y-70990209D01*
X141285056Y-70949500D01*
X141114944Y-70949500D01*
X140949773Y-70990210D01*
X140799150Y-71069263D01*
X140671816Y-71182072D01*
X140575182Y-71322068D01*
X140514860Y-71481125D01*
X140514859Y-71481130D01*
X140494355Y-71650000D01*
X139573523Y-71650000D01*
X140482603Y-70740920D01*
X140531044Y-70695680D01*
X140554041Y-70657861D01*
X140557613Y-70652611D01*
X140584361Y-70617342D01*
X140590945Y-70600643D01*
X140600344Y-70581719D01*
X140609672Y-70566382D01*
X140621619Y-70523739D01*
X140623632Y-70517753D01*
X140639876Y-70476564D01*
X140641711Y-70458716D01*
X140645658Y-70437944D01*
X140650500Y-70420665D01*
X140650500Y-70376405D01*
X140650825Y-70370060D01*
X140655352Y-70326028D01*
X140652303Y-70308343D01*
X140650500Y-70287275D01*
X140650500Y-70199500D01*
X140670185Y-70132461D01*
X140722989Y-70086706D01*
X140774500Y-70075500D01*
X140818097Y-70075500D01*
X140818102Y-70075500D01*
X140906564Y-70064877D01*
X141047342Y-70009361D01*
X141167922Y-69917922D01*
X141259361Y-69797342D01*
X141314877Y-69656564D01*
X141325500Y-69568102D01*
X141325500Y-68231898D01*
X141314877Y-68143436D01*
X141259361Y-68002658D01*
X141259360Y-68002657D01*
X141259360Y-68002656D01*
X141167922Y-67882077D01*
X141047343Y-67790639D01*
X140906561Y-67735122D01*
X140860926Y-67729642D01*
X140818102Y-67724500D01*
X140818097Y-67724500D01*
X140524500Y-67724500D01*
X140457461Y-67704815D01*
X140411706Y-67652011D01*
X140400500Y-67600500D01*
X140400500Y-66203781D01*
X140400889Y-66196844D01*
X140405270Y-66157965D01*
X140394210Y-66099511D01*
X140385348Y-66040713D01*
X140385347Y-66040711D01*
X140385347Y-66040709D01*
X140382825Y-66032534D01*
X140382455Y-66031474D01*
X140381468Y-66025668D01*
X140378575Y-66016874D01*
X140378285Y-66015337D01*
X140379669Y-66015075D01*
X140375499Y-65990528D01*
X140375499Y-65577129D01*
X140375498Y-65577123D01*
X140369091Y-65517516D01*
X140318797Y-65382671D01*
X140318793Y-65382664D01*
X140232547Y-65267455D01*
X140232544Y-65267452D01*
X140117335Y-65181206D01*
X140117328Y-65181202D01*
X139982486Y-65130910D01*
X139982485Y-65130909D01*
X139982483Y-65130909D01*
X139922873Y-65124500D01*
X139922863Y-65124500D01*
X139277129Y-65124500D01*
X139277123Y-65124501D01*
X139217516Y-65130908D01*
X139082671Y-65181202D01*
X139082664Y-65181206D01*
X138967455Y-65267452D01*
X138967452Y-65267455D01*
X138881206Y-65382664D01*
X138881202Y-65382671D01*
X138830910Y-65517513D01*
X138830909Y-65517517D01*
X138824500Y-65577127D01*
X138824500Y-65577134D01*
X138824500Y-65577135D01*
X138824500Y-66072870D01*
X138824501Y-66072876D01*
X138830908Y-66132483D01*
X138881202Y-66267328D01*
X138881206Y-66267335D01*
X138967452Y-66382544D01*
X138967455Y-66382547D01*
X139082664Y-66468793D01*
X139082671Y-66468797D01*
X139127618Y-66485561D01*
X139217517Y-66519091D01*
X139277127Y-66525500D01*
X139375500Y-66525499D01*
X139442538Y-66545183D01*
X139488294Y-66597986D01*
X139499500Y-66649499D01*
X139499500Y-68083411D01*
X139490855Y-68128899D01*
X139485123Y-68143434D01*
X139485123Y-68143436D01*
X139474500Y-68231898D01*
X139474500Y-69568102D01*
X139483094Y-69639667D01*
X139485123Y-69656565D01*
X139540854Y-69797887D01*
X139549500Y-69843377D01*
X139549500Y-70065612D01*
X139529815Y-70132651D01*
X139513181Y-70153293D01*
X138476398Y-71190075D01*
X138415075Y-71223560D01*
X138365933Y-71224282D01*
X138206610Y-71194500D01*
X137993390Y-71194500D01*
X137783802Y-71233679D01*
X137783799Y-71233679D01*
X137783799Y-71233680D01*
X137584982Y-71310701D01*
X137584980Y-71310702D01*
X137403699Y-71422947D01*
X137246127Y-71566593D01*
X137117632Y-71736746D01*
X137022596Y-71927605D01*
X137022596Y-71927607D01*
X136964244Y-72132689D01*
X136944571Y-72344999D01*
X136944571Y-72345000D01*
X136964244Y-72557310D01*
X137022596Y-72762392D01*
X137022596Y-72762394D01*
X137117632Y-72953253D01*
X137181312Y-73037578D01*
X137246128Y-73123407D01*
X137403698Y-73267052D01*
X137584981Y-73379298D01*
X137613961Y-73390525D01*
X137669362Y-73433095D01*
X137692954Y-73498861D01*
X137677244Y-73566942D01*
X137627222Y-73615722D01*
X137621573Y-73618533D01*
X137422422Y-73711399D01*
X137422420Y-73711400D01*
X137228926Y-73846886D01*
X137228920Y-73846891D01*
X137061891Y-74013920D01*
X137061886Y-74013926D01*
X136926400Y-74207420D01*
X136926399Y-74207422D01*
X136826570Y-74421507D01*
X136826567Y-74421513D01*
X136769364Y-74634999D01*
X136769364Y-74635000D01*
X137666314Y-74635000D01*
X137640507Y-74675156D01*
X137600000Y-74813111D01*
X137600000Y-74956889D01*
X137640507Y-75094844D01*
X137666314Y-75135000D01*
X136769364Y-75135000D01*
X136826567Y-75348486D01*
X136826570Y-75348492D01*
X136926399Y-75562578D01*
X137061894Y-75756082D01*
X137228917Y-75923105D01*
X137408605Y-76048925D01*
X137452230Y-76103502D01*
X137459422Y-76173001D01*
X137427900Y-76235355D01*
X137367670Y-76270769D01*
X137337482Y-76274500D01*
X137205144Y-76274500D01*
X137205117Y-76274502D01*
X137180012Y-76277413D01*
X137180008Y-76277415D01*
X137077235Y-76322793D01*
X136997794Y-76402234D01*
X136952415Y-76505006D01*
X136952415Y-76505008D01*
X136949500Y-76530131D01*
X136949500Y-76850500D01*
X136929815Y-76917539D01*
X136877011Y-76963294D01*
X136825500Y-76974500D01*
X134144499Y-76974500D01*
X134077460Y-76954815D01*
X134031705Y-76902011D01*
X134020499Y-76850500D01*
X134020499Y-76545143D01*
X134020499Y-76545136D01*
X134020497Y-76545117D01*
X134017586Y-76520012D01*
X134017585Y-76520010D01*
X134017585Y-76520009D01*
X133972206Y-76417235D01*
X133892765Y-76337794D01*
X133872124Y-76328680D01*
X133789992Y-76292415D01*
X133764868Y-76289500D01*
X133036243Y-76289500D01*
X132969204Y-76269815D01*
X132923449Y-76217011D01*
X132913505Y-76147853D01*
X132942530Y-76084297D01*
X133001308Y-76046523D01*
X133013441Y-76043614D01*
X133186198Y-76011321D01*
X133385019Y-75934298D01*
X133566302Y-75822052D01*
X133723872Y-75678407D01*
X133852366Y-75508255D01*
X133888855Y-75434975D01*
X133947403Y-75317394D01*
X133947403Y-75317393D01*
X133947405Y-75317389D01*
X134005756Y-75112310D01*
X134025429Y-74900000D01*
X134005756Y-74687690D01*
X133947405Y-74482611D01*
X133947403Y-74482606D01*
X133947403Y-74482605D01*
X133852367Y-74291746D01*
X133723872Y-74121593D01*
X133667872Y-74070542D01*
X133566302Y-73977948D01*
X133385019Y-73865702D01*
X133385017Y-73865701D01*
X133259391Y-73817034D01*
X133186198Y-73788679D01*
X132989385Y-73751888D01*
X132927106Y-73720221D01*
X132891833Y-73659908D01*
X132894767Y-73590100D01*
X132934976Y-73532960D01*
X132989384Y-73508111D01*
X133186198Y-73471321D01*
X133385019Y-73394298D01*
X133566302Y-73282052D01*
X133723872Y-73138407D01*
X133852366Y-72968255D01*
X133906270Y-72860000D01*
X133947403Y-72777394D01*
X133947403Y-72777393D01*
X133947405Y-72777389D01*
X134005756Y-72572310D01*
X134025429Y-72360000D01*
X134005756Y-72147690D01*
X133947405Y-71942611D01*
X133947403Y-71942606D01*
X133947403Y-71942605D01*
X133852367Y-71751746D01*
X133723872Y-71581593D01*
X133707418Y-71566593D01*
X133566302Y-71437948D01*
X133385019Y-71325702D01*
X133380145Y-71322684D01*
X133381441Y-71320589D01*
X133337969Y-71280257D01*
X133320500Y-71216797D01*
X133320500Y-69167964D01*
X133340185Y-69100925D01*
X133356814Y-69080288D01*
X136198205Y-66238896D01*
X136203373Y-66234277D01*
X136233970Y-66209879D01*
X136267480Y-66160728D01*
X136302793Y-66112882D01*
X136302794Y-66112879D01*
X136306787Y-66105324D01*
X136310470Y-66097676D01*
X136310470Y-66097675D01*
X136310472Y-66097673D01*
X136328007Y-66040822D01*
X136347646Y-65984699D01*
X136349232Y-65976311D01*
X136350500Y-65967904D01*
X136350500Y-65908426D01*
X136352724Y-65848992D01*
X136351684Y-65839761D01*
X136352513Y-65839667D01*
X136350500Y-65824366D01*
X136350500Y-61528782D01*
X136350889Y-61521843D01*
X136355270Y-61482965D01*
X136344211Y-61424520D01*
X136335348Y-61365713D01*
X136335347Y-61365711D01*
X136332836Y-61357571D01*
X136330024Y-61349533D01*
X136330023Y-61349528D01*
X136302226Y-61296936D01*
X136276425Y-61243358D01*
X136276422Y-61243355D01*
X136276421Y-61243352D01*
X136271642Y-61236342D01*
X136266568Y-61229469D01*
X136266565Y-61229462D01*
X136224516Y-61187413D01*
X136184055Y-61143806D01*
X136176792Y-61138014D01*
X136177312Y-61137361D01*
X136165067Y-61127964D01*
X135538908Y-60501805D01*
X135534271Y-60496617D01*
X135527504Y-60488132D01*
X135509879Y-60466030D01*
X135479305Y-60445185D01*
X135460728Y-60432519D01*
X135412882Y-60397207D01*
X135405297Y-60393198D01*
X135397677Y-60389529D01*
X135373161Y-60381967D01*
X135340822Y-60371992D01*
X135320154Y-60364760D01*
X135284695Y-60352352D01*
X135276326Y-60350768D01*
X135267904Y-60349500D01*
X135267902Y-60349500D01*
X135208426Y-60349500D01*
X135148990Y-60347275D01*
X135139756Y-60348316D01*
X135139662Y-60347486D01*
X135124364Y-60349500D01*
X134924500Y-60349500D01*
X134857461Y-60329815D01*
X134811706Y-60277011D01*
X134800500Y-60225500D01*
X134800500Y-60095730D01*
X134797646Y-60065300D01*
X134797646Y-60065298D01*
X134752793Y-59937119D01*
X134752792Y-59937117D01*
X134672150Y-59827850D01*
X134562882Y-59747207D01*
X134562880Y-59747206D01*
X134434700Y-59702353D01*
X134404270Y-59699500D01*
X134404266Y-59699500D01*
X132595734Y-59699500D01*
X132595730Y-59699500D01*
X132565300Y-59702353D01*
X132565298Y-59702353D01*
X132437119Y-59747206D01*
X132437117Y-59747207D01*
X132327850Y-59827850D01*
X132247207Y-59937117D01*
X132247206Y-59937119D01*
X132202353Y-60065298D01*
X132202353Y-60065300D01*
X132199500Y-60095730D01*
X132199500Y-60904269D01*
X132202353Y-60934699D01*
X132202353Y-60934701D01*
X132247206Y-61062880D01*
X132247207Y-61062882D01*
X132327850Y-61172150D01*
X132437118Y-61252793D01*
X132450453Y-61257459D01*
X132565299Y-61297646D01*
X132595730Y-61300500D01*
X132595734Y-61300500D01*
X134404270Y-61300500D01*
X134434699Y-61297646D01*
X134473025Y-61284235D01*
X134549549Y-61257459D01*
X134590504Y-61250500D01*
X134962034Y-61250500D01*
X135029073Y-61270185D01*
X135049715Y-61286819D01*
X135413181Y-61650285D01*
X135446666Y-61711608D01*
X135449500Y-61737966D01*
X135449500Y-65662034D01*
X135429815Y-65729073D01*
X135413181Y-65749715D01*
X132571804Y-68591092D01*
X132566617Y-68595727D01*
X132536033Y-68620117D01*
X132536029Y-68620121D01*
X132502519Y-68669271D01*
X132467206Y-68717118D01*
X132463216Y-68724667D01*
X132459528Y-68732326D01*
X132441992Y-68789177D01*
X132422353Y-68845301D01*
X132420771Y-68853659D01*
X132419500Y-68862100D01*
X132419500Y-68921573D01*
X132417275Y-68981009D01*
X132418316Y-68990243D01*
X132417485Y-68990336D01*
X132419500Y-69005635D01*
X132419500Y-71216797D01*
X132399815Y-71283836D01*
X132358654Y-71320744D01*
X132359855Y-71322684D01*
X132173699Y-71437947D01*
X132016127Y-71581593D01*
X131887634Y-71751744D01*
X131820676Y-71886215D01*
X131773173Y-71937452D01*
X131705510Y-71954873D01*
X131639170Y-71932947D01*
X131597294Y-71883348D01*
X131503600Y-71682422D01*
X131503599Y-71682420D01*
X131368113Y-71488926D01*
X131368108Y-71488920D01*
X131201082Y-71321894D01*
X131007578Y-71186399D01*
X130793492Y-71086570D01*
X130793486Y-71086567D01*
X130580000Y-71029364D01*
X130580000Y-71924498D01*
X130472315Y-71875320D01*
X130365763Y-71860000D01*
X130294237Y-71860000D01*
X130187685Y-71875320D01*
X130080000Y-71924498D01*
X130080000Y-71029364D01*
X130079999Y-71029364D01*
X129866513Y-71086567D01*
X129866507Y-71086570D01*
X129652422Y-71186399D01*
X129652420Y-71186400D01*
X129458926Y-71321886D01*
X129458920Y-71321891D01*
X129291891Y-71488920D01*
X129291886Y-71488926D01*
X129156400Y-71682420D01*
X129156399Y-71682422D01*
X129056570Y-71896507D01*
X129056567Y-71896513D01*
X128999364Y-72109999D01*
X128999364Y-72110000D01*
X129896314Y-72110000D01*
X129870507Y-72150156D01*
X129830000Y-72288111D01*
X129830000Y-72431889D01*
X129870507Y-72569844D01*
X129896314Y-72610000D01*
X128999364Y-72610000D01*
X129056567Y-72823486D01*
X129056570Y-72823492D01*
X129156399Y-73037578D01*
X129291894Y-73231082D01*
X129458917Y-73398105D01*
X129652421Y-73533600D01*
X129851573Y-73626466D01*
X129904012Y-73672638D01*
X129923164Y-73739832D01*
X129902948Y-73806713D01*
X129849783Y-73852048D01*
X129843968Y-73854472D01*
X129836771Y-73857260D01*
X129814982Y-73865701D01*
X129814980Y-73865702D01*
X129633699Y-73977947D01*
X129476127Y-74121593D01*
X129382400Y-74245707D01*
X129326290Y-74287343D01*
X129256578Y-74292034D01*
X129195765Y-74258661D01*
X128586819Y-73649715D01*
X128553334Y-73588392D01*
X128550500Y-73562034D01*
X128550500Y-71337964D01*
X128570185Y-71270925D01*
X128586814Y-71250288D01*
X129798205Y-70038896D01*
X129803373Y-70034277D01*
X129833970Y-70009879D01*
X129867480Y-69960728D01*
X129902793Y-69912882D01*
X129902794Y-69912879D01*
X129906787Y-69905324D01*
X129910470Y-69897676D01*
X129910470Y-69897675D01*
X129910472Y-69897673D01*
X129928007Y-69840822D01*
X129947646Y-69784699D01*
X129949232Y-69776311D01*
X129950500Y-69767904D01*
X129950500Y-69708426D01*
X129952724Y-69648992D01*
X129951684Y-69639761D01*
X129952513Y-69639667D01*
X129950500Y-69624366D01*
X129950500Y-65458141D01*
X129970185Y-65391102D01*
X130022989Y-65345347D01*
X130092147Y-65335403D01*
X130144941Y-65356092D01*
X130172067Y-65374816D01*
X130172068Y-65374817D01*
X130172069Y-65374817D01*
X130172070Y-65374818D01*
X130331128Y-65435140D01*
X130407028Y-65444356D01*
X130457626Y-65450500D01*
X130457628Y-65450500D01*
X130542374Y-65450500D01*
X130584538Y-65445380D01*
X130668872Y-65435140D01*
X130827930Y-65374818D01*
X130967929Y-65278183D01*
X131080734Y-65150852D01*
X131091201Y-65130910D01*
X131159789Y-65000226D01*
X131159790Y-65000225D01*
X131183441Y-64904269D01*
X132199500Y-64904269D01*
X132202353Y-64934699D01*
X132202353Y-64934701D01*
X132247206Y-65062880D01*
X132247207Y-65062882D01*
X132327850Y-65172150D01*
X132437118Y-65252793D01*
X132479011Y-65267452D01*
X132565299Y-65297646D01*
X132595730Y-65300500D01*
X132595734Y-65300500D01*
X132722681Y-65300500D01*
X132789720Y-65320185D01*
X132835475Y-65372989D01*
X132845419Y-65442147D01*
X132838624Y-65468465D01*
X132830181Y-65490727D01*
X132814860Y-65531125D01*
X132814859Y-65531130D01*
X132794355Y-65700000D01*
X132814859Y-65868869D01*
X132814860Y-65868874D01*
X132875182Y-66027931D01*
X132937475Y-66118177D01*
X132971817Y-66167929D01*
X133051933Y-66238905D01*
X133099150Y-66280736D01*
X133249773Y-66359789D01*
X133249775Y-66359790D01*
X133414944Y-66400500D01*
X133585056Y-66400500D01*
X133750225Y-66359790D01*
X133829692Y-66318081D01*
X133900849Y-66280736D01*
X133900850Y-66280734D01*
X133900852Y-66280734D01*
X134028183Y-66167929D01*
X134124818Y-66027930D01*
X134185140Y-65868872D01*
X134205645Y-65700000D01*
X134185140Y-65531128D01*
X134161376Y-65468468D01*
X134156010Y-65398808D01*
X134189157Y-65337302D01*
X134250295Y-65303480D01*
X134277319Y-65300500D01*
X134404270Y-65300500D01*
X134434699Y-65297646D01*
X134434701Y-65297646D01*
X134520980Y-65267455D01*
X134562882Y-65252793D01*
X134672150Y-65172150D01*
X134752793Y-65062882D01*
X134775219Y-64998790D01*
X134797646Y-64934701D01*
X134797646Y-64934699D01*
X134800500Y-64904269D01*
X134800500Y-64095730D01*
X134797646Y-64065300D01*
X134797646Y-64065298D01*
X134764006Y-63969163D01*
X134752793Y-63937118D01*
X134672150Y-63827850D01*
X134562882Y-63747207D01*
X134562880Y-63747206D01*
X134434700Y-63702353D01*
X134404270Y-63699500D01*
X134404266Y-63699500D01*
X132595734Y-63699500D01*
X132595730Y-63699500D01*
X132565300Y-63702353D01*
X132565298Y-63702353D01*
X132437119Y-63747206D01*
X132437117Y-63747207D01*
X132327850Y-63827850D01*
X132247207Y-63937117D01*
X132247206Y-63937119D01*
X132202353Y-64065298D01*
X132202353Y-64065300D01*
X132199500Y-64095730D01*
X132199500Y-64904269D01*
X131183441Y-64904269D01*
X131200500Y-64835056D01*
X131200500Y-64664944D01*
X131159790Y-64499775D01*
X131159789Y-64499773D01*
X131080736Y-64349150D01*
X131049499Y-64313891D01*
X130967929Y-64221817D01*
X130886762Y-64165791D01*
X130827931Y-64125182D01*
X130668874Y-64064860D01*
X130668868Y-64064859D01*
X130542374Y-64049500D01*
X130542372Y-64049500D01*
X130457628Y-64049500D01*
X130457626Y-64049500D01*
X130331131Y-64064859D01*
X130331125Y-64064860D01*
X130172069Y-64125182D01*
X130144939Y-64143909D01*
X130078585Y-64165791D01*
X130010933Y-64148325D01*
X129963464Y-64097057D01*
X129950500Y-64041858D01*
X129950500Y-63537965D01*
X129970185Y-63470926D01*
X129986815Y-63450288D01*
X130198218Y-63238884D01*
X130203378Y-63234273D01*
X130233970Y-63209879D01*
X130267476Y-63160734D01*
X130302792Y-63112883D01*
X130302793Y-63112880D01*
X130306786Y-63105325D01*
X130310467Y-63097680D01*
X130310472Y-63097673D01*
X130328008Y-63040820D01*
X130347646Y-62984700D01*
X130347646Y-62984694D01*
X130349228Y-62976336D01*
X130350500Y-62967899D01*
X130350500Y-62908426D01*
X130352724Y-62848990D01*
X130351684Y-62839756D01*
X130352513Y-62839662D01*
X130350500Y-62824364D01*
X130350500Y-62500000D01*
X131194355Y-62500000D01*
X131214859Y-62668869D01*
X131214860Y-62668874D01*
X131275182Y-62827931D01*
X131327873Y-62904266D01*
X131371817Y-62967929D01*
X131477505Y-63061560D01*
X131499150Y-63080736D01*
X131622182Y-63145308D01*
X131649775Y-63159790D01*
X131814944Y-63200500D01*
X131985056Y-63200500D01*
X132150225Y-63159790D01*
X132177816Y-63145308D01*
X132246323Y-63131583D01*
X132311376Y-63157075D01*
X132323119Y-63167420D01*
X132327845Y-63172146D01*
X132327849Y-63172149D01*
X132327850Y-63172150D01*
X132437118Y-63252793D01*
X132479845Y-63267744D01*
X132565299Y-63297646D01*
X132595730Y-63300500D01*
X132595734Y-63300500D01*
X134404270Y-63300500D01*
X134434699Y-63297646D01*
X134434701Y-63297646D01*
X134498790Y-63275219D01*
X134562882Y-63252793D01*
X134672150Y-63172150D01*
X134752793Y-63062882D01*
X134783155Y-62976112D01*
X134797646Y-62934701D01*
X134797646Y-62934699D01*
X134800500Y-62904269D01*
X134800500Y-62095730D01*
X134797646Y-62065300D01*
X134797646Y-62065298D01*
X134757135Y-61949528D01*
X134752793Y-61937118D01*
X134672150Y-61827850D01*
X134562882Y-61747207D01*
X134562880Y-61747206D01*
X134434700Y-61702353D01*
X134404270Y-61699500D01*
X134404266Y-61699500D01*
X132595734Y-61699500D01*
X132595730Y-61699500D01*
X132565300Y-61702353D01*
X132565298Y-61702353D01*
X132437119Y-61747206D01*
X132437117Y-61747207D01*
X132327845Y-61827853D01*
X132323119Y-61832580D01*
X132261795Y-61866062D01*
X132192103Y-61861075D01*
X132177816Y-61854691D01*
X132150224Y-61840209D01*
X132150225Y-61840209D01*
X131985056Y-61799500D01*
X131814944Y-61799500D01*
X131649773Y-61840210D01*
X131499150Y-61919263D01*
X131371816Y-62032072D01*
X131275182Y-62172068D01*
X131214860Y-62331125D01*
X131214859Y-62331130D01*
X131194355Y-62500000D01*
X130350500Y-62500000D01*
X130350500Y-62128782D01*
X130350889Y-62121843D01*
X130355270Y-62082965D01*
X130344211Y-62024520D01*
X130335348Y-61965713D01*
X130335347Y-61965711D01*
X130332833Y-61957561D01*
X130330021Y-61949523D01*
X130305936Y-61903955D01*
X130302222Y-61896927D01*
X130276425Y-61843358D01*
X130276423Y-61843356D01*
X130271624Y-61836316D01*
X130266567Y-61829465D01*
X130266566Y-61829462D01*
X130224504Y-61787400D01*
X130184055Y-61743806D01*
X130184054Y-61743805D01*
X130184053Y-61743804D01*
X130176790Y-61738012D01*
X130177310Y-61737359D01*
X130165070Y-61727966D01*
X128988908Y-60551805D01*
X128984271Y-60546617D01*
X128981525Y-60543174D01*
X128959879Y-60516030D01*
X128910728Y-60482519D01*
X128862882Y-60447207D01*
X128862881Y-60447206D01*
X128855405Y-60441689D01*
X128856861Y-60439715D01*
X128816480Y-60400410D01*
X128800500Y-60339519D01*
X128800500Y-60335056D01*
X129799500Y-60335056D01*
X129804501Y-60355346D01*
X129840210Y-60500226D01*
X129919263Y-60650849D01*
X129935424Y-60669091D01*
X130032071Y-60778183D01*
X130104278Y-60828024D01*
X130172068Y-60874817D01*
X130172069Y-60874817D01*
X130172070Y-60874818D01*
X130249719Y-60904266D01*
X130319971Y-60930909D01*
X130331128Y-60935140D01*
X130407028Y-60944356D01*
X130457626Y-60950500D01*
X130457628Y-60950500D01*
X130542374Y-60950500D01*
X130584538Y-60945380D01*
X130668872Y-60935140D01*
X130827930Y-60874818D01*
X130967929Y-60778183D01*
X131080734Y-60650852D01*
X131097559Y-60618796D01*
X131142827Y-60532544D01*
X131159790Y-60500225D01*
X131200500Y-60335056D01*
X131200500Y-60164944D01*
X131159790Y-59999775D01*
X131159789Y-59999773D01*
X131080736Y-59849150D01*
X131042604Y-59806108D01*
X130967929Y-59721817D01*
X130918177Y-59687475D01*
X130827931Y-59625182D01*
X130668874Y-59564860D01*
X130668868Y-59564859D01*
X130542374Y-59549500D01*
X130542372Y-59549500D01*
X130457628Y-59549500D01*
X130457626Y-59549500D01*
X130331131Y-59564859D01*
X130331125Y-59564860D01*
X130172068Y-59625182D01*
X130032072Y-59721816D01*
X129919263Y-59849150D01*
X129840210Y-59999773D01*
X129799500Y-60164944D01*
X129799500Y-60335056D01*
X128800500Y-60335056D01*
X128800500Y-60095730D01*
X128797646Y-60065300D01*
X128797646Y-60065298D01*
X128752793Y-59937119D01*
X128752792Y-59937117D01*
X128672150Y-59827850D01*
X128562882Y-59747207D01*
X128562880Y-59747206D01*
X128434700Y-59702353D01*
X128404270Y-59699500D01*
X128404266Y-59699500D01*
X126595734Y-59699500D01*
X126595730Y-59699500D01*
X126565300Y-59702353D01*
X126565298Y-59702353D01*
X126437119Y-59747206D01*
X126437117Y-59747207D01*
X126327850Y-59827850D01*
X126247207Y-59937117D01*
X126247206Y-59937119D01*
X126202353Y-60065298D01*
X126202353Y-60065300D01*
X126199500Y-60095730D01*
X126199500Y-60904269D01*
X126202353Y-60934699D01*
X126202353Y-60934701D01*
X126247206Y-61062880D01*
X126247207Y-61062882D01*
X126327850Y-61172150D01*
X126437118Y-61252793D01*
X126450453Y-61257459D01*
X126565299Y-61297646D01*
X126595730Y-61300500D01*
X126595734Y-61300500D01*
X127782098Y-61300500D01*
X127841559Y-61300500D01*
X127901009Y-61302725D01*
X127901009Y-61302724D01*
X127901010Y-61302725D01*
X127901010Y-61302724D01*
X127910242Y-61301685D01*
X127910335Y-61302513D01*
X127925639Y-61300500D01*
X128412034Y-61300500D01*
X128479073Y-61320185D01*
X128499715Y-61336819D01*
X128691678Y-61528782D01*
X128718302Y-61555405D01*
X128751787Y-61616728D01*
X128746803Y-61686419D01*
X128704932Y-61742353D01*
X128639467Y-61766770D01*
X128571194Y-61751918D01*
X128568284Y-61750062D01*
X128562880Y-61747206D01*
X128434700Y-61702353D01*
X128404270Y-61699500D01*
X128404266Y-61699500D01*
X126595734Y-61699500D01*
X126595730Y-61699500D01*
X126565300Y-61702353D01*
X126565298Y-61702353D01*
X126437119Y-61747206D01*
X126437117Y-61747207D01*
X126327850Y-61827850D01*
X126247207Y-61937117D01*
X126247206Y-61937119D01*
X126202353Y-62065298D01*
X126202353Y-62065300D01*
X126199500Y-62095730D01*
X126199500Y-62904269D01*
X125900499Y-62904269D01*
X125900499Y-59999773D01*
X125900499Y-57204269D01*
X126199500Y-57204269D01*
X126202353Y-57234699D01*
X126202353Y-57234701D01*
X126247206Y-57362880D01*
X126247207Y-57362882D01*
X126327850Y-57472150D01*
X126353968Y-57491426D01*
X126396218Y-57547071D01*
X126401677Y-57616727D01*
X126382386Y-57661632D01*
X126375184Y-57672066D01*
X126375182Y-57672068D01*
X126314860Y-57831125D01*
X126314859Y-57831130D01*
X126294355Y-58000000D01*
X126314859Y-58168869D01*
X126314860Y-58168874D01*
X126375182Y-58327931D01*
X126437475Y-58418177D01*
X126471817Y-58467929D01*
X126565021Y-58550500D01*
X126599150Y-58580736D01*
X126749773Y-58659789D01*
X126749775Y-58659790D01*
X126914944Y-58700500D01*
X127085056Y-58700500D01*
X127250225Y-58659790D01*
X127339547Y-58612909D01*
X127400845Y-58580738D01*
X127400846Y-58580736D01*
X127400852Y-58580734D01*
X127400856Y-58580730D01*
X127407020Y-58576476D01*
X127407960Y-58577839D01*
X127463011Y-58551963D01*
X127482006Y-58550500D01*
X127517994Y-58550500D01*
X127585033Y-58570185D01*
X127597074Y-58579302D01*
X127599154Y-58580738D01*
X127749773Y-58659789D01*
X127749775Y-58659790D01*
X127914944Y-58700500D01*
X128085056Y-58700500D01*
X128250225Y-58659790D01*
X128329692Y-58618081D01*
X128400849Y-58580736D01*
X128400850Y-58580734D01*
X128400852Y-58580734D01*
X128528183Y-58467929D01*
X128624818Y-58327930D01*
X128685140Y-58168872D01*
X128705645Y-58000000D01*
X128685140Y-57831128D01*
X128624818Y-57672070D01*
X128617616Y-57661636D01*
X128595732Y-57595282D01*
X128613197Y-57527630D01*
X128646030Y-57491427D01*
X128672150Y-57472150D01*
X128752793Y-57362882D01*
X128775219Y-57298790D01*
X128797646Y-57234701D01*
X128797646Y-57234699D01*
X128800500Y-57204269D01*
X128800500Y-56829386D01*
X128820185Y-56762347D01*
X128836819Y-56741705D01*
X128891705Y-56686819D01*
X128953028Y-56653334D01*
X128979386Y-56650500D01*
X129718728Y-56650500D01*
X129785767Y-56670185D01*
X129831522Y-56722989D01*
X129841466Y-56792147D01*
X129839125Y-56804174D01*
X129807602Y-56932071D01*
X129799500Y-56964944D01*
X129799500Y-57135056D01*
X129809870Y-57177128D01*
X129840210Y-57300226D01*
X129919263Y-57450849D01*
X129938133Y-57472149D01*
X130032071Y-57578183D01*
X130122318Y-57640476D01*
X130172068Y-57674817D01*
X130172069Y-57674817D01*
X130172070Y-57674818D01*
X130273358Y-57713231D01*
X130312116Y-57727930D01*
X130331128Y-57735140D01*
X130407028Y-57744356D01*
X130457626Y-57750500D01*
X130457628Y-57750500D01*
X130542374Y-57750500D01*
X130584538Y-57745380D01*
X130668872Y-57735140D01*
X130827930Y-57674818D01*
X130967929Y-57578183D01*
X131080734Y-57450852D01*
X131086997Y-57438920D01*
X131159789Y-57300226D01*
X131159790Y-57300225D01*
X131200500Y-57135056D01*
X131200500Y-56964944D01*
X131178074Y-56873957D01*
X131160875Y-56804174D01*
X131163944Y-56734372D01*
X131204265Y-56677310D01*
X131269034Y-56651105D01*
X131281272Y-56650500D01*
X132020612Y-56650500D01*
X132087651Y-56670185D01*
X132108292Y-56686818D01*
X132163180Y-56741705D01*
X132196666Y-56803028D01*
X132199500Y-56829387D01*
X132199500Y-57204269D01*
X132202353Y-57234699D01*
X132202353Y-57234701D01*
X132247206Y-57362880D01*
X132247207Y-57362882D01*
X132327850Y-57472150D01*
X132437118Y-57552793D01*
X132479845Y-57567744D01*
X132565299Y-57597646D01*
X132595730Y-57600500D01*
X132595734Y-57600500D01*
X134404270Y-57600500D01*
X134434699Y-57597646D01*
X134434701Y-57597646D01*
X134498790Y-57575219D01*
X134562882Y-57552793D01*
X134672150Y-57472150D01*
X134672155Y-57472142D01*
X134676872Y-57467427D01*
X134738194Y-57433939D01*
X134807885Y-57438920D01*
X134822170Y-57445302D01*
X134849775Y-57459790D01*
X135014944Y-57500500D01*
X135185056Y-57500500D01*
X135350225Y-57459790D01*
X135471682Y-57396044D01*
X135500849Y-57380736D01*
X135500850Y-57380734D01*
X135500852Y-57380734D01*
X135628183Y-57267929D01*
X135724818Y-57127930D01*
X135785140Y-56968872D01*
X135805645Y-56800000D01*
X135785140Y-56631128D01*
X135724818Y-56472070D01*
X135722760Y-56469089D01*
X135676360Y-56401867D01*
X135628183Y-56332071D01*
X135521002Y-56237117D01*
X135500849Y-56219263D01*
X135350226Y-56140210D01*
X135185056Y-56099500D01*
X135014944Y-56099500D01*
X134849775Y-56140209D01*
X134822182Y-56154692D01*
X134753673Y-56168416D01*
X134688620Y-56142924D01*
X134676876Y-56132576D01*
X134672151Y-56127851D01*
X134610679Y-56082483D01*
X134562882Y-56047207D01*
X134562880Y-56047206D01*
X134434700Y-56002353D01*
X134404270Y-55999500D01*
X134404266Y-55999500D01*
X133029387Y-55999500D01*
X132962348Y-55979815D01*
X132941710Y-55963185D01*
X132790706Y-55812181D01*
X132757222Y-55750858D01*
X132762206Y-55681166D01*
X132804078Y-55625233D01*
X132869542Y-55600816D01*
X132878388Y-55600500D01*
X134404270Y-55600500D01*
X134434699Y-55597646D01*
X134434701Y-55597646D01*
X134498790Y-55575219D01*
X134562882Y-55552793D01*
X134672150Y-55472150D01*
X134724759Y-55400867D01*
X134780406Y-55358616D01*
X134824529Y-55350500D01*
X134924335Y-55350500D01*
X135270613Y-55350500D01*
X135337652Y-55370185D01*
X135358294Y-55386819D01*
X136113181Y-56141706D01*
X136146666Y-56203029D01*
X136149500Y-56229387D01*
X136149500Y-59390602D01*
X136147238Y-59456829D01*
X136157715Y-59499819D01*
X136158901Y-59506061D01*
X136164929Y-59549920D01*
X136172079Y-59566379D01*
X136178819Y-59586420D01*
X136183067Y-59603852D01*
X136204763Y-59642439D01*
X136207582Y-59648115D01*
X136216939Y-59669655D01*
X136225221Y-59688722D01*
X136236541Y-59702636D01*
X136248439Y-59720117D01*
X136257234Y-59735760D01*
X136257236Y-59735761D01*
X136288532Y-59767057D01*
X136292783Y-59771766D01*
X136320722Y-59806108D01*
X136335381Y-59816455D01*
X136351552Y-59830077D01*
X136832755Y-60311280D01*
X137313181Y-60791705D01*
X137346666Y-60853028D01*
X137349500Y-60879386D01*
X137349500Y-67600500D01*
X137329815Y-67667539D01*
X137277011Y-67713294D01*
X137225500Y-67724500D01*
X137181898Y-67724500D01*
X137142853Y-67729188D01*
X137093438Y-67735122D01*
X136952656Y-67790639D01*
X136832077Y-67882077D01*
X136740639Y-68002656D01*
X136685122Y-68143438D01*
X136679188Y-68192853D01*
X136674500Y-68231898D01*
X136674500Y-69568102D01*
X136680126Y-69614954D01*
X136685122Y-69656561D01*
X136685122Y-69656563D01*
X136685123Y-69656564D01*
X136702722Y-69701192D01*
X136740639Y-69797343D01*
X136832077Y-69917922D01*
X136952656Y-70009360D01*
X136952657Y-70009360D01*
X136952658Y-70009361D01*
X137093436Y-70064877D01*
X137181898Y-70075500D01*
X137181903Y-70075500D01*
X138018097Y-70075500D01*
X138018102Y-70075500D01*
X138106564Y-70064877D01*
X138247342Y-70009361D01*
X138367922Y-69917922D01*
X138459361Y-69797342D01*
X138514877Y-69656564D01*
X138525500Y-69568102D01*
X138525500Y-68231898D01*
X138514877Y-68143436D01*
X138459361Y-68002658D01*
X138459145Y-68002110D01*
X138450500Y-67956620D01*
X138450500Y-64422870D01*
X138824500Y-64422870D01*
X138824501Y-64422876D01*
X138830908Y-64482483D01*
X138881202Y-64617328D01*
X138881206Y-64617335D01*
X138967452Y-64732544D01*
X138967455Y-64732547D01*
X139082664Y-64818793D01*
X139082671Y-64818797D01*
X139126262Y-64835055D01*
X139217517Y-64869091D01*
X139277127Y-64875500D01*
X139922872Y-64875499D01*
X139982483Y-64869091D01*
X140117331Y-64818796D01*
X140232546Y-64732546D01*
X140265793Y-64688134D01*
X140275485Y-64675188D01*
X140331419Y-64633318D01*
X140374751Y-64625500D01*
X140679133Y-64625500D01*
X140746172Y-64645185D01*
X140780901Y-64682024D01*
X140781760Y-64681374D01*
X140873132Y-64801867D01*
X140986865Y-64888113D01*
X140986868Y-64888115D01*
X141119654Y-64940479D01*
X141203098Y-64950500D01*
X141796902Y-64950500D01*
X141880346Y-64940479D01*
X142013132Y-64888115D01*
X142126867Y-64801867D01*
X142213115Y-64688132D01*
X142265479Y-64555346D01*
X142275500Y-64471902D01*
X142275500Y-63953098D01*
X142265479Y-63869654D01*
X142213115Y-63736868D01*
X142213113Y-63736865D01*
X142126867Y-63623132D01*
X142013134Y-63536886D01*
X142013132Y-63536885D01*
X141880346Y-63484521D01*
X141880345Y-63484520D01*
X141880343Y-63484520D01*
X141796902Y-63474500D01*
X141203098Y-63474500D01*
X141119656Y-63484520D01*
X141119655Y-63484520D01*
X140986865Y-63536886D01*
X140873131Y-63623133D01*
X140833479Y-63675424D01*
X140777287Y-63716948D01*
X140734675Y-63724500D01*
X140374751Y-63724500D01*
X140307712Y-63704815D01*
X140275485Y-63674812D01*
X140236797Y-63623133D01*
X140232546Y-63617454D01*
X140232542Y-63617451D01*
X140117335Y-63531206D01*
X140117328Y-63531202D01*
X139982486Y-63480910D01*
X139982485Y-63480909D01*
X139982483Y-63480909D01*
X139922873Y-63474500D01*
X139922863Y-63474500D01*
X139277129Y-63474500D01*
X139277123Y-63474501D01*
X139217516Y-63480908D01*
X139082671Y-63531202D01*
X139082664Y-63531206D01*
X138967455Y-63617452D01*
X138967452Y-63617455D01*
X138881206Y-63732664D01*
X138881202Y-63732671D01*
X138830910Y-63867513D01*
X138830909Y-63867517D01*
X138824500Y-63927127D01*
X138824500Y-63927134D01*
X138824500Y-63927135D01*
X138824500Y-64422870D01*
X138450500Y-64422870D01*
X138450500Y-62237966D01*
X138470185Y-62170927D01*
X138486819Y-62150285D01*
X138525285Y-62111819D01*
X138586608Y-62078334D01*
X138612966Y-62075500D01*
X138825249Y-62075500D01*
X138892288Y-62095185D01*
X138924515Y-62125188D01*
X138924599Y-62125300D01*
X138967454Y-62182546D01*
X138967457Y-62182548D01*
X139082664Y-62268793D01*
X139082671Y-62268797D01*
X139127618Y-62285561D01*
X139217517Y-62319091D01*
X139277127Y-62325500D01*
X139922872Y-62325499D01*
X139982483Y-62319091D01*
X140117331Y-62268796D01*
X140232546Y-62182546D01*
X140318796Y-62067331D01*
X140369091Y-61932483D01*
X140375500Y-61872873D01*
X140375499Y-61377128D01*
X140369091Y-61317517D01*
X140361679Y-61297645D01*
X140318797Y-61182671D01*
X140318793Y-61182664D01*
X140232547Y-61067455D01*
X140232544Y-61067452D01*
X140117335Y-60981206D01*
X140117328Y-60981202D01*
X139982486Y-60930910D01*
X139982485Y-60930909D01*
X139982483Y-60930909D01*
X139922873Y-60924500D01*
X139922863Y-60924500D01*
X139277129Y-60924500D01*
X139277123Y-60924501D01*
X139217516Y-60930908D01*
X139082671Y-60981202D01*
X139082664Y-60981206D01*
X138967457Y-61067451D01*
X138967451Y-61067457D01*
X138924515Y-61124812D01*
X138868581Y-61166682D01*
X138825249Y-61174500D01*
X138612965Y-61174500D01*
X138545926Y-61154815D01*
X138525284Y-61138181D01*
X138486819Y-61099716D01*
X138453334Y-61038393D01*
X138450500Y-61012035D01*
X138450500Y-60609397D01*
X138450757Y-60601867D01*
X138452762Y-60543174D01*
X138442680Y-60501805D01*
X138442283Y-60500174D01*
X138441096Y-60493931D01*
X138440299Y-60488134D01*
X138435070Y-60450080D01*
X138427921Y-60433622D01*
X138421180Y-60413578D01*
X138416933Y-60396148D01*
X138403351Y-60371992D01*
X138395239Y-60357564D01*
X138392414Y-60351876D01*
X138382831Y-60329815D01*
X138374780Y-60311280D01*
X138363454Y-60297359D01*
X138351556Y-60279877D01*
X138342764Y-60264240D01*
X138311472Y-60232948D01*
X138307215Y-60228231D01*
X138302853Y-60222870D01*
X138824500Y-60222870D01*
X138824501Y-60222876D01*
X138830908Y-60282483D01*
X138881202Y-60417328D01*
X138881206Y-60417335D01*
X138967452Y-60532544D01*
X138967455Y-60532547D01*
X139082664Y-60618793D01*
X139082671Y-60618797D01*
X139127618Y-60635561D01*
X139217517Y-60669091D01*
X139277127Y-60675500D01*
X139922872Y-60675499D01*
X139982483Y-60669091D01*
X140117331Y-60618796D01*
X140232546Y-60532546D01*
X140265793Y-60488134D01*
X140275485Y-60475188D01*
X140331419Y-60433318D01*
X140374751Y-60425500D01*
X140679133Y-60425500D01*
X140746172Y-60445185D01*
X140780901Y-60482024D01*
X140781760Y-60481374D01*
X140873132Y-60601867D01*
X140986865Y-60688113D01*
X140986868Y-60688115D01*
X141119654Y-60740479D01*
X141203098Y-60750500D01*
X141796902Y-60750500D01*
X141880346Y-60740479D01*
X142013132Y-60688115D01*
X142126867Y-60601867D01*
X142213115Y-60488132D01*
X142265479Y-60355346D01*
X142275500Y-60271902D01*
X142275500Y-59753098D01*
X142274792Y-59747206D01*
X142265479Y-59669656D01*
X142265479Y-59669655D01*
X142264636Y-59667517D01*
X142213115Y-59536868D01*
X142213113Y-59536865D01*
X142126867Y-59423132D01*
X142013134Y-59336886D01*
X142013132Y-59336885D01*
X141880346Y-59284521D01*
X141880345Y-59284520D01*
X141880343Y-59284520D01*
X141796902Y-59274500D01*
X141203098Y-59274500D01*
X141119656Y-59284520D01*
X141119655Y-59284520D01*
X140986865Y-59336886D01*
X140873131Y-59423133D01*
X140833479Y-59475424D01*
X140777287Y-59516948D01*
X140734675Y-59524500D01*
X140374751Y-59524500D01*
X140307712Y-59504815D01*
X140275485Y-59474812D01*
X140236797Y-59423133D01*
X140232546Y-59417454D01*
X140232542Y-59417451D01*
X140117335Y-59331206D01*
X140117328Y-59331202D01*
X139982486Y-59280910D01*
X139982485Y-59280909D01*
X139982483Y-59280909D01*
X139922873Y-59274500D01*
X139922863Y-59274500D01*
X139277129Y-59274500D01*
X139277123Y-59274501D01*
X139217516Y-59280908D01*
X139082671Y-59331202D01*
X139082664Y-59331206D01*
X138967455Y-59417452D01*
X138967452Y-59417455D01*
X138881206Y-59532664D01*
X138881202Y-59532671D01*
X138830910Y-59667513D01*
X138830909Y-59667517D01*
X138824500Y-59727127D01*
X138824500Y-59727134D01*
X138824500Y-59727135D01*
X138824500Y-60222870D01*
X138302853Y-60222870D01*
X138279278Y-60193892D01*
X138264613Y-60183540D01*
X138248441Y-60169917D01*
X137286819Y-59208294D01*
X137253334Y-59146971D01*
X137250500Y-59120613D01*
X137250500Y-57400000D01*
X137794355Y-57400000D01*
X137814859Y-57568869D01*
X137814860Y-57568874D01*
X137875182Y-57727931D01*
X137890761Y-57750500D01*
X137971817Y-57867929D01*
X138059919Y-57945980D01*
X138099150Y-57980736D01*
X138249773Y-58059789D01*
X138249775Y-58059790D01*
X138414944Y-58100500D01*
X138585056Y-58100500D01*
X138750225Y-58059790D01*
X138869291Y-57997298D01*
X138937798Y-57983573D01*
X139001227Y-58007829D01*
X139082664Y-58068793D01*
X139082671Y-58068797D01*
X139127618Y-58085561D01*
X139217517Y-58119091D01*
X139277127Y-58125500D01*
X139922872Y-58125499D01*
X139982483Y-58119091D01*
X140117331Y-58068796D01*
X140232546Y-57982546D01*
X140318796Y-57867331D01*
X140369091Y-57732483D01*
X140375500Y-57672873D01*
X140375499Y-57177128D01*
X140369091Y-57117517D01*
X140352140Y-57072070D01*
X140318797Y-56982671D01*
X140318793Y-56982664D01*
X140232547Y-56867455D01*
X140232544Y-56867452D01*
X140117335Y-56781206D01*
X140117328Y-56781202D01*
X139982486Y-56730910D01*
X139982485Y-56730909D01*
X139982483Y-56730909D01*
X139922873Y-56724500D01*
X139922863Y-56724500D01*
X139277129Y-56724500D01*
X139277123Y-56724501D01*
X139217516Y-56730908D01*
X139082671Y-56781202D01*
X139082664Y-56781206D01*
X139040368Y-56812869D01*
X138974903Y-56837286D01*
X138907554Y-56822634D01*
X138907494Y-56822751D01*
X138907073Y-56822530D01*
X138906631Y-56822434D01*
X138905132Y-56821511D01*
X138750226Y-56740210D01*
X138585056Y-56699500D01*
X138414944Y-56699500D01*
X138249773Y-56740210D01*
X138099150Y-56819263D01*
X137971816Y-56932072D01*
X137875182Y-57072068D01*
X137814860Y-57231125D01*
X137814859Y-57231130D01*
X137794355Y-57400000D01*
X137250500Y-57400000D01*
X137250500Y-56279387D01*
X137270185Y-56212348D01*
X137286819Y-56191706D01*
X137805536Y-55672989D01*
X138315891Y-55162634D01*
X138315891Y-55162633D01*
X138491707Y-54986816D01*
X138553028Y-54953334D01*
X138579386Y-54950500D01*
X138951502Y-54950500D01*
X139018541Y-54970185D01*
X139064296Y-55022989D01*
X139074240Y-55092147D01*
X139045215Y-55155703D01*
X139025816Y-55173764D01*
X138967454Y-55217454D01*
X138967453Y-55217455D01*
X138967452Y-55217456D01*
X138881206Y-55332664D01*
X138881202Y-55332671D01*
X138830910Y-55467513D01*
X138830909Y-55467517D01*
X138824500Y-55527127D01*
X138824500Y-55527134D01*
X138824500Y-55527135D01*
X138824500Y-56022870D01*
X138824501Y-56022876D01*
X138830908Y-56082483D01*
X138881202Y-56217328D01*
X138881206Y-56217335D01*
X138967452Y-56332544D01*
X138967455Y-56332547D01*
X139082664Y-56418793D01*
X139082671Y-56418797D01*
X139127618Y-56435561D01*
X139217517Y-56469091D01*
X139277127Y-56475500D01*
X139922872Y-56475499D01*
X139982483Y-56469091D01*
X140117331Y-56418796D01*
X140232546Y-56332546D01*
X140265793Y-56288134D01*
X140275485Y-56275188D01*
X140331419Y-56233318D01*
X140374751Y-56225500D01*
X140679133Y-56225500D01*
X140746172Y-56245185D01*
X140780901Y-56282024D01*
X140781760Y-56281374D01*
X140873132Y-56401867D01*
X140986865Y-56488113D01*
X140986868Y-56488115D01*
X141119654Y-56540479D01*
X141203098Y-56550500D01*
X141796902Y-56550500D01*
X141880346Y-56540479D01*
X142013132Y-56488115D01*
X142126867Y-56401867D01*
X142213115Y-56288132D01*
X142265479Y-56155346D01*
X142275500Y-56071902D01*
X142275500Y-55553098D01*
X142265479Y-55469654D01*
X142213115Y-55336868D01*
X142213113Y-55336865D01*
X142126867Y-55223132D01*
X142013134Y-55136886D01*
X142013132Y-55136885D01*
X141880346Y-55084521D01*
X141880345Y-55084520D01*
X141880343Y-55084520D01*
X141796902Y-55074500D01*
X141203098Y-55074500D01*
X141119656Y-55084520D01*
X141119655Y-55084520D01*
X140986865Y-55136886D01*
X140873131Y-55223133D01*
X140833479Y-55275424D01*
X140777287Y-55316948D01*
X140734675Y-55324500D01*
X140374751Y-55324500D01*
X140307712Y-55304815D01*
X140275485Y-55274812D01*
X140236797Y-55223133D01*
X140232546Y-55217454D01*
X140174188Y-55173767D01*
X140117335Y-55131206D01*
X140117328Y-55131202D01*
X139982486Y-55080910D01*
X139982485Y-55080909D01*
X139982483Y-55080909D01*
X139922873Y-55074500D01*
X139922864Y-55074500D01*
X139897158Y-55074500D01*
X139830119Y-55054815D01*
X139784364Y-55002011D01*
X139774420Y-54932853D01*
X139803445Y-54869297D01*
X139829259Y-54848229D01*
X139829002Y-54847889D01*
X139835752Y-54842769D01*
X139835759Y-54842766D01*
X139867059Y-54811464D01*
X139871771Y-54807211D01*
X139906108Y-54779278D01*
X139916456Y-54764616D01*
X139930074Y-54748449D01*
X140667502Y-54011021D01*
X140728823Y-53977538D01*
X140740398Y-53975588D01*
X140741131Y-53975500D01*
X140741144Y-53975500D01*
X140825590Y-53965359D01*
X140959975Y-53912364D01*
X141075078Y-53825078D01*
X141162364Y-53709975D01*
X141215359Y-53575590D01*
X141225500Y-53491144D01*
X141225500Y-53137964D01*
X141245185Y-53070925D01*
X141261815Y-53050287D01*
X141798205Y-52513896D01*
X141803373Y-52509277D01*
X141833970Y-52484879D01*
X141867480Y-52435728D01*
X141902793Y-52387882D01*
X141902794Y-52387879D01*
X141906787Y-52380324D01*
X141910470Y-52372676D01*
X141910470Y-52372675D01*
X141910472Y-52372673D01*
X141928007Y-52315822D01*
X141947646Y-52259699D01*
X141949232Y-52251311D01*
X141950500Y-52242904D01*
X141950500Y-52183426D01*
X141952724Y-52123992D01*
X141951684Y-52114761D01*
X141952513Y-52114667D01*
X141950500Y-52099366D01*
X141950500Y-51224500D01*
X141970185Y-51157461D01*
X142022989Y-51111706D01*
X142074500Y-51100500D01*
X142085056Y-51100500D01*
X142250225Y-51059790D01*
X142354345Y-51005143D01*
X142400849Y-50980736D01*
X142400850Y-50980734D01*
X142400852Y-50980734D01*
X142528183Y-50867929D01*
X142624818Y-50727930D01*
X142685140Y-50568872D01*
X142705645Y-50400000D01*
X142685140Y-50231128D01*
X142624818Y-50072070D01*
X142554666Y-49970437D01*
X142532784Y-49904086D01*
X142550249Y-49836435D01*
X142554652Y-49829581D01*
X142624818Y-49727930D01*
X142685140Y-49568872D01*
X142705645Y-49400000D01*
X142685140Y-49231128D01*
X142676693Y-49208856D01*
X142624817Y-49072068D01*
X142568186Y-48990025D01*
X142528183Y-48932071D01*
X142412486Y-48829573D01*
X142400849Y-48819263D01*
X142250226Y-48740210D01*
X142085056Y-48699500D01*
X141914944Y-48699500D01*
X141749773Y-48740210D01*
X141599150Y-48819263D01*
X141471815Y-48932072D01*
X141417387Y-49010924D01*
X141363104Y-49054914D01*
X141293655Y-49062573D01*
X141231091Y-49031469D01*
X141204299Y-48987240D01*
X141201352Y-48988542D01*
X141197585Y-48980011D01*
X141197585Y-48980009D01*
X141161064Y-48897297D01*
X141150500Y-48847214D01*
X141150500Y-47863545D01*
X141162186Y-47819024D01*
X141159252Y-47817867D01*
X141174516Y-47779158D01*
X141215359Y-47675590D01*
X141225500Y-47591144D01*
X141225500Y-47008856D01*
X141215359Y-46924410D01*
X141162364Y-46790025D01*
X141102227Y-46710723D01*
X141077405Y-46645413D01*
X141091833Y-46577049D01*
X141098983Y-46565358D01*
X141117742Y-46538181D01*
X141124818Y-46527930D01*
X141185140Y-46368872D01*
X141205645Y-46200000D01*
X141185140Y-46031128D01*
X141175165Y-46004827D01*
X141147364Y-45931519D01*
X141124818Y-45872070D01*
X141116280Y-45859701D01*
X141079510Y-45806431D01*
X141028183Y-45732071D01*
X140910632Y-45627930D01*
X140900849Y-45619263D01*
X140750226Y-45540210D01*
X140585056Y-45499500D01*
X140414944Y-45499500D01*
X140249773Y-45540210D01*
X140099150Y-45619263D01*
X139971816Y-45732072D01*
X139875182Y-45872068D01*
X139814860Y-46031125D01*
X139814859Y-46031130D01*
X139794355Y-46200000D01*
X139814859Y-46368869D01*
X139814860Y-46368874D01*
X139869209Y-46512180D01*
X139875182Y-46527930D01*
X139877192Y-46530842D01*
X139878007Y-46533313D01*
X139878669Y-46534574D01*
X139878459Y-46534684D01*
X139899075Y-46597196D01*
X139881610Y-46664847D01*
X139873946Y-46676207D01*
X139787636Y-46790023D01*
X139734640Y-46924411D01*
X139729078Y-46970730D01*
X139724500Y-47008856D01*
X139724500Y-47591144D01*
X139729825Y-47635494D01*
X139734640Y-47675588D01*
X139787636Y-47809976D01*
X139874921Y-47925078D01*
X139990023Y-48012363D01*
X139990024Y-48012363D01*
X139990025Y-48012364D01*
X140124410Y-48065359D01*
X140140283Y-48067265D01*
X140204498Y-48094802D01*
X140243631Y-48152684D01*
X140249500Y-48190381D01*
X140249500Y-48625500D01*
X140229815Y-48692539D01*
X140177011Y-48738294D01*
X140125500Y-48749500D01*
X139455143Y-48749500D01*
X139455117Y-48749502D01*
X139430012Y-48752413D01*
X139430008Y-48752415D01*
X139327235Y-48797793D01*
X139247794Y-48877234D01*
X139202415Y-48980006D01*
X139202415Y-48980008D01*
X139199500Y-49005131D01*
X139199500Y-49394856D01*
X139199502Y-49394882D01*
X139203489Y-49429258D01*
X139201726Y-49429462D01*
X139201726Y-49470540D01*
X139203490Y-49470745D01*
X139199500Y-49505131D01*
X139199500Y-49894856D01*
X139199502Y-49894882D01*
X139203489Y-49929258D01*
X139201726Y-49929462D01*
X139201726Y-49970540D01*
X139203490Y-49970745D01*
X139199500Y-50005131D01*
X139199500Y-50394856D01*
X139199502Y-50394882D01*
X139203489Y-50429258D01*
X139201726Y-50429462D01*
X139201726Y-50470540D01*
X139203490Y-50470745D01*
X139199500Y-50505131D01*
X139199500Y-50894856D01*
X139199502Y-50894882D01*
X139203489Y-50929258D01*
X139201726Y-50929462D01*
X139201726Y-50970540D01*
X139203490Y-50970745D01*
X139199500Y-51005131D01*
X139199500Y-51394856D01*
X139199502Y-51394882D01*
X139203489Y-51429258D01*
X139200670Y-51429584D01*
X139199576Y-51484526D01*
X139174140Y-51529448D01*
X139171818Y-51532068D01*
X139075182Y-51672068D01*
X139014860Y-51831125D01*
X139014859Y-51831130D01*
X138994355Y-52000000D01*
X139014859Y-52168869D01*
X139014860Y-52168874D01*
X139075182Y-52327931D01*
X139121981Y-52395730D01*
X139171817Y-52467929D01*
X139266295Y-52551629D01*
X139299150Y-52580736D01*
X139418013Y-52643120D01*
X139449775Y-52659790D01*
X139614944Y-52700500D01*
X139614945Y-52700500D01*
X139622389Y-52701404D01*
X139622059Y-52704117D01*
X139676778Y-52720185D01*
X139722533Y-52772989D01*
X139732854Y-52839283D01*
X139724500Y-52908856D01*
X139724500Y-52908862D01*
X139724500Y-53345613D01*
X139704815Y-53412652D01*
X139688181Y-53433294D01*
X139308294Y-53813181D01*
X139246971Y-53846666D01*
X139220613Y-53849500D01*
X138309397Y-53849500D01*
X138243174Y-53847238D01*
X138243173Y-53847238D01*
X138243171Y-53847238D01*
X138200170Y-53857717D01*
X138193930Y-53858902D01*
X138150079Y-53864930D01*
X138133616Y-53872081D01*
X138113575Y-53878820D01*
X138096150Y-53883066D01*
X138096145Y-53883068D01*
X138057567Y-53904758D01*
X138051881Y-53907582D01*
X138011279Y-53925220D01*
X137997357Y-53936546D01*
X137979883Y-53948438D01*
X137964246Y-53957230D01*
X137964239Y-53957235D01*
X137932939Y-53988535D01*
X137928225Y-53992789D01*
X137893891Y-54020722D01*
X137883541Y-54035385D01*
X137869920Y-54051554D01*
X137546799Y-54374675D01*
X136812681Y-55108794D01*
X136751358Y-55142279D01*
X136681667Y-55137295D01*
X136637319Y-55108794D01*
X135945906Y-54417381D01*
X135925685Y-54395730D01*
X135900680Y-54368956D01*
X135881403Y-54357233D01*
X135862861Y-54345957D01*
X135857610Y-54342383D01*
X135822341Y-54315638D01*
X135822342Y-54315638D01*
X135805642Y-54309052D01*
X135786716Y-54299652D01*
X135771380Y-54290327D01*
X135728758Y-54278384D01*
X135722740Y-54276360D01*
X135681565Y-54260124D01*
X135681556Y-54260122D01*
X135663716Y-54258288D01*
X135642951Y-54254342D01*
X135625669Y-54249500D01*
X135625665Y-54249500D01*
X135581406Y-54249500D01*
X135575064Y-54249175D01*
X135547427Y-54246333D01*
X135531029Y-54244648D01*
X135531024Y-54244648D01*
X135513344Y-54247697D01*
X135492276Y-54249500D01*
X134824529Y-54249500D01*
X134757490Y-54229815D01*
X134724759Y-54199133D01*
X134672151Y-54127851D01*
X134562882Y-54047207D01*
X134562880Y-54047206D01*
X134434700Y-54002353D01*
X134404270Y-53999500D01*
X134404266Y-53999500D01*
X132595734Y-53999500D01*
X132595730Y-53999500D01*
X132565300Y-54002353D01*
X132565298Y-54002353D01*
X132437119Y-54047206D01*
X132437117Y-54047207D01*
X132327850Y-54127850D01*
X132247207Y-54237117D01*
X132247206Y-54237119D01*
X132202353Y-54365298D01*
X132202353Y-54365300D01*
X132199500Y-54395730D01*
X132199500Y-54570613D01*
X132179815Y-54637652D01*
X132163181Y-54658294D01*
X132108294Y-54713181D01*
X132046971Y-54746666D01*
X132020613Y-54749500D01*
X128979387Y-54749500D01*
X128912348Y-54729815D01*
X128891706Y-54713181D01*
X128836819Y-54658294D01*
X128803334Y-54596971D01*
X128800500Y-54570613D01*
X128800500Y-54395730D01*
X128797646Y-54365300D01*
X128797646Y-54365298D01*
X128758820Y-54254342D01*
X128752793Y-54237118D01*
X128672150Y-54127850D01*
X128562882Y-54047207D01*
X128562880Y-54047206D01*
X128434700Y-54002353D01*
X128404270Y-53999500D01*
X128404266Y-53999500D01*
X126595734Y-53999500D01*
X126595730Y-53999500D01*
X126565300Y-54002353D01*
X126565298Y-54002353D01*
X126437119Y-54047206D01*
X126437117Y-54047207D01*
X126327850Y-54127850D01*
X126247207Y-54237117D01*
X126247206Y-54237119D01*
X126202353Y-54365298D01*
X126202353Y-54365300D01*
X126199500Y-54395730D01*
X126199500Y-55204269D01*
X126202353Y-55234699D01*
X126202353Y-55234701D01*
X126238103Y-55336865D01*
X126247207Y-55362882D01*
X126327850Y-55472150D01*
X126437118Y-55552793D01*
X126479845Y-55567744D01*
X126565299Y-55597646D01*
X126595730Y-55600500D01*
X126595734Y-55600500D01*
X128121613Y-55600500D01*
X128188652Y-55620185D01*
X128234407Y-55672989D01*
X128244351Y-55742147D01*
X128215326Y-55805703D01*
X128209304Y-55812170D01*
X128058293Y-55963182D01*
X127996972Y-55996666D01*
X127970614Y-55999500D01*
X126595730Y-55999500D01*
X126565300Y-56002353D01*
X126565298Y-56002353D01*
X126437119Y-56047206D01*
X126437117Y-56047207D01*
X126327850Y-56127850D01*
X126247207Y-56237117D01*
X126247206Y-56237119D01*
X126202353Y-56365298D01*
X126202353Y-56365300D01*
X126199500Y-56395730D01*
X126199500Y-57204269D01*
X125900499Y-57204269D01*
X125900499Y-53204269D01*
X126199500Y-53204269D01*
X126202353Y-53234699D01*
X126202353Y-53234701D01*
X126247206Y-53362880D01*
X126247207Y-53362882D01*
X126327850Y-53472150D01*
X126437118Y-53552793D01*
X126479845Y-53567744D01*
X126565299Y-53597646D01*
X126595730Y-53600500D01*
X126595734Y-53600500D01*
X128404270Y-53600500D01*
X128434699Y-53597646D01*
X128434701Y-53597646D01*
X128498790Y-53575219D01*
X128562882Y-53552793D01*
X128672150Y-53472150D01*
X128752793Y-53362882D01*
X128752794Y-53362880D01*
X128758312Y-53355404D01*
X128761353Y-53357648D01*
X128797296Y-53320619D01*
X128797560Y-53320470D01*
X128803848Y-53316933D01*
X128803852Y-53316933D01*
X128842457Y-53295225D01*
X128848090Y-53292427D01*
X128888720Y-53274780D01*
X128902632Y-53263460D01*
X128920123Y-53251557D01*
X128935755Y-53242768D01*
X128935753Y-53242768D01*
X128935759Y-53242766D01*
X128967059Y-53211464D01*
X128971771Y-53207211D01*
X129006108Y-53179278D01*
X129016456Y-53164616D01*
X129030074Y-53148449D01*
X129593411Y-52585112D01*
X129654732Y-52551629D01*
X129724424Y-52556613D01*
X129780357Y-52598485D01*
X129801487Y-52643120D01*
X129840210Y-52800226D01*
X129919263Y-52950849D01*
X129919266Y-52950852D01*
X130032071Y-53078183D01*
X130118678Y-53137964D01*
X130172068Y-53174817D01*
X130172069Y-53174817D01*
X130172070Y-53174818D01*
X130331128Y-53235140D01*
X130393950Y-53242768D01*
X130457626Y-53250500D01*
X130457628Y-53250500D01*
X130542374Y-53250500D01*
X130584538Y-53245380D01*
X130668872Y-53235140D01*
X130827930Y-53174818D01*
X130967929Y-53078183D01*
X131080734Y-52950852D01*
X131102776Y-52908856D01*
X131144484Y-52829387D01*
X131159790Y-52800225D01*
X131200500Y-52635056D01*
X131200500Y-52464944D01*
X131159790Y-52299775D01*
X131150909Y-52282853D01*
X131080736Y-52149150D01*
X131050270Y-52114761D01*
X130967929Y-52021817D01*
X130882981Y-51963181D01*
X130827931Y-51925182D01*
X130668874Y-51864860D01*
X130668869Y-51864859D01*
X130604937Y-51857096D01*
X130540759Y-51829473D01*
X130501703Y-51771538D01*
X130500170Y-51701686D01*
X130532201Y-51646322D01*
X130712322Y-51466202D01*
X130773641Y-51432720D01*
X130843333Y-51437704D01*
X130887680Y-51466205D01*
X132163181Y-52741706D01*
X132196666Y-52803029D01*
X132199500Y-52829387D01*
X132199500Y-53204269D01*
X132202353Y-53234699D01*
X132202353Y-53234701D01*
X132247206Y-53362880D01*
X132247207Y-53362882D01*
X132327850Y-53472150D01*
X132437118Y-53552793D01*
X132479845Y-53567744D01*
X132565299Y-53597646D01*
X132595730Y-53600500D01*
X132595734Y-53600500D01*
X134404270Y-53600500D01*
X134434699Y-53597646D01*
X134434701Y-53597646D01*
X134498790Y-53575219D01*
X134562882Y-53552793D01*
X134672150Y-53472150D01*
X134752793Y-53362882D01*
X134783621Y-53274780D01*
X134797646Y-53234701D01*
X134797646Y-53234699D01*
X134800500Y-53204269D01*
X134800500Y-52395730D01*
X134797646Y-52365300D01*
X134797646Y-52365298D01*
X134757690Y-52251113D01*
X134752793Y-52237118D01*
X134672150Y-52127850D01*
X134562882Y-52047207D01*
X134562880Y-52047206D01*
X134434700Y-52002353D01*
X134404270Y-51999500D01*
X134404266Y-51999500D01*
X133029387Y-51999500D01*
X132962348Y-51979815D01*
X132941706Y-51963181D01*
X131613550Y-50635025D01*
X131580065Y-50573702D01*
X131585049Y-50504010D01*
X131602423Y-50472424D01*
X131659361Y-50397342D01*
X131714877Y-50256564D01*
X131725500Y-50168102D01*
X131725500Y-48831898D01*
X131714877Y-48743436D01*
X131659361Y-48602658D01*
X131659360Y-48602657D01*
X131659360Y-48602656D01*
X131567922Y-48482077D01*
X131447341Y-48390638D01*
X131447339Y-48390637D01*
X131329010Y-48343974D01*
X131273866Y-48301069D01*
X131250673Y-48235161D01*
X131250500Y-48228620D01*
X131250500Y-48043221D01*
X131270185Y-47976182D01*
X131299573Y-47944418D01*
X131325078Y-47925078D01*
X131412364Y-47809975D01*
X131465359Y-47675590D01*
X131475500Y-47591144D01*
X131475500Y-47058856D01*
X131465359Y-46974410D01*
X131412364Y-46840025D01*
X131412363Y-46840024D01*
X131412363Y-46840023D01*
X131325078Y-46724921D01*
X131209976Y-46637636D01*
X131075588Y-46584640D01*
X131032242Y-46579435D01*
X130991144Y-46574500D01*
X130991138Y-46574500D01*
X130548136Y-46574500D01*
X130481097Y-46554815D01*
X130460455Y-46538181D01*
X130086819Y-46164544D01*
X130053334Y-46103221D01*
X130050500Y-46076863D01*
X130050500Y-45921897D01*
X130052762Y-45855674D01*
X130042283Y-45812674D01*
X130041096Y-45806431D01*
X130040182Y-45799783D01*
X130035070Y-45762580D01*
X130027921Y-45746122D01*
X130021180Y-45726078D01*
X130016933Y-45708648D01*
X129995238Y-45670064D01*
X129992414Y-45664378D01*
X129974780Y-45623780D01*
X129974780Y-45623779D01*
X129963458Y-45609863D01*
X129951557Y-45592376D01*
X129942768Y-45576744D01*
X129942767Y-45576743D01*
X129942766Y-45576741D01*
X129911456Y-45545431D01*
X129907210Y-45540725D01*
X129899812Y-45531632D01*
X129879278Y-45506392D01*
X129864612Y-45496039D01*
X129848445Y-45482420D01*
X129486819Y-45120794D01*
X129453334Y-45059471D01*
X129450500Y-45033113D01*
X129450500Y-44695730D01*
X129447646Y-44665300D01*
X129447646Y-44665298D01*
X129402793Y-44537119D01*
X129402792Y-44537117D01*
X129322150Y-44427850D01*
X129212882Y-44347207D01*
X129212880Y-44347206D01*
X129084700Y-44302353D01*
X129054270Y-44299500D01*
X129054266Y-44299500D01*
X128645734Y-44299500D01*
X128645730Y-44299500D01*
X128615300Y-44302353D01*
X128615298Y-44302353D01*
X128487119Y-44347206D01*
X128487117Y-44347207D01*
X128377850Y-44427850D01*
X128297207Y-44537117D01*
X128297206Y-44537119D01*
X128252353Y-44665298D01*
X128252353Y-44665300D01*
X128249500Y-44695730D01*
X128249500Y-45829269D01*
X128252353Y-45859699D01*
X128252353Y-45859700D01*
X128258128Y-45876203D01*
X128261689Y-45945982D01*
X128228778Y-46004827D01*
X128220436Y-46013171D01*
X128159117Y-46046663D01*
X128132744Y-46049500D01*
X127667255Y-46049500D01*
X127600216Y-46029815D01*
X127579574Y-46013181D01*
X127571231Y-46004838D01*
X127537746Y-45943515D01*
X127541870Y-45876203D01*
X127547646Y-45859699D01*
X127548024Y-45855674D01*
X127550500Y-45829269D01*
X127550500Y-44695730D01*
X127547646Y-44665300D01*
X127547646Y-44665298D01*
X127502793Y-44537119D01*
X127502792Y-44537117D01*
X127422150Y-44427850D01*
X127312882Y-44347207D01*
X127312880Y-44347206D01*
X127184700Y-44302353D01*
X127154270Y-44299500D01*
X127154266Y-44299500D01*
X126745734Y-44299500D01*
X126745730Y-44299500D01*
X126715300Y-44302353D01*
X126715298Y-44302353D01*
X126587119Y-44347206D01*
X126587117Y-44347207D01*
X126477850Y-44427850D01*
X126397207Y-44537117D01*
X126397206Y-44537119D01*
X126352353Y-44665298D01*
X126352353Y-44665300D01*
X126349500Y-44695730D01*
X126349500Y-45829269D01*
X126352353Y-45859699D01*
X126352353Y-45859701D01*
X126387377Y-45959790D01*
X126397207Y-45987882D01*
X126477850Y-46097150D01*
X126587118Y-46177793D01*
X126636903Y-46195213D01*
X126661190Y-46203712D01*
X126717966Y-46244433D01*
X126738164Y-46282428D01*
X126738704Y-46284090D01*
X126751726Y-46302014D01*
X126761890Y-46318600D01*
X126765718Y-46326112D01*
X126771950Y-46338342D01*
X126794513Y-46360905D01*
X126794516Y-46360909D01*
X126799095Y-46365488D01*
X126832582Y-46426807D01*
X126827603Y-46496499D01*
X126785735Y-46552435D01*
X126723003Y-46576631D01*
X126715298Y-46577353D01*
X126587119Y-46622206D01*
X126587117Y-46622207D01*
X126477850Y-46702850D01*
X126397207Y-46812117D01*
X126397206Y-46812119D01*
X126352353Y-46940298D01*
X126352353Y-46940300D01*
X126349500Y-46970730D01*
X126349500Y-48104269D01*
X126352353Y-48134699D01*
X126352353Y-48134701D01*
X126392541Y-48249548D01*
X126397207Y-48262882D01*
X126477850Y-48372150D01*
X126587118Y-48452793D01*
X126629845Y-48467744D01*
X126715299Y-48497646D01*
X126745730Y-48500500D01*
X126745734Y-48500500D01*
X127154270Y-48500500D01*
X127184699Y-48497646D01*
X127184701Y-48497646D01*
X127258134Y-48471950D01*
X127312882Y-48452793D01*
X127422150Y-48372150D01*
X127502793Y-48262882D01*
X127531379Y-48181188D01*
X127547646Y-48134701D01*
X127547646Y-48134699D01*
X127550500Y-48104269D01*
X127550500Y-46974500D01*
X127570185Y-46907461D01*
X127622989Y-46861706D01*
X127674500Y-46850500D01*
X128125500Y-46850500D01*
X128192539Y-46870185D01*
X128238294Y-46922989D01*
X128249500Y-46974500D01*
X128249500Y-48104269D01*
X128252353Y-48134699D01*
X128252354Y-48134701D01*
X128292541Y-48249548D01*
X128299500Y-48290503D01*
X128299500Y-48660070D01*
X128279815Y-48727109D01*
X128227011Y-48772864D01*
X128220990Y-48775424D01*
X128190027Y-48787634D01*
X128190026Y-48787634D01*
X128074921Y-48874921D01*
X127987636Y-48990023D01*
X127934640Y-49124411D01*
X127929065Y-49170841D01*
X127924500Y-49208856D01*
X127924500Y-49791144D01*
X127929113Y-49829559D01*
X127934640Y-49875588D01*
X127990748Y-50017866D01*
X127988748Y-50018654D01*
X128001827Y-50075378D01*
X127978225Y-50141141D01*
X127965724Y-50155750D01*
X127948718Y-50172756D01*
X127890712Y-50205472D01*
X127749773Y-50240210D01*
X127599154Y-50319261D01*
X127592980Y-50323524D01*
X127592039Y-50322160D01*
X127536989Y-50348037D01*
X127517994Y-50349500D01*
X127482006Y-50349500D01*
X127414967Y-50329815D01*
X127402925Y-50320697D01*
X127400845Y-50319261D01*
X127250226Y-50240210D01*
X127085056Y-50199500D01*
X126914944Y-50199500D01*
X126749773Y-50240210D01*
X126599150Y-50319263D01*
X126471816Y-50432072D01*
X126375182Y-50572068D01*
X126314860Y-50731125D01*
X126314859Y-50731130D01*
X126294355Y-50900000D01*
X126314859Y-51068869D01*
X126314860Y-51068874D01*
X126375182Y-51227931D01*
X126437475Y-51318177D01*
X126471817Y-51367929D01*
X126550577Y-51437704D01*
X126599150Y-51480736D01*
X126696961Y-51532071D01*
X126749775Y-51559790D01*
X126914944Y-51600500D01*
X127085056Y-51600500D01*
X127250225Y-51559790D01*
X127339547Y-51512909D01*
X127400845Y-51480738D01*
X127400846Y-51480736D01*
X127400852Y-51480734D01*
X127400856Y-51480730D01*
X127407020Y-51476476D01*
X127407960Y-51477839D01*
X127463011Y-51451963D01*
X127482006Y-51450500D01*
X127517994Y-51450500D01*
X127585033Y-51470185D01*
X127597074Y-51479302D01*
X127599154Y-51480738D01*
X127696961Y-51532071D01*
X127749775Y-51559790D01*
X127914944Y-51600500D01*
X128085056Y-51600500D01*
X128250225Y-51559790D01*
X128329692Y-51518081D01*
X128400849Y-51480736D01*
X128400850Y-51480734D01*
X128400852Y-51480734D01*
X128528183Y-51367929D01*
X128624818Y-51227930D01*
X128685140Y-51068872D01*
X128690414Y-51025428D01*
X128718034Y-50961252D01*
X128725808Y-50952714D01*
X129057603Y-50620920D01*
X129106044Y-50575680D01*
X129129041Y-50537861D01*
X129132613Y-50532611D01*
X129159361Y-50497342D01*
X129165945Y-50480643D01*
X129175344Y-50461719D01*
X129184672Y-50446382D01*
X129196619Y-50403739D01*
X129198632Y-50397753D01*
X129214876Y-50356564D01*
X129215603Y-50349500D01*
X129216711Y-50338716D01*
X129220658Y-50317944D01*
X129225500Y-50300665D01*
X129225500Y-50256405D01*
X129225825Y-50250062D01*
X129227771Y-50231130D01*
X129230087Y-50208596D01*
X129256523Y-50143923D01*
X129269386Y-50131375D01*
X129269083Y-50131072D01*
X129275069Y-50125084D01*
X129275078Y-50125078D01*
X129362364Y-50009975D01*
X129415359Y-49875590D01*
X129425500Y-49791144D01*
X129425500Y-49208856D01*
X129415359Y-49124410D01*
X129413554Y-49119833D01*
X129409145Y-49108651D01*
X129400500Y-49063163D01*
X129400500Y-48290503D01*
X129407459Y-48249548D01*
X129447645Y-48134701D01*
X129447646Y-48134699D01*
X129450500Y-48104269D01*
X129450500Y-47384636D01*
X129470185Y-47317597D01*
X129522989Y-47271842D01*
X129592147Y-47261898D01*
X129655703Y-47290923D01*
X129662181Y-47296955D01*
X129889829Y-47524603D01*
X129923314Y-47585926D01*
X129925261Y-47597485D01*
X129929816Y-47635411D01*
X129934640Y-47675588D01*
X129987636Y-47809976D01*
X130074918Y-47925073D01*
X130074922Y-47925078D01*
X130100425Y-47944417D01*
X130141948Y-48000609D01*
X130149500Y-48043221D01*
X130149500Y-48331444D01*
X130129815Y-48398483D01*
X130100426Y-48430247D01*
X130032079Y-48482076D01*
X130032074Y-48482082D01*
X129940639Y-48602656D01*
X129885122Y-48743438D01*
X129880917Y-48778460D01*
X129874500Y-48831898D01*
X129874500Y-50168102D01*
X129878988Y-50205472D01*
X129885122Y-50256561D01*
X129885122Y-50256563D01*
X129885123Y-50256564D01*
X129898155Y-50289610D01*
X129940639Y-50397343D01*
X129997571Y-50472419D01*
X130022394Y-50537731D01*
X130007966Y-50606094D01*
X129986448Y-50635025D01*
X128626409Y-51995064D01*
X128565086Y-52028549D01*
X128497773Y-52024424D01*
X128434700Y-52002353D01*
X128404270Y-51999500D01*
X128404266Y-51999500D01*
X126595734Y-51999500D01*
X126595730Y-51999500D01*
X126565300Y-52002353D01*
X126565298Y-52002353D01*
X126437119Y-52047206D01*
X126437117Y-52047207D01*
X126327850Y-52127850D01*
X126247207Y-52237117D01*
X126247206Y-52237119D01*
X126202353Y-52365298D01*
X126202353Y-52365300D01*
X126199500Y-52395730D01*
X126199500Y-53204269D01*
X125900499Y-53204269D01*
X125900499Y-41122870D01*
X126574500Y-41122870D01*
X126574501Y-41122876D01*
X126580908Y-41182483D01*
X126631202Y-41317328D01*
X126631204Y-41317331D01*
X126692135Y-41398725D01*
X126716552Y-41464190D01*
X126701700Y-41532463D01*
X126694919Y-41543474D01*
X126675184Y-41572065D01*
X126675182Y-41572068D01*
X126614860Y-41731125D01*
X126614859Y-41731130D01*
X126594355Y-41900000D01*
X126614859Y-42068869D01*
X126614860Y-42068874D01*
X126675182Y-42227931D01*
X126737475Y-42318177D01*
X126771817Y-42367929D01*
X126853451Y-42440250D01*
X126899150Y-42480736D01*
X127003704Y-42535610D01*
X127049775Y-42559790D01*
X127214944Y-42600500D01*
X127385056Y-42600500D01*
X127550225Y-42559790D01*
X127629692Y-42518081D01*
X127700849Y-42480736D01*
X127700850Y-42480734D01*
X127700852Y-42480734D01*
X127828183Y-42367929D01*
X127924818Y-42227930D01*
X127985140Y-42068872D01*
X128005645Y-41900000D01*
X127985140Y-41731128D01*
X127972084Y-41696703D01*
X127924817Y-41572068D01*
X127924816Y-41572066D01*
X127881095Y-41508727D01*
X127859211Y-41442373D01*
X127876676Y-41374721D01*
X127883869Y-41363987D01*
X127918796Y-41317331D01*
X127969091Y-41182483D01*
X127975500Y-41122873D01*
X127975499Y-40477128D01*
X127969091Y-40417517D01*
X127918796Y-40282669D01*
X127918795Y-40282668D01*
X127918793Y-40282664D01*
X127832547Y-40167455D01*
X127832544Y-40167452D01*
X127717335Y-40081206D01*
X127717328Y-40081202D01*
X127582486Y-40030910D01*
X127582485Y-40030909D01*
X127582483Y-40030909D01*
X127522873Y-40024500D01*
X127522863Y-40024500D01*
X127027129Y-40024500D01*
X127027123Y-40024501D01*
X126967516Y-40030908D01*
X126832671Y-40081202D01*
X126832664Y-40081206D01*
X126717455Y-40167452D01*
X126717452Y-40167455D01*
X126631206Y-40282664D01*
X126631202Y-40282671D01*
X126580910Y-40417513D01*
X126580909Y-40417517D01*
X126574500Y-40477127D01*
X126574500Y-40477134D01*
X126574500Y-40477135D01*
X126574500Y-41122870D01*
X125900499Y-41122870D01*
X125900499Y-38002683D01*
X125900733Y-37997327D01*
X125916258Y-37819879D01*
X125920011Y-37798598D01*
X125964002Y-37634418D01*
X125971388Y-37614125D01*
X126043223Y-37460074D01*
X126054023Y-37441369D01*
X126151516Y-37302134D01*
X126165399Y-37285589D01*
X126285589Y-37165399D01*
X126302134Y-37151516D01*
X126441369Y-37054023D01*
X126460074Y-37043223D01*
X126614125Y-36971388D01*
X126634418Y-36964002D01*
X126798598Y-36920010D01*
X126819881Y-36916258D01*
X126994318Y-36900997D01*
X127062818Y-36914764D01*
X127113001Y-36963379D01*
X127128934Y-37031408D01*
X127105559Y-37097251D01*
X127055873Y-37135690D01*
X127056416Y-37136724D01*
X127050573Y-37139790D01*
X127050296Y-37140005D01*
X127049803Y-37140194D01*
X126899150Y-37219263D01*
X126771816Y-37332072D01*
X126675182Y-37472068D01*
X126614860Y-37631125D01*
X126614859Y-37631130D01*
X126594355Y-37800000D01*
X126614859Y-37968869D01*
X126614860Y-37968874D01*
X126625641Y-37997300D01*
X126675182Y-38127930D01*
X126694918Y-38156523D01*
X126716802Y-38222876D01*
X126699338Y-38290528D01*
X126692136Y-38301274D01*
X126631204Y-38382668D01*
X126631202Y-38382671D01*
X126580910Y-38517513D01*
X126580909Y-38517517D01*
X126574500Y-38577127D01*
X126574500Y-38577134D01*
X126574500Y-38577135D01*
X126574500Y-39222870D01*
X126574501Y-39222876D01*
X126580908Y-39282483D01*
X126631202Y-39417328D01*
X126631206Y-39417335D01*
X126717452Y-39532544D01*
X126717455Y-39532547D01*
X126832664Y-39618793D01*
X126832671Y-39618797D01*
X126877618Y-39635561D01*
X126967517Y-39669091D01*
X127027127Y-39675500D01*
X127522872Y-39675499D01*
X127582483Y-39669091D01*
X127717331Y-39618796D01*
X127832546Y-39532546D01*
X127918796Y-39417331D01*
X127969091Y-39282483D01*
X127975500Y-39222873D01*
X127975499Y-38577128D01*
X127969091Y-38517517D01*
X127918796Y-38382669D01*
X127883877Y-38336024D01*
X127859460Y-38270561D01*
X127874311Y-38202287D01*
X127881096Y-38191271D01*
X127924814Y-38127936D01*
X127924816Y-38127933D01*
X127924816Y-38127932D01*
X127924818Y-38127930D01*
X127985140Y-37968872D01*
X128005645Y-37800000D01*
X127985140Y-37631128D01*
X127982417Y-37623949D01*
X127924817Y-37472068D01*
X127866645Y-37387793D01*
X127828183Y-37332071D01*
X127700852Y-37219266D01*
X127700849Y-37219263D01*
X127543584Y-37136724D01*
X127544250Y-37135455D01*
X127495134Y-37098264D01*
X127471077Y-37032666D01*
X127486304Y-36964476D01*
X127535980Y-36915343D01*
X127594808Y-36900500D01*
X129376000Y-36900500D01*
X129443039Y-36920185D01*
G37*
%TD.AperFunction*%
%TD*%
%TA.AperFunction,Conductor*%
%TO.N,GND*%
G36*
X131815119Y-42579826D02*
G01*
X131862078Y-42631562D01*
X131874500Y-42685658D01*
X131874500Y-43376000D01*
X131854815Y-43443039D01*
X131802011Y-43488794D01*
X131750500Y-43500000D01*
X131624000Y-43500000D01*
X131556961Y-43480315D01*
X131511206Y-43427511D01*
X131500000Y-43376000D01*
X131500000Y-42972319D01*
X131499810Y-42971972D01*
X131500000Y-42969315D01*
X131500000Y-42948638D01*
X131501479Y-42948638D01*
X131504794Y-42902280D01*
X131519202Y-42874775D01*
X131558856Y-42817802D01*
X131636549Y-42636758D01*
X131681076Y-42582914D01*
X131747644Y-42561691D01*
X131815119Y-42579826D01*
G37*
%TD.AperFunction*%
%TA.AperFunction,Conductor*%
G36*
X138330703Y-42578994D02*
G01*
X138367813Y-42635586D01*
X138396300Y-42726382D01*
X138396306Y-42726396D01*
X138485602Y-42887277D01*
X138499395Y-42948638D01*
X138500000Y-42948638D01*
X138500000Y-42951329D01*
X138500925Y-42955445D01*
X138500000Y-42957978D01*
X138500000Y-43376000D01*
X138480315Y-43443039D01*
X138427511Y-43488794D01*
X138376000Y-43500000D01*
X138249500Y-43500000D01*
X138182461Y-43480315D01*
X138136706Y-43427511D01*
X138125500Y-43376000D01*
X138125500Y-42672707D01*
X138145185Y-42605668D01*
X138197989Y-42559913D01*
X138267147Y-42549969D01*
X138330703Y-42578994D01*
G37*
%TD.AperFunction*%
%TA.AperFunction,Conductor*%
G36*
X138296166Y-36920185D02*
G01*
X138341921Y-36972989D01*
X138351865Y-37042147D01*
X138350589Y-37049461D01*
X138320000Y-37198309D01*
X138320000Y-37350000D01*
X139020000Y-37350000D01*
X139020000Y-37850000D01*
X138320000Y-37850000D01*
X138320000Y-37950713D01*
X138335418Y-38102338D01*
X138396299Y-38296381D01*
X138396304Y-38296391D01*
X138495005Y-38474215D01*
X138495005Y-38474216D01*
X138627478Y-38628530D01*
X138627479Y-38628531D01*
X138788304Y-38753018D01*
X138970907Y-38842589D01*
X139070000Y-38868244D01*
X139070000Y-38066110D01*
X139094457Y-38105610D01*
X139183962Y-38173201D01*
X139291840Y-38203895D01*
X139403521Y-38193546D01*
X139503922Y-38143552D01*
X139570000Y-38071069D01*
X139570000Y-38873366D01*
X139571944Y-38873069D01*
X139571945Y-38873069D01*
X139762660Y-38802436D01*
X139762666Y-38802433D01*
X139810407Y-38772676D01*
X139877712Y-38753919D01*
X139944473Y-38774527D01*
X139989495Y-38827958D01*
X140000000Y-38877907D01*
X140000000Y-40250788D01*
X139980315Y-40317827D01*
X139927511Y-40363582D01*
X139858353Y-40373526D01*
X139821392Y-40362116D01*
X139669096Y-40287412D01*
X139669095Y-40287411D01*
X139570000Y-40261753D01*
X139570000Y-41063889D01*
X139545543Y-41024390D01*
X139456038Y-40956799D01*
X139348160Y-40926105D01*
X139236479Y-40936454D01*
X139136078Y-40986448D01*
X139070000Y-41058930D01*
X139070000Y-40256633D01*
X139068053Y-40256931D01*
X139068047Y-40256933D01*
X138877342Y-40327562D01*
X138877335Y-40327565D01*
X138704732Y-40435149D01*
X138557331Y-40575264D01*
X138557330Y-40575266D01*
X138441142Y-40742197D01*
X138441140Y-40742200D01*
X138437760Y-40750078D01*
X138393232Y-40803921D01*
X138326663Y-40825142D01*
X138259189Y-40807005D01*
X138248332Y-40799556D01*
X138180233Y-40747302D01*
X138180232Y-40747301D01*
X138180230Y-40747300D01*
X138089731Y-40709814D01*
X138040236Y-40689313D01*
X138026171Y-40687461D01*
X137927727Y-40674500D01*
X137927720Y-40674500D01*
X137852280Y-40674500D01*
X137852272Y-40674500D01*
X137739764Y-40689313D01*
X137739763Y-40689313D01*
X137599770Y-40747300D01*
X137599767Y-40747301D01*
X137599767Y-40747302D01*
X137479549Y-40839549D01*
X137387512Y-40959494D01*
X137387300Y-40959770D01*
X137329313Y-41099763D01*
X137329312Y-41099765D01*
X137309534Y-41249999D01*
X137309534Y-41250000D01*
X137329312Y-41400234D01*
X137329313Y-41400236D01*
X137337406Y-41419775D01*
X137338762Y-41423047D01*
X137346231Y-41492516D01*
X137314956Y-41554996D01*
X137254867Y-41590648D01*
X137224201Y-41594500D01*
X137114364Y-41594500D01*
X137067883Y-41601272D01*
X137042876Y-41604915D01*
X137007124Y-41604915D01*
X136982117Y-41601272D01*
X136935636Y-41594500D01*
X136564364Y-41594500D01*
X136559079Y-41595269D01*
X136517873Y-41601272D01*
X136482127Y-41601272D01*
X136440920Y-41595269D01*
X136435636Y-41594500D01*
X136435635Y-41594500D01*
X136327083Y-41594500D01*
X136260044Y-41574815D01*
X136214289Y-41522011D01*
X136200819Y-41492516D01*
X136190498Y-41469916D01*
X136188812Y-41465845D01*
X136171629Y-41419777D01*
X136171628Y-41419775D01*
X136171628Y-41419774D01*
X136171624Y-41419768D01*
X136169284Y-41416642D01*
X136155755Y-41393840D01*
X136154130Y-41390282D01*
X136154127Y-41390279D01*
X136121914Y-41353102D01*
X136119155Y-41349678D01*
X136110278Y-41337820D01*
X136099804Y-41327346D01*
X136096802Y-41324121D01*
X136089216Y-41315366D01*
X136064589Y-41286945D01*
X136061289Y-41284824D01*
X136040650Y-41268191D01*
X135881807Y-41109348D01*
X135865171Y-41088703D01*
X135863055Y-41085411D01*
X135825893Y-41053210D01*
X135822652Y-41050193D01*
X135812188Y-41039728D01*
X135812175Y-41039717D01*
X135800320Y-41030843D01*
X135796890Y-41028079D01*
X135759718Y-40995870D01*
X135756152Y-40994241D01*
X135733362Y-40980718D01*
X135730227Y-40978371D01*
X135684149Y-40961185D01*
X135680078Y-40959499D01*
X135635342Y-40939069D01*
X135635341Y-40939068D01*
X135635337Y-40939067D01*
X135631455Y-40938509D01*
X135605791Y-40931959D01*
X135602122Y-40930591D01*
X135602118Y-40930590D01*
X135602115Y-40930589D01*
X135594200Y-40930022D01*
X135553071Y-40927079D01*
X135548680Y-40926607D01*
X135534019Y-40924501D01*
X135534016Y-40924500D01*
X135534011Y-40924500D01*
X135534005Y-40924500D01*
X135519209Y-40924500D01*
X135514784Y-40924342D01*
X135465731Y-40920833D01*
X135465728Y-40920833D01*
X135463841Y-40921243D01*
X135461898Y-40921666D01*
X135435542Y-40924500D01*
X135064453Y-40924500D01*
X135038101Y-40921667D01*
X135034270Y-40920834D01*
X135034267Y-40920834D01*
X134997641Y-40923453D01*
X134985223Y-40924342D01*
X134980801Y-40924500D01*
X134965989Y-40924500D01*
X134951329Y-40926607D01*
X134946932Y-40927080D01*
X134897885Y-40930589D01*
X134897882Y-40930590D01*
X134894214Y-40931958D01*
X134868538Y-40938511D01*
X134864660Y-40939068D01*
X134864657Y-40939069D01*
X134819930Y-40959494D01*
X134815843Y-40961187D01*
X134769778Y-40978369D01*
X134769770Y-40978374D01*
X134766635Y-40980721D01*
X134743852Y-40994239D01*
X134740281Y-40995870D01*
X134740280Y-40995870D01*
X134710730Y-41021475D01*
X134703107Y-41028079D01*
X134699672Y-41030848D01*
X134687824Y-41039718D01*
X134677344Y-41050197D01*
X134674115Y-41053202D01*
X134664729Y-41061335D01*
X134636949Y-41085406D01*
X134636940Y-41085416D01*
X134634820Y-41088716D01*
X134618193Y-41109346D01*
X134459346Y-41268193D01*
X134438713Y-41284822D01*
X134435412Y-41286943D01*
X134435411Y-41286944D01*
X134416996Y-41308195D01*
X134403207Y-41324109D01*
X134400201Y-41327338D01*
X134389718Y-41337821D01*
X134380832Y-41349690D01*
X134378060Y-41353131D01*
X134345872Y-41390279D01*
X134345868Y-41390284D01*
X134344237Y-41393856D01*
X134330725Y-41416629D01*
X134328372Y-41419772D01*
X134328370Y-41419775D01*
X134311187Y-41465844D01*
X134309494Y-41469931D01*
X134285713Y-41522008D01*
X134239960Y-41574813D01*
X134172921Y-41594500D01*
X134064364Y-41594500D01*
X134059079Y-41595269D01*
X134017873Y-41601272D01*
X133982127Y-41601272D01*
X133940920Y-41595269D01*
X133935636Y-41594500D01*
X133564364Y-41594500D01*
X133559079Y-41595269D01*
X133517873Y-41601272D01*
X133482127Y-41601272D01*
X133440920Y-41595269D01*
X133435636Y-41594500D01*
X133064364Y-41594500D01*
X133017883Y-41601272D01*
X132992876Y-41604915D01*
X132957124Y-41604915D01*
X132932117Y-41601272D01*
X132885636Y-41594500D01*
X132885631Y-41594500D01*
X132775799Y-41594500D01*
X132708760Y-41574815D01*
X132663005Y-41522011D01*
X132653061Y-41452853D01*
X132661238Y-41423047D01*
X132670687Y-41400236D01*
X132690466Y-41250000D01*
X132670687Y-41099764D01*
X132612698Y-40959767D01*
X132520451Y-40839549D01*
X132400233Y-40747302D01*
X132400229Y-40747300D01*
X132336801Y-40721027D01*
X132260236Y-40689313D01*
X132246171Y-40687461D01*
X132147727Y-40674500D01*
X132147720Y-40674500D01*
X132072280Y-40674500D01*
X132072272Y-40674500D01*
X131959764Y-40689313D01*
X131959763Y-40689313D01*
X131819769Y-40747300D01*
X131797821Y-40764142D01*
X131748743Y-40801800D01*
X131683575Y-40826994D01*
X131615131Y-40812956D01*
X131565141Y-40764142D01*
X131564839Y-40763602D01*
X131504994Y-40655784D01*
X131504994Y-40655783D01*
X131372521Y-40501469D01*
X131372520Y-40501468D01*
X131211695Y-40376981D01*
X131029093Y-40287411D01*
X130930000Y-40261753D01*
X130930000Y-41063889D01*
X130905543Y-41024390D01*
X130816038Y-40956799D01*
X130708160Y-40926105D01*
X130596479Y-40936454D01*
X130496078Y-40986448D01*
X130430000Y-41058930D01*
X130430000Y-40256633D01*
X130428053Y-40256931D01*
X130428047Y-40256933D01*
X130237342Y-40327562D01*
X130237332Y-40327566D01*
X130189590Y-40357324D01*
X130122285Y-40376079D01*
X130055524Y-40355469D01*
X130010504Y-40302037D01*
X130000000Y-40252091D01*
X130000000Y-38879211D01*
X130019685Y-38812172D01*
X130072489Y-38766417D01*
X130141647Y-38756473D01*
X130178609Y-38767883D01*
X130330907Y-38842589D01*
X130430000Y-38868244D01*
X130430000Y-38066110D01*
X130454457Y-38105610D01*
X130543962Y-38173201D01*
X130651840Y-38203895D01*
X130763521Y-38193546D01*
X130863922Y-38143552D01*
X130930000Y-38071069D01*
X130930000Y-38873366D01*
X130931944Y-38873069D01*
X130931945Y-38873069D01*
X131122660Y-38802436D01*
X131122664Y-38802434D01*
X131295267Y-38694850D01*
X131442668Y-38554735D01*
X131442669Y-38554733D01*
X131558856Y-38387804D01*
X131639059Y-38200907D01*
X131680000Y-38001690D01*
X131680000Y-37850000D01*
X130980000Y-37850000D01*
X130980000Y-37350000D01*
X131680000Y-37350000D01*
X131680000Y-37249286D01*
X131664581Y-37097663D01*
X131653273Y-37061622D01*
X131651985Y-36991764D01*
X131688670Y-36932300D01*
X131751680Y-36902108D01*
X131771586Y-36900500D01*
X138229127Y-36900500D01*
X138296166Y-36920185D01*
G37*
%TD.AperFunction*%
%TD*%
M02*
