M48
; DRILL file {KiCad 7.0.9} date Sun Dec 31 00:29:44 2023
; FORMAT={-:-/ absolute / inch / decimal}
; #@! TF.CreationDate,2023-12-31T00:29:44+09:00
; #@! TF.GenerationSoftware,Kicad,Pcbnew,7.0.9
; #@! TF.FileFunction,Plated,1,2,PTH
FMAT,2
INCH
; #@! TA.AperFunction,Plated,PTH,ViaDrill
T1C0.0157
; #@! TA.AperFunction,Plated,PTH,ComponentDrill
T2C0.0236
; #@! TA.AperFunction,Plated,PTH,ComponentDrill
T3C0.0394
%
G90
G05
T1
X5.0Y-2.0039
X5.0Y-2.2835
X5.0Y-3.2283
X5.0118Y-1.4882
X5.0118Y-1.6496
X5.0197Y-2.3268
X5.0197Y-2.5866
X5.0354Y-1.7323
X5.0394Y-2.0039
X5.0394Y-2.2835
X5.0591Y-2.7244
X5.0748Y-1.4882
X5.0748Y-1.6496
X5.0827Y-2.4606
X5.1457Y-1.7598
X5.1929Y-2.4606
X5.2008Y-3.1102
X5.2126Y-1.7441
X5.2126Y-1.7835
X5.2441Y-1.6181
X5.2559Y-1.7441
X5.2559Y-2.5866
X5.2795Y-2.0217
X5.2953Y-3.0118
X5.2953Y-3.0827
X5.3189Y-2.2362
X5.3504Y-2.6693
X5.374Y-1.7441
X5.374Y-3.0118
X5.374Y-3.0827
X5.3858Y-2.4213
X5.3858Y-2.5472
X5.4134Y-1.8622
X5.4173Y-1.7441
X5.4173Y-1.7835
X5.4252Y-2.0945
X5.4528Y-2.2598
X5.4646Y-1.752
X5.4646Y-1.7913
X5.4961Y-2.311
X5.5Y-2.0472
X5.5039Y-1.752
X5.5315Y-1.8189
X5.5591Y-2.8209
X5.5591Y-2.9508
X5.5709Y-2.6339
X5.5748Y-1.8937
X5.5906Y-1.9449
X5.5906Y-1.9843
X5.6181Y-2.2598
X5.6181Y-2.4252
X5.6299Y-1.4961
X5.6299Y-3.2283
T3
X5.1311Y-2.8488
X5.1311Y-2.9488
X5.1311Y-3.0488
X5.2311Y-2.8488
X5.2311Y-2.9488
X5.2311Y-3.0488
X5.437Y-2.8482
X5.437Y-2.9482
X5.437Y-3.0482
T2
G00X5.1449Y-1.4921
M15
G01X5.1449Y-1.4685
M16
G05
G00X5.1449Y-1.6665
M15
G01X5.1449Y-1.6232
M16
G05
G00X5.485Y-1.4921
M15
G01X5.485Y-1.4685
M16
G05
G00X5.485Y-1.6665
M15
G01X5.485Y-1.6232
M16
G05
T0
M30
