%TF.GenerationSoftware,KiCad,Pcbnew,7.0.9*%
%TF.CreationDate,2023-12-31T00:29:42+09:00*%
%TF.ProjectId,CustomUPDIProgrammer,43757374-6f6d-4555-9044-4950726f6772,rev?*%
%TF.SameCoordinates,Original*%
%TF.FileFunction,Legend,Bot*%
%TF.FilePolarity,Positive*%
%FSLAX46Y46*%
G04 Gerber Fmt 4.6, Leading zero omitted, Abs format (unit mm)*
G04 Created by KiCad (PCBNEW 7.0.9) date 2023-12-31 00:29:42*
%MOMM*%
%LPD*%
G01*
G04 APERTURE LIST*
%ADD10C,0.150000*%
%ADD11R,1.700000X1.700000*%
%ADD12O,1.700000X1.700000*%
%ADD13C,0.650000*%
%ADD14O,1.000000X2.100000*%
%ADD15O,1.000000X1.600000*%
%ADD16C,0.900000*%
G04 APERTURE END LIST*
D10*
G36*
X136730632Y-71442013D02*
G01*
X135485452Y-71442013D01*
X135459453Y-71442573D01*
X135433935Y-71444246D01*
X135408921Y-71447019D01*
X135384434Y-71450881D01*
X135360496Y-71455819D01*
X135337130Y-71461822D01*
X135314357Y-71468878D01*
X135292202Y-71476975D01*
X135270686Y-71486101D01*
X135249831Y-71496244D01*
X135229661Y-71507393D01*
X135210198Y-71519535D01*
X135191465Y-71532658D01*
X135173483Y-71546751D01*
X135156277Y-71561801D01*
X135139867Y-71577797D01*
X135124277Y-71594727D01*
X135109530Y-71612578D01*
X135095647Y-71631340D01*
X135082652Y-71651000D01*
X135070567Y-71671546D01*
X135059415Y-71692966D01*
X135049217Y-71715249D01*
X135039997Y-71738382D01*
X135031778Y-71762353D01*
X135024581Y-71787152D01*
X135018429Y-71812765D01*
X135013345Y-71839180D01*
X135009352Y-71866387D01*
X135006472Y-71894373D01*
X135004727Y-71923125D01*
X135004141Y-71952633D01*
X135004727Y-71982141D01*
X135006472Y-72010894D01*
X135009352Y-72038880D01*
X135013345Y-72066086D01*
X135018429Y-72092502D01*
X135024581Y-72118115D01*
X135031778Y-72142913D01*
X135039997Y-72166885D01*
X135049217Y-72190018D01*
X135059415Y-72212301D01*
X135070567Y-72233721D01*
X135082652Y-72254267D01*
X135095647Y-72273927D01*
X135109530Y-72292688D01*
X135124277Y-72310540D01*
X135139867Y-72327470D01*
X135156277Y-72343466D01*
X135173483Y-72358516D01*
X135191465Y-72372609D01*
X135210198Y-72385732D01*
X135229661Y-72397874D01*
X135249831Y-72409022D01*
X135270686Y-72419165D01*
X135292202Y-72428292D01*
X135314357Y-72436389D01*
X135337130Y-72443445D01*
X135360496Y-72449448D01*
X135384434Y-72454386D01*
X135408921Y-72458248D01*
X135433935Y-72461021D01*
X135459453Y-72462693D01*
X135485452Y-72463254D01*
X136730632Y-72463254D01*
X136730632Y-72694521D01*
X135466676Y-72694521D01*
X135430279Y-72693668D01*
X135394528Y-72691125D01*
X135359455Y-72686917D01*
X135325095Y-72681069D01*
X135291480Y-72673607D01*
X135258645Y-72664554D01*
X135226622Y-72653936D01*
X135195444Y-72641777D01*
X135165147Y-72628104D01*
X135135762Y-72612939D01*
X135107324Y-72596309D01*
X135079865Y-72578239D01*
X135053420Y-72558752D01*
X135028022Y-72537875D01*
X135003703Y-72515632D01*
X134980499Y-72492048D01*
X134958441Y-72467147D01*
X134937564Y-72440955D01*
X134917902Y-72413497D01*
X134899486Y-72384797D01*
X134882352Y-72354881D01*
X134866532Y-72323773D01*
X134852060Y-72291499D01*
X134838969Y-72258082D01*
X134827293Y-72223549D01*
X134817065Y-72187924D01*
X134808319Y-72151231D01*
X134801089Y-72113496D01*
X134795406Y-72074744D01*
X134791306Y-72035000D01*
X134788821Y-71994288D01*
X134787986Y-71952633D01*
X134788821Y-71910979D01*
X134791306Y-71870267D01*
X134795406Y-71830522D01*
X134801089Y-71791770D01*
X134808319Y-71754036D01*
X134817065Y-71717343D01*
X134827293Y-71681718D01*
X134838969Y-71647184D01*
X134852060Y-71613768D01*
X134866532Y-71581493D01*
X134882352Y-71550385D01*
X134899486Y-71520469D01*
X134917902Y-71491770D01*
X134937564Y-71464312D01*
X134958441Y-71438120D01*
X134980499Y-71413219D01*
X135003703Y-71389635D01*
X135028022Y-71367392D01*
X135053420Y-71346514D01*
X135079865Y-71327028D01*
X135107324Y-71308957D01*
X135135762Y-71292327D01*
X135165147Y-71277163D01*
X135195444Y-71263489D01*
X135226622Y-71251331D01*
X135258645Y-71240713D01*
X135291480Y-71231660D01*
X135325095Y-71224197D01*
X135359455Y-71218350D01*
X135394528Y-71214142D01*
X135430279Y-71211599D01*
X135466676Y-71210746D01*
X136730632Y-71210746D01*
X136730632Y-71442013D01*
G37*
G36*
X136157977Y-69455992D02*
G01*
X136188918Y-69457765D01*
X136219376Y-69460730D01*
X136249316Y-69464897D01*
X136278701Y-69470272D01*
X136307495Y-69476866D01*
X136335662Y-69484687D01*
X136363166Y-69493742D01*
X136389971Y-69504042D01*
X136416041Y-69515593D01*
X136441340Y-69528406D01*
X136465832Y-69542488D01*
X136489481Y-69557848D01*
X136512250Y-69574494D01*
X136534104Y-69592435D01*
X136555006Y-69611680D01*
X136574922Y-69632237D01*
X136593813Y-69654115D01*
X136611645Y-69677322D01*
X136628381Y-69701867D01*
X136643986Y-69727758D01*
X136658423Y-69755004D01*
X136671656Y-69783614D01*
X136683649Y-69813596D01*
X136694366Y-69844958D01*
X136703772Y-69877709D01*
X136711829Y-69911858D01*
X136718502Y-69947413D01*
X136723755Y-69984383D01*
X136727552Y-70022777D01*
X136729856Y-70062602D01*
X136730632Y-70103868D01*
X136730632Y-70749127D01*
X134821875Y-70749127D01*
X134821875Y-70517859D01*
X135518883Y-70517859D01*
X135724047Y-70517859D01*
X136525468Y-70517859D01*
X136525468Y-70111653D01*
X136524974Y-70083105D01*
X136523504Y-70055671D01*
X136521080Y-70029337D01*
X136517721Y-70004089D01*
X136513447Y-69979913D01*
X136508280Y-69956797D01*
X136502238Y-69934726D01*
X136495343Y-69913687D01*
X136487616Y-69893667D01*
X136479075Y-69874651D01*
X136469741Y-69856626D01*
X136459635Y-69839579D01*
X136448778Y-69823496D01*
X136437188Y-69808363D01*
X136424887Y-69794167D01*
X136411895Y-69780895D01*
X136398233Y-69768532D01*
X136383919Y-69757065D01*
X136353422Y-69736765D01*
X136337279Y-69727904D01*
X136320566Y-69719886D01*
X136303305Y-69712695D01*
X136285514Y-69706319D01*
X136267215Y-69700745D01*
X136248428Y-69695957D01*
X136229173Y-69691943D01*
X136209470Y-69688690D01*
X136189340Y-69686183D01*
X136168803Y-69684409D01*
X136147879Y-69683355D01*
X136126589Y-69683007D01*
X136105248Y-69683355D01*
X136084259Y-69684409D01*
X136063642Y-69686180D01*
X136043419Y-69688683D01*
X136023612Y-69691929D01*
X136004242Y-69695933D01*
X135985331Y-69700706D01*
X135966899Y-69706262D01*
X135948968Y-69712614D01*
X135931560Y-69719774D01*
X135914695Y-69727755D01*
X135898396Y-69736571D01*
X135882683Y-69746235D01*
X135867579Y-69756758D01*
X135853104Y-69768154D01*
X135839280Y-69780437D01*
X135826127Y-69793618D01*
X135813669Y-69807711D01*
X135801925Y-69822729D01*
X135790918Y-69838685D01*
X135780668Y-69855591D01*
X135771198Y-69873460D01*
X135762528Y-69892306D01*
X135754679Y-69912142D01*
X135747674Y-69932979D01*
X135741534Y-69954832D01*
X135736280Y-69977713D01*
X135731933Y-70001634D01*
X135728515Y-70026610D01*
X135726047Y-70052652D01*
X135724550Y-70079775D01*
X135724047Y-70107989D01*
X135724047Y-70517859D01*
X135518883Y-70517859D01*
X135518883Y-70100204D01*
X135519668Y-70059271D01*
X135521999Y-70019758D01*
X135525840Y-69981657D01*
X135531152Y-69944959D01*
X135537898Y-69909657D01*
X135546042Y-69875744D01*
X135555546Y-69843211D01*
X135566374Y-69812050D01*
X135578487Y-69782254D01*
X135591850Y-69753814D01*
X135606424Y-69726723D01*
X135622172Y-69700973D01*
X135639058Y-69676555D01*
X135657044Y-69653463D01*
X135676093Y-69631688D01*
X135696168Y-69611222D01*
X135717232Y-69592058D01*
X135739248Y-69574187D01*
X135762178Y-69557602D01*
X135785986Y-69542295D01*
X135810634Y-69528257D01*
X135836084Y-69515482D01*
X135862301Y-69503960D01*
X135889247Y-69493685D01*
X135916884Y-69484648D01*
X135945176Y-69476842D01*
X135974085Y-69470258D01*
X136003574Y-69464889D01*
X136033606Y-69460727D01*
X136064144Y-69457764D01*
X136095151Y-69455992D01*
X136126589Y-69455403D01*
X136157977Y-69455992D01*
G37*
G36*
X135834782Y-67586072D02*
G01*
X135888251Y-67588936D01*
X135940300Y-67593688D01*
X135990907Y-67600307D01*
X136040051Y-67608777D01*
X136087707Y-67619077D01*
X136133853Y-67631191D01*
X136178467Y-67645098D01*
X136221526Y-67660782D01*
X136263007Y-67678222D01*
X136302889Y-67697401D01*
X136341147Y-67718300D01*
X136377759Y-67740901D01*
X136412704Y-67765185D01*
X136445957Y-67791133D01*
X136477498Y-67818728D01*
X136507302Y-67847950D01*
X136535347Y-67878780D01*
X136561611Y-67911201D01*
X136586071Y-67945194D01*
X136608704Y-67980740D01*
X136629488Y-68017821D01*
X136648399Y-68056419D01*
X136665417Y-68096513D01*
X136680517Y-68138088D01*
X136693677Y-68181122D01*
X136704874Y-68225599D01*
X136714087Y-68271500D01*
X136721292Y-68318805D01*
X136726466Y-68367497D01*
X136729587Y-68417558D01*
X136730632Y-68468967D01*
X136730632Y-69084001D01*
X134821875Y-69084001D01*
X134821875Y-68852734D01*
X135026581Y-68852734D01*
X136525468Y-68852734D01*
X136525468Y-68483622D01*
X136524641Y-68442321D01*
X136522172Y-68402313D01*
X136518080Y-68363598D01*
X136512385Y-68326177D01*
X136505106Y-68290052D01*
X136496262Y-68255224D01*
X136485872Y-68221694D01*
X136473956Y-68189464D01*
X136460532Y-68158535D01*
X136445620Y-68128907D01*
X136429239Y-68100583D01*
X136411408Y-68073563D01*
X136392147Y-68047849D01*
X136371474Y-68023442D01*
X136349409Y-68000343D01*
X136325972Y-67978554D01*
X136301180Y-67958076D01*
X136275054Y-67938910D01*
X136247613Y-67921057D01*
X136218875Y-67904518D01*
X136188861Y-67889296D01*
X136157589Y-67875390D01*
X136125078Y-67862803D01*
X136091348Y-67851536D01*
X136056418Y-67841589D01*
X136020307Y-67832965D01*
X135983034Y-67825664D01*
X135944619Y-67819688D01*
X135905081Y-67815037D01*
X135864438Y-67811714D01*
X135822710Y-67809719D01*
X135779917Y-67809053D01*
X135736739Y-67809720D01*
X135694630Y-67811720D01*
X135653609Y-67815059D01*
X135613697Y-67819738D01*
X135574914Y-67825763D01*
X135537278Y-67833137D01*
X135500811Y-67841863D01*
X135465531Y-67851944D01*
X135431458Y-67863384D01*
X135398613Y-67876187D01*
X135367015Y-67890356D01*
X135336684Y-67905895D01*
X135307640Y-67922807D01*
X135279902Y-67941096D01*
X135253490Y-67960764D01*
X135228424Y-67981817D01*
X135204724Y-68004257D01*
X135182410Y-68028088D01*
X135161501Y-68053313D01*
X135142017Y-68079936D01*
X135123979Y-68107960D01*
X135107405Y-68137389D01*
X135092315Y-68168227D01*
X135078730Y-68200476D01*
X135066669Y-68234141D01*
X135056152Y-68269225D01*
X135047199Y-68305732D01*
X135039829Y-68343664D01*
X135034063Y-68383026D01*
X135029919Y-68423822D01*
X135027418Y-68466053D01*
X135026581Y-68509725D01*
X135026581Y-68852734D01*
X134821875Y-68852734D01*
X134821875Y-68495071D01*
X134822929Y-68441289D01*
X134826078Y-68389006D01*
X134831298Y-68338234D01*
X134838566Y-68288987D01*
X134847858Y-68241279D01*
X134859153Y-68195124D01*
X134872426Y-68150535D01*
X134887655Y-68107526D01*
X134904817Y-68066111D01*
X134923889Y-68026304D01*
X134944847Y-67988118D01*
X134967668Y-67951567D01*
X134992330Y-67916665D01*
X135018809Y-67883426D01*
X135047083Y-67851863D01*
X135077127Y-67821991D01*
X135108920Y-67793822D01*
X135142438Y-67767371D01*
X135177659Y-67742651D01*
X135214558Y-67719677D01*
X135253113Y-67698462D01*
X135293301Y-67679019D01*
X135335099Y-67661362D01*
X135378483Y-67645506D01*
X135423432Y-67631464D01*
X135469921Y-67619249D01*
X135517927Y-67608876D01*
X135567428Y-67600358D01*
X135618401Y-67593709D01*
X135670822Y-67588943D01*
X135724668Y-67586073D01*
X135779917Y-67585113D01*
X135834782Y-67586072D01*
G37*
G36*
X136730632Y-66965958D02*
G01*
X136730632Y-67197225D01*
X134821875Y-67197225D01*
X134821875Y-66965958D01*
X136730632Y-66965958D01*
G37*
G36*
X134821875Y-65766573D02*
G01*
X134821875Y-65535305D01*
X135675503Y-65535305D01*
X135675503Y-64517728D01*
X134821875Y-64517728D01*
X134821875Y-64286461D01*
X136730632Y-64286461D01*
X136730632Y-64517728D01*
X135880209Y-64517728D01*
X135880209Y-65535305D01*
X136730632Y-65535305D01*
X136730632Y-65766573D01*
X134821875Y-65766573D01*
G37*
G36*
X134284693Y-63713101D02*
G01*
X134285002Y-63694641D01*
X134287480Y-63658758D01*
X134292455Y-63624254D01*
X134299943Y-63591126D01*
X134309963Y-63559372D01*
X134322534Y-63528986D01*
X134337672Y-63499967D01*
X134355398Y-63472311D01*
X134375727Y-63446014D01*
X134398680Y-63421074D01*
X134424273Y-63397486D01*
X134452525Y-63375247D01*
X134467653Y-63364633D01*
X134483453Y-63354354D01*
X134499927Y-63344412D01*
X134517077Y-63334805D01*
X134534906Y-63325532D01*
X134553414Y-63316594D01*
X134572606Y-63307990D01*
X134592483Y-63299719D01*
X134613047Y-63291782D01*
X136253443Y-62684075D01*
X136253443Y-62922670D01*
X135112218Y-63317885D01*
X135112218Y-63332540D01*
X136253443Y-63727755D01*
X136253443Y-63966350D01*
X134814089Y-63436954D01*
X134702348Y-63478170D01*
X134682486Y-63485738D01*
X134663756Y-63493422D01*
X134646132Y-63501229D01*
X134629591Y-63509167D01*
X134599654Y-63525469D01*
X134573749Y-63542391D01*
X134551675Y-63559997D01*
X134533234Y-63578352D01*
X134518228Y-63597518D01*
X134506458Y-63617560D01*
X134497725Y-63638541D01*
X134491832Y-63660525D01*
X134488579Y-63683575D01*
X134487767Y-63707756D01*
X134489199Y-63733131D01*
X134492676Y-63759763D01*
X134497999Y-63787717D01*
X134504969Y-63817057D01*
X134310796Y-63873385D01*
X134303193Y-63853064D01*
X134297707Y-63832371D01*
X134293623Y-63812649D01*
X134290054Y-63790502D01*
X134287226Y-63766288D01*
X134285726Y-63746988D01*
X134284865Y-63726880D01*
X134284693Y-63713101D01*
G37*
G36*
X135575342Y-61099820D02*
G01*
X135616164Y-61101988D01*
X135655981Y-61105570D01*
X135694769Y-61110542D01*
X135732506Y-61116876D01*
X135769170Y-61124549D01*
X135804737Y-61133534D01*
X135839187Y-61143807D01*
X135872495Y-61155341D01*
X135904639Y-61168112D01*
X135935597Y-61182094D01*
X135965347Y-61197262D01*
X135993865Y-61213589D01*
X136021130Y-61231052D01*
X136047117Y-61249624D01*
X136071806Y-61269279D01*
X136095174Y-61289994D01*
X136117197Y-61311742D01*
X136137854Y-61334497D01*
X136157121Y-61358235D01*
X136174977Y-61382929D01*
X136191398Y-61408555D01*
X136206363Y-61435088D01*
X136219848Y-61462501D01*
X136231831Y-61490769D01*
X136242289Y-61519867D01*
X136251200Y-61549770D01*
X136258542Y-61580452D01*
X136264292Y-61611888D01*
X136268426Y-61644051D01*
X136270924Y-61676918D01*
X136271761Y-61710462D01*
X136271267Y-61736130D01*
X136269819Y-61760690D01*
X136267466Y-61784169D01*
X136264256Y-61806596D01*
X136260238Y-61828001D01*
X136255463Y-61848412D01*
X136249978Y-61867858D01*
X136243833Y-61886367D01*
X136237077Y-61903969D01*
X136221927Y-61936565D01*
X136204922Y-61965875D01*
X136186453Y-61992130D01*
X136166913Y-62015559D01*
X136146695Y-62036394D01*
X136126191Y-62054864D01*
X136105793Y-62071198D01*
X136085893Y-62085628D01*
X136066885Y-62098383D01*
X136049161Y-62109694D01*
X136033112Y-62119789D01*
X136025839Y-62124454D01*
X136025839Y-62142772D01*
X136730632Y-62142772D01*
X136730632Y-62363049D01*
X134821875Y-62363049D01*
X134821875Y-62150557D01*
X135041693Y-62150557D01*
X135041693Y-62124454D01*
X135025980Y-62114793D01*
X135008465Y-62103878D01*
X134989538Y-62091509D01*
X134969587Y-62077485D01*
X134948999Y-62061603D01*
X134928164Y-62043664D01*
X134907470Y-62023465D01*
X134887305Y-62000806D01*
X134868058Y-61975485D01*
X134850117Y-61947300D01*
X134833870Y-61916052D01*
X134826504Y-61899215D01*
X134819706Y-61881537D01*
X134813527Y-61862992D01*
X134808014Y-61843556D01*
X134803216Y-61823202D01*
X134799182Y-61801907D01*
X134795959Y-61779643D01*
X134793597Y-61756388D01*
X134792410Y-61736566D01*
X134989486Y-61736566D01*
X134990137Y-61761031D01*
X134992075Y-61784795D01*
X134995278Y-61807851D01*
X134999723Y-61830194D01*
X135005388Y-61851821D01*
X135012251Y-61872725D01*
X135020288Y-61892903D01*
X135029479Y-61912349D01*
X135039799Y-61931058D01*
X135051228Y-61949026D01*
X135063742Y-61966248D01*
X135077320Y-61982718D01*
X135091938Y-61998433D01*
X135107575Y-62013386D01*
X135124207Y-62027574D01*
X135141814Y-62040991D01*
X135160371Y-62053633D01*
X135179857Y-62065495D01*
X135200250Y-62076571D01*
X135221527Y-62086857D01*
X135243666Y-62096348D01*
X135266644Y-62105039D01*
X135290439Y-62112926D01*
X135315028Y-62120003D01*
X135340389Y-62126266D01*
X135366501Y-62131709D01*
X135393339Y-62136329D01*
X135420883Y-62140119D01*
X135449109Y-62143076D01*
X135477995Y-62145194D01*
X135507519Y-62146468D01*
X135537659Y-62146894D01*
X135567403Y-62146478D01*
X135596514Y-62145234D01*
X135624973Y-62143163D01*
X135652759Y-62140269D01*
X135679852Y-62136555D01*
X135706230Y-62132023D01*
X135731873Y-62126677D01*
X135756762Y-62120518D01*
X135780875Y-62113551D01*
X135804192Y-62105777D01*
X135826693Y-62097200D01*
X135848356Y-62087823D01*
X135869163Y-62077648D01*
X135889092Y-62066678D01*
X135908122Y-62054916D01*
X135926234Y-62042365D01*
X135943406Y-62029028D01*
X135959619Y-62014908D01*
X135974852Y-62000007D01*
X135989085Y-61984328D01*
X136002296Y-61967875D01*
X136014466Y-61950650D01*
X136025574Y-61932655D01*
X136035599Y-61913895D01*
X136044522Y-61894370D01*
X136052321Y-61874086D01*
X136058977Y-61853043D01*
X136064468Y-61831246D01*
X136068775Y-61808697D01*
X136071877Y-61785399D01*
X136073752Y-61761354D01*
X136074382Y-61736566D01*
X136073699Y-61710789D01*
X136071670Y-61685839D01*
X136068326Y-61661715D01*
X136063698Y-61638415D01*
X136057817Y-61615939D01*
X136050712Y-61594288D01*
X136042416Y-61573460D01*
X136032959Y-61553455D01*
X136022371Y-61534273D01*
X136010684Y-61515912D01*
X135997928Y-61498373D01*
X135984134Y-61481654D01*
X135969333Y-61465757D01*
X135953555Y-61450679D01*
X135936831Y-61436420D01*
X135919193Y-61422981D01*
X135900670Y-61410360D01*
X135881294Y-61398556D01*
X135861096Y-61387571D01*
X135840105Y-61377402D01*
X135818354Y-61368049D01*
X135795872Y-61359513D01*
X135772691Y-61351791D01*
X135748841Y-61344885D01*
X135724353Y-61338793D01*
X135699257Y-61333515D01*
X135673586Y-61329050D01*
X135647369Y-61325399D01*
X135620636Y-61322559D01*
X135593420Y-61320532D01*
X135565751Y-61319316D01*
X135537659Y-61318910D01*
X135509171Y-61319326D01*
X135481089Y-61320572D01*
X135453446Y-61322647D01*
X135426274Y-61325549D01*
X135399605Y-61329277D01*
X135373473Y-61333829D01*
X135347910Y-61339204D01*
X135322949Y-61345400D01*
X135298623Y-61352416D01*
X135274964Y-61360250D01*
X135252005Y-61368901D01*
X135229779Y-61378368D01*
X135208318Y-61388648D01*
X135187655Y-61399740D01*
X135167823Y-61411643D01*
X135148855Y-61424355D01*
X135130782Y-61437874D01*
X135113639Y-61452200D01*
X135097458Y-61467331D01*
X135082270Y-61483264D01*
X135068110Y-61500000D01*
X135055010Y-61517535D01*
X135043002Y-61535869D01*
X135032119Y-61555001D01*
X135022394Y-61574928D01*
X135013860Y-61595648D01*
X135006548Y-61617162D01*
X135000493Y-61639467D01*
X134995727Y-61662561D01*
X134992282Y-61686443D01*
X134990190Y-61711112D01*
X134989486Y-61736566D01*
X134792410Y-61736566D01*
X134792144Y-61732115D01*
X134791649Y-61706799D01*
X134792487Y-61673587D01*
X134794985Y-61641033D01*
X134799122Y-61609161D01*
X134804876Y-61577998D01*
X134812224Y-61547570D01*
X134821146Y-61517902D01*
X134831618Y-61489022D01*
X134843620Y-61460955D01*
X134857130Y-61433727D01*
X134872124Y-61407365D01*
X134888583Y-61381894D01*
X134906483Y-61357340D01*
X134925803Y-61333730D01*
X134946520Y-61311089D01*
X134968614Y-61289445D01*
X134992062Y-61268822D01*
X135016842Y-61249246D01*
X135042933Y-61230745D01*
X135070312Y-61213344D01*
X135098958Y-61197068D01*
X135128849Y-61181945D01*
X135159962Y-61168000D01*
X135192276Y-61155260D01*
X135225770Y-61143750D01*
X135260420Y-61133496D01*
X135296206Y-61124525D01*
X135333105Y-61116862D01*
X135371096Y-61110534D01*
X135410157Y-61105567D01*
X135450265Y-61101987D01*
X135491399Y-61099820D01*
X135533537Y-61099092D01*
X135575342Y-61099820D01*
G37*
G36*
X134821875Y-60764326D02*
G01*
X134821875Y-60544508D01*
X135727710Y-60544508D01*
X135763398Y-60542739D01*
X135797732Y-60537528D01*
X135830580Y-60529016D01*
X135861812Y-60517345D01*
X135891298Y-60502659D01*
X135918906Y-60485099D01*
X135944505Y-60464807D01*
X135967965Y-60441926D01*
X135989155Y-60416598D01*
X136007944Y-60388964D01*
X136024201Y-60359168D01*
X136037796Y-60327351D01*
X136048597Y-60293656D01*
X136056475Y-60258225D01*
X136059276Y-60239903D01*
X136061297Y-60221200D01*
X136062522Y-60202134D01*
X136062933Y-60182723D01*
X136062454Y-60160729D01*
X136061159Y-60139089D01*
X136059263Y-60118372D01*
X136056980Y-60099146D01*
X136053910Y-60078080D01*
X136050463Y-60058614D01*
X136048279Y-60048542D01*
X136271761Y-60048542D01*
X136272944Y-60069135D01*
X136273725Y-60087553D01*
X136274406Y-60107563D01*
X136274944Y-60127846D01*
X136275298Y-60147081D01*
X136275425Y-60163947D01*
X136274305Y-60195861D01*
X136270995Y-60227130D01*
X136265572Y-60257646D01*
X136258108Y-60287302D01*
X136248681Y-60315989D01*
X136237364Y-60343599D01*
X136224234Y-60370024D01*
X136209365Y-60395157D01*
X136192832Y-60418889D01*
X136174710Y-60441113D01*
X136155076Y-60461720D01*
X136134002Y-60480602D01*
X136111566Y-60497651D01*
X136087842Y-60512760D01*
X136062905Y-60525820D01*
X136036830Y-60536723D01*
X136036830Y-60551835D01*
X136253443Y-60551835D01*
X136253443Y-60764326D01*
X134821875Y-60764326D01*
G37*
G36*
X134821875Y-59787966D02*
G01*
X134821875Y-59568147D01*
X136253443Y-59568147D01*
X136253443Y-59787966D01*
X134821875Y-59787966D01*
G37*
G36*
X136492038Y-59676225D02*
G01*
X136493758Y-59652466D01*
X136498748Y-59629800D01*
X136506753Y-59608499D01*
X136517516Y-59588834D01*
X136530781Y-59571077D01*
X136546294Y-59555499D01*
X136563797Y-59542372D01*
X136583035Y-59531969D01*
X136603752Y-59524560D01*
X136625693Y-59520417D01*
X136640873Y-59519604D01*
X136663498Y-59521418D01*
X136685091Y-59526680D01*
X136705389Y-59535117D01*
X136724134Y-59546459D01*
X136741065Y-59560432D01*
X136755921Y-59576767D01*
X136768442Y-59595190D01*
X136778367Y-59615431D01*
X136785437Y-59637217D01*
X136789391Y-59660278D01*
X136790167Y-59676225D01*
X136788435Y-59699877D01*
X136783414Y-59722479D01*
X136775363Y-59743751D01*
X136764543Y-59763414D01*
X136751215Y-59781191D01*
X136735639Y-59796802D01*
X136718075Y-59809970D01*
X136698783Y-59820416D01*
X136678024Y-59827861D01*
X136656059Y-59832027D01*
X136640873Y-59832845D01*
X136618259Y-59831020D01*
X136596698Y-59825730D01*
X136576445Y-59817254D01*
X136557757Y-59805870D01*
X136540889Y-59791856D01*
X136526097Y-59775492D01*
X136513638Y-59757055D01*
X136503766Y-59736825D01*
X136496737Y-59715079D01*
X136492809Y-59692096D01*
X136492038Y-59676225D01*
G37*
G36*
X136730632Y-58188328D02*
G01*
X136025839Y-58188328D01*
X136025839Y-58207104D01*
X136049161Y-58221864D01*
X136066885Y-58233173D01*
X136085893Y-58245925D01*
X136105793Y-58260349D01*
X136126191Y-58276676D01*
X136146695Y-58295133D01*
X136166913Y-58315951D01*
X136186453Y-58339359D01*
X136204922Y-58365587D01*
X136221927Y-58394864D01*
X136237077Y-58427419D01*
X136243833Y-58444997D01*
X136249978Y-58463482D01*
X136255463Y-58482900D01*
X136260238Y-58503282D01*
X136264256Y-58524655D01*
X136267466Y-58547048D01*
X136269819Y-58570491D01*
X136271267Y-58595011D01*
X136271761Y-58620638D01*
X136270924Y-58654222D01*
X136268426Y-58687124D01*
X136264292Y-58719318D01*
X136258542Y-58750779D01*
X136251200Y-58781482D01*
X136242289Y-58811402D01*
X136231831Y-58840514D01*
X136219848Y-58868792D01*
X136206363Y-58896212D01*
X136191398Y-58922747D01*
X136174977Y-58948374D01*
X136157121Y-58973066D01*
X136137854Y-58996800D01*
X136117197Y-59019548D01*
X136095174Y-59041288D01*
X136071806Y-59061992D01*
X136047117Y-59081637D01*
X136021130Y-59100196D01*
X135993865Y-59117645D01*
X135965347Y-59133959D01*
X135935597Y-59149112D01*
X135904639Y-59163080D01*
X135872495Y-59175837D01*
X135839187Y-59187357D01*
X135804737Y-59197617D01*
X135769170Y-59206590D01*
X135732506Y-59214252D01*
X135694769Y-59220577D01*
X135655981Y-59225540D01*
X135616164Y-59229117D01*
X135575342Y-59231281D01*
X135533537Y-59232008D01*
X135491399Y-59231281D01*
X135450265Y-59229118D01*
X135410157Y-59225544D01*
X135371096Y-59220585D01*
X135333105Y-59214268D01*
X135296206Y-59206617D01*
X135260420Y-59197660D01*
X135225770Y-59187422D01*
X135192276Y-59175928D01*
X135159962Y-59163206D01*
X135128849Y-59149280D01*
X135098958Y-59134176D01*
X135070312Y-59117921D01*
X135042933Y-59100541D01*
X135016842Y-59082061D01*
X134992062Y-59062507D01*
X134968614Y-59041906D01*
X134946520Y-59020282D01*
X134925803Y-58997662D01*
X134906483Y-58974073D01*
X134888583Y-58949539D01*
X134872124Y-58924087D01*
X134857130Y-58897742D01*
X134843620Y-58870531D01*
X134831618Y-58842479D01*
X134821146Y-58813613D01*
X134812224Y-58783958D01*
X134804876Y-58753540D01*
X134799122Y-58722386D01*
X134794985Y-58690520D01*
X134792487Y-58657969D01*
X134791649Y-58624759D01*
X134792144Y-58599403D01*
X134792435Y-58594534D01*
X134989486Y-58594534D01*
X134990190Y-58620028D01*
X134992282Y-58644732D01*
X134995727Y-58668645D01*
X135000493Y-58691765D01*
X135006548Y-58714091D01*
X135013860Y-58735621D01*
X135022394Y-58756356D01*
X135032119Y-58776292D01*
X135043002Y-58795430D01*
X135055010Y-58813767D01*
X135068110Y-58831303D01*
X135082270Y-58848037D01*
X135097458Y-58863966D01*
X135113639Y-58879090D01*
X135130782Y-58893407D01*
X135148855Y-58906917D01*
X135167823Y-58919618D01*
X135187655Y-58931508D01*
X135208318Y-58942587D01*
X135229779Y-58952853D01*
X135252005Y-58962305D01*
X135274964Y-58970942D01*
X135298623Y-58978762D01*
X135322949Y-58985764D01*
X135347910Y-58991947D01*
X135373473Y-58997310D01*
X135399605Y-59001851D01*
X135426274Y-59005570D01*
X135453446Y-59008464D01*
X135481089Y-59010533D01*
X135509171Y-59011775D01*
X135537659Y-59012189D01*
X135565751Y-59011785D01*
X135593420Y-59010573D01*
X135620636Y-59008551D01*
X135647369Y-59005720D01*
X135673586Y-59002078D01*
X135699257Y-58997624D01*
X135724353Y-58992358D01*
X135748841Y-58986279D01*
X135772691Y-58979387D01*
X135795872Y-58971679D01*
X135818354Y-58963157D01*
X135840105Y-58953819D01*
X135861096Y-58943664D01*
X135881294Y-58932691D01*
X135900670Y-58920901D01*
X135919193Y-58908291D01*
X135936831Y-58894861D01*
X135953555Y-58880611D01*
X135969333Y-58865540D01*
X135984134Y-58849647D01*
X135997928Y-58832930D01*
X136010684Y-58815391D01*
X136022371Y-58797027D01*
X136032959Y-58777838D01*
X136042416Y-58757823D01*
X136050712Y-58736982D01*
X136057817Y-58715313D01*
X136063698Y-58692816D01*
X136068326Y-58669491D01*
X136071670Y-58645336D01*
X136073699Y-58620351D01*
X136074382Y-58594534D01*
X136073752Y-58569747D01*
X136071877Y-58545706D01*
X136068775Y-58522414D01*
X136064468Y-58499873D01*
X136058977Y-58478086D01*
X136052321Y-58457056D01*
X136044522Y-58436785D01*
X136035599Y-58417277D01*
X136025574Y-58398533D01*
X136014466Y-58380556D01*
X136002296Y-58363350D01*
X135989085Y-58346916D01*
X135974852Y-58331258D01*
X135959619Y-58316378D01*
X135943406Y-58302279D01*
X135926234Y-58288963D01*
X135908122Y-58276434D01*
X135889092Y-58264694D01*
X135869163Y-58253745D01*
X135848356Y-58243590D01*
X135826693Y-58234232D01*
X135804192Y-58225674D01*
X135780875Y-58217919D01*
X135756762Y-58210968D01*
X135731873Y-58204825D01*
X135706230Y-58199492D01*
X135679852Y-58194973D01*
X135652759Y-58191269D01*
X135624973Y-58188383D01*
X135596514Y-58186319D01*
X135567403Y-58185078D01*
X135537659Y-58184664D01*
X135507519Y-58185089D01*
X135477995Y-58186359D01*
X135449109Y-58188471D01*
X135420883Y-58191419D01*
X135393339Y-58195199D01*
X135366501Y-58199806D01*
X135340389Y-58205236D01*
X135315028Y-58211483D01*
X135290439Y-58218543D01*
X135266644Y-58226412D01*
X135243666Y-58235085D01*
X135221527Y-58244556D01*
X135200250Y-58254822D01*
X135179857Y-58265877D01*
X135160371Y-58277717D01*
X135141814Y-58290337D01*
X135124207Y-58303733D01*
X135107575Y-58317900D01*
X135091938Y-58332832D01*
X135077320Y-58348526D01*
X135063742Y-58364977D01*
X135051228Y-58382180D01*
X135039799Y-58400130D01*
X135029479Y-58418822D01*
X135020288Y-58438253D01*
X135012251Y-58458417D01*
X135005388Y-58479309D01*
X134999723Y-58500925D01*
X134995278Y-58523260D01*
X134992075Y-58546310D01*
X134990137Y-58570070D01*
X134989486Y-58594534D01*
X134792435Y-58594534D01*
X134793597Y-58575094D01*
X134795959Y-58551808D01*
X134799182Y-58529520D01*
X134803216Y-58508203D01*
X134808014Y-58487832D01*
X134813527Y-58468382D01*
X134819706Y-58449827D01*
X134826504Y-58432143D01*
X134833870Y-58415303D01*
X134850117Y-58384056D01*
X134868058Y-58355883D01*
X134887305Y-58330580D01*
X134907470Y-58307945D01*
X134928164Y-58287773D01*
X134948999Y-58269862D01*
X134969587Y-58254009D01*
X134989538Y-58240009D01*
X135008465Y-58227661D01*
X135025980Y-58216760D01*
X135041693Y-58207104D01*
X135041693Y-58181000D01*
X134821875Y-58181000D01*
X134821875Y-57968509D01*
X136730632Y-57968509D01*
X136730632Y-58188328D01*
G37*
G36*
X136730632Y-55993348D02*
G01*
X136730632Y-56231943D01*
X134821875Y-56932614D01*
X134821875Y-56690356D01*
X135362262Y-56498473D01*
X135362262Y-55799175D01*
X135567426Y-55799175D01*
X135567426Y-56425658D01*
X136428382Y-56119743D01*
X136428382Y-56105089D01*
X135567426Y-55799175D01*
X135362262Y-55799175D01*
X135362262Y-55726360D01*
X134821875Y-55534477D01*
X134821875Y-55292218D01*
X136730632Y-55993348D01*
G37*
G36*
X136730632Y-54046580D02*
G01*
X136025839Y-54046580D01*
X136025839Y-54065356D01*
X136049161Y-54080116D01*
X136066885Y-54091425D01*
X136085893Y-54104177D01*
X136105793Y-54118601D01*
X136126191Y-54134927D01*
X136146695Y-54153385D01*
X136166913Y-54174203D01*
X136186453Y-54197611D01*
X136204922Y-54223839D01*
X136221927Y-54253116D01*
X136237077Y-54285671D01*
X136243833Y-54303249D01*
X136249978Y-54321734D01*
X136255463Y-54341152D01*
X136260238Y-54361534D01*
X136264256Y-54382907D01*
X136267466Y-54405300D01*
X136269819Y-54428743D01*
X136271267Y-54453263D01*
X136271761Y-54478889D01*
X136270924Y-54512474D01*
X136268426Y-54545376D01*
X136264292Y-54577570D01*
X136258542Y-54609031D01*
X136251200Y-54639734D01*
X136242289Y-54669654D01*
X136231831Y-54698766D01*
X136219848Y-54727044D01*
X136206363Y-54754463D01*
X136191398Y-54780999D01*
X136174977Y-54806626D01*
X136157121Y-54831318D01*
X136137854Y-54855052D01*
X136117197Y-54877800D01*
X136095174Y-54899540D01*
X136071806Y-54920244D01*
X136047117Y-54939888D01*
X136021130Y-54958448D01*
X135993865Y-54975897D01*
X135965347Y-54992211D01*
X135935597Y-55007364D01*
X135904639Y-55021332D01*
X135872495Y-55034088D01*
X135839187Y-55045609D01*
X135804737Y-55055869D01*
X135769170Y-55064842D01*
X135732506Y-55072504D01*
X135694769Y-55078829D01*
X135655981Y-55083792D01*
X135616164Y-55087369D01*
X135575342Y-55089533D01*
X135533537Y-55090260D01*
X135491399Y-55089533D01*
X135450265Y-55087370D01*
X135410157Y-55083796D01*
X135371096Y-55078837D01*
X135333105Y-55072519D01*
X135296206Y-55064869D01*
X135260420Y-55055912D01*
X135225770Y-55045674D01*
X135192276Y-55034180D01*
X135159962Y-55021458D01*
X135128849Y-55007532D01*
X135098958Y-54992428D01*
X135070312Y-54976173D01*
X135042933Y-54958793D01*
X135016842Y-54940313D01*
X134992062Y-54920759D01*
X134968614Y-54900157D01*
X134946520Y-54878534D01*
X134925803Y-54855914D01*
X134906483Y-54832325D01*
X134888583Y-54807791D01*
X134872124Y-54782338D01*
X134857130Y-54755994D01*
X134843620Y-54728783D01*
X134831618Y-54700731D01*
X134821146Y-54671865D01*
X134812224Y-54642210D01*
X134804876Y-54611792D01*
X134799122Y-54580638D01*
X134794985Y-54548772D01*
X134792487Y-54516221D01*
X134791649Y-54483011D01*
X134792144Y-54457655D01*
X134792435Y-54452786D01*
X134989486Y-54452786D01*
X134990190Y-54478280D01*
X134992282Y-54502984D01*
X134995727Y-54526897D01*
X135000493Y-54550017D01*
X135006548Y-54572343D01*
X135013860Y-54593873D01*
X135022394Y-54614608D01*
X135032119Y-54634544D01*
X135043002Y-54653682D01*
X135055010Y-54672019D01*
X135068110Y-54689555D01*
X135082270Y-54706288D01*
X135097458Y-54722218D01*
X135113639Y-54737342D01*
X135130782Y-54751659D01*
X135148855Y-54765169D01*
X135167823Y-54777869D01*
X135187655Y-54789760D01*
X135208318Y-54800839D01*
X135229779Y-54811105D01*
X135252005Y-54820557D01*
X135274964Y-54829193D01*
X135298623Y-54837014D01*
X135322949Y-54844016D01*
X135347910Y-54850199D01*
X135373473Y-54855562D01*
X135399605Y-54860103D01*
X135426274Y-54863822D01*
X135453446Y-54866716D01*
X135481089Y-54868785D01*
X135509171Y-54870027D01*
X135537659Y-54870441D01*
X135565751Y-54870037D01*
X135593420Y-54868825D01*
X135620636Y-54866803D01*
X135647369Y-54863972D01*
X135673586Y-54860330D01*
X135699257Y-54855876D01*
X135724353Y-54850610D01*
X135748841Y-54844531D01*
X135772691Y-54837638D01*
X135795872Y-54829931D01*
X135818354Y-54821409D01*
X135840105Y-54812071D01*
X135861096Y-54801916D01*
X135881294Y-54790943D01*
X135900670Y-54779152D01*
X135919193Y-54766543D01*
X135936831Y-54753113D01*
X135953555Y-54738863D01*
X135969333Y-54723792D01*
X135984134Y-54707898D01*
X135997928Y-54691182D01*
X136010684Y-54673643D01*
X136022371Y-54655279D01*
X136032959Y-54636090D01*
X136042416Y-54616075D01*
X136050712Y-54595234D01*
X136057817Y-54573565D01*
X136063698Y-54551068D01*
X136068326Y-54527743D01*
X136071670Y-54503588D01*
X136073699Y-54478602D01*
X136074382Y-54452786D01*
X136073752Y-54427999D01*
X136071877Y-54403958D01*
X136068775Y-54380666D01*
X136064468Y-54358125D01*
X136058977Y-54336338D01*
X136052321Y-54315308D01*
X136044522Y-54295037D01*
X136035599Y-54275529D01*
X136025574Y-54256785D01*
X136014466Y-54238808D01*
X136002296Y-54221602D01*
X135989085Y-54205168D01*
X135974852Y-54189510D01*
X135959619Y-54174630D01*
X135943406Y-54160531D01*
X135926234Y-54147215D01*
X135908122Y-54134686D01*
X135889092Y-54122945D01*
X135869163Y-54111997D01*
X135848356Y-54101842D01*
X135826693Y-54092484D01*
X135804192Y-54083926D01*
X135780875Y-54076171D01*
X135756762Y-54069220D01*
X135731873Y-54063077D01*
X135706230Y-54057744D01*
X135679852Y-54053224D01*
X135652759Y-54049521D01*
X135624973Y-54046635D01*
X135596514Y-54044571D01*
X135567403Y-54043330D01*
X135537659Y-54042916D01*
X135507519Y-54043341D01*
X135477995Y-54044611D01*
X135449109Y-54046723D01*
X135420883Y-54049671D01*
X135393339Y-54053451D01*
X135366501Y-54058058D01*
X135340389Y-54063488D01*
X135315028Y-54069735D01*
X135290439Y-54076795D01*
X135266644Y-54084664D01*
X135243666Y-54093337D01*
X135221527Y-54102808D01*
X135200250Y-54113074D01*
X135179857Y-54124129D01*
X135160371Y-54135969D01*
X135141814Y-54148589D01*
X135124207Y-54161985D01*
X135107575Y-54176151D01*
X135091938Y-54191084D01*
X135077320Y-54206778D01*
X135063742Y-54223229D01*
X135051228Y-54240432D01*
X135039799Y-54258382D01*
X135029479Y-54277074D01*
X135020288Y-54296505D01*
X135012251Y-54316669D01*
X135005388Y-54337561D01*
X134999723Y-54359177D01*
X134995278Y-54381512D01*
X134992075Y-54404562D01*
X134990137Y-54428322D01*
X134989486Y-54452786D01*
X134792435Y-54452786D01*
X134793597Y-54433346D01*
X134795959Y-54410060D01*
X134799182Y-54387772D01*
X134803216Y-54366454D01*
X134808014Y-54346084D01*
X134813527Y-54326634D01*
X134819706Y-54308079D01*
X134826504Y-54290395D01*
X134833870Y-54273555D01*
X134850117Y-54242308D01*
X134868058Y-54214135D01*
X134887305Y-54188832D01*
X134907470Y-54166196D01*
X134928164Y-54146025D01*
X134948999Y-54128114D01*
X134969587Y-54112260D01*
X134989538Y-54098261D01*
X135008465Y-54085913D01*
X135025980Y-54075012D01*
X135041693Y-54065356D01*
X135041693Y-54039252D01*
X134821875Y-54039252D01*
X134821875Y-53826761D01*
X136730632Y-53826761D01*
X136730632Y-54046580D01*
G37*
G36*
X135806269Y-52318340D02*
G01*
X135845438Y-52321278D01*
X135882378Y-52326060D01*
X135917151Y-52332593D01*
X135949822Y-52340783D01*
X135980455Y-52350537D01*
X136009114Y-52361762D01*
X136035864Y-52374363D01*
X136060768Y-52388247D01*
X136083891Y-52403321D01*
X136105297Y-52419492D01*
X136125050Y-52436665D01*
X136143214Y-52454748D01*
X136159853Y-52473646D01*
X136175032Y-52493267D01*
X136188814Y-52513517D01*
X136201264Y-52534302D01*
X136212446Y-52555529D01*
X136222424Y-52577104D01*
X136231262Y-52598934D01*
X136239024Y-52620925D01*
X136245775Y-52642984D01*
X136251578Y-52665017D01*
X136256498Y-52686932D01*
X136260599Y-52708633D01*
X136263946Y-52730029D01*
X136266601Y-52751025D01*
X136268630Y-52771527D01*
X136270096Y-52791443D01*
X136271064Y-52810679D01*
X136271597Y-52829142D01*
X136271761Y-52846737D01*
X136271539Y-52867085D01*
X136270859Y-52887580D01*
X136269701Y-52908191D01*
X136268045Y-52928890D01*
X136265869Y-52949644D01*
X136263155Y-52970425D01*
X136259880Y-52991202D01*
X136256026Y-53011944D01*
X136251571Y-53032622D01*
X136246496Y-53053206D01*
X136240779Y-53073664D01*
X136234401Y-53093968D01*
X136227341Y-53114087D01*
X136219579Y-53133990D01*
X136211094Y-53153648D01*
X136201866Y-53173030D01*
X136191874Y-53192106D01*
X136181099Y-53210846D01*
X136169520Y-53229220D01*
X136157116Y-53247197D01*
X136143867Y-53264748D01*
X136129753Y-53281842D01*
X136114753Y-53298448D01*
X136098847Y-53314538D01*
X136082015Y-53330080D01*
X136064236Y-53345045D01*
X136045490Y-53359402D01*
X136025756Y-53373121D01*
X136005014Y-53386171D01*
X135983244Y-53398524D01*
X135960426Y-53410147D01*
X135936538Y-53421013D01*
X135861891Y-53212185D01*
X135881525Y-53202303D01*
X135901157Y-53190833D01*
X135920612Y-53177731D01*
X135939715Y-53162955D01*
X135958292Y-53146461D01*
X135976169Y-53128207D01*
X135993171Y-53108150D01*
X136009124Y-53086247D01*
X136023853Y-53062455D01*
X136037184Y-53036731D01*
X136048943Y-53009032D01*
X136058955Y-52979315D01*
X136067046Y-52947537D01*
X136073041Y-52913655D01*
X136076766Y-52877627D01*
X136077722Y-52858795D01*
X136078046Y-52839409D01*
X136077733Y-52820735D01*
X136075246Y-52785194D01*
X136070314Y-52752060D01*
X136062984Y-52721327D01*
X136053299Y-52692991D01*
X136041304Y-52667046D01*
X136027046Y-52643486D01*
X136010568Y-52622306D01*
X135991915Y-52603501D01*
X135971133Y-52587065D01*
X135948266Y-52572994D01*
X135923359Y-52561281D01*
X135896458Y-52551921D01*
X135867607Y-52544909D01*
X135836851Y-52540240D01*
X135804236Y-52537908D01*
X135787244Y-52537617D01*
X135779917Y-52537617D01*
X135761310Y-52538894D01*
X135737964Y-52545702D01*
X135719403Y-52558575D01*
X135704844Y-52577734D01*
X135693507Y-52603397D01*
X135687353Y-52624228D01*
X135682052Y-52648112D01*
X135677374Y-52675115D01*
X135673085Y-52705302D01*
X135668956Y-52738738D01*
X135664754Y-52775488D01*
X135662554Y-52795125D01*
X135660249Y-52815616D01*
X135657809Y-52836968D01*
X135655208Y-52859189D01*
X135652414Y-52882287D01*
X135649400Y-52906271D01*
X135646060Y-52931274D01*
X135642535Y-52956357D01*
X135638781Y-52981462D01*
X135634752Y-53006532D01*
X135630405Y-53031510D01*
X135625693Y-53056338D01*
X135620571Y-53080959D01*
X135614996Y-53105317D01*
X135608921Y-53129353D01*
X135602303Y-53153010D01*
X135595095Y-53176232D01*
X135587254Y-53198961D01*
X135578733Y-53221139D01*
X135569489Y-53242709D01*
X135559476Y-53263615D01*
X135548650Y-53283798D01*
X135536964Y-53303201D01*
X135524375Y-53321768D01*
X135510838Y-53339441D01*
X135496307Y-53356163D01*
X135480737Y-53371876D01*
X135464084Y-53386523D01*
X135446303Y-53400047D01*
X135427349Y-53412390D01*
X135407176Y-53423496D01*
X135385740Y-53433307D01*
X135362996Y-53441766D01*
X135338899Y-53448815D01*
X135313404Y-53454397D01*
X135286466Y-53458455D01*
X135258040Y-53460932D01*
X135228081Y-53461771D01*
X135202200Y-53461142D01*
X135177027Y-53459277D01*
X135152569Y-53456203D01*
X135128834Y-53451951D01*
X135105829Y-53446550D01*
X135083562Y-53440030D01*
X135062040Y-53432418D01*
X135041271Y-53423746D01*
X135021262Y-53414042D01*
X135002020Y-53403336D01*
X134983553Y-53391656D01*
X134965868Y-53379033D01*
X134948974Y-53365495D01*
X134932877Y-53351073D01*
X134917584Y-53335795D01*
X134903104Y-53319690D01*
X134889444Y-53302789D01*
X134876611Y-53285120D01*
X134864613Y-53266712D01*
X134853456Y-53247596D01*
X134843150Y-53227800D01*
X134833700Y-53207354D01*
X134825115Y-53186288D01*
X134817402Y-53164629D01*
X134810569Y-53142409D01*
X134804622Y-53119655D01*
X134799570Y-53096399D01*
X134795420Y-53072668D01*
X134792178Y-53048492D01*
X134789854Y-53023901D01*
X134788454Y-52998924D01*
X134787986Y-52973590D01*
X134788374Y-52950539D01*
X134788904Y-52940160D01*
X134985823Y-52940160D01*
X134986739Y-52972378D01*
X134989485Y-53003354D01*
X134994055Y-53032972D01*
X135000441Y-53061117D01*
X135008639Y-53087673D01*
X135018642Y-53112526D01*
X135030445Y-53135559D01*
X135044040Y-53156658D01*
X135059423Y-53175706D01*
X135076586Y-53192590D01*
X135095525Y-53207192D01*
X135116232Y-53219398D01*
X135138703Y-53229092D01*
X135162930Y-53236160D01*
X135188909Y-53240485D01*
X135216632Y-53241952D01*
X135246808Y-53240193D01*
X135274395Y-53235045D01*
X135299519Y-53226707D01*
X135322305Y-53215376D01*
X135342881Y-53201249D01*
X135361371Y-53184523D01*
X135377902Y-53165396D01*
X135392601Y-53144064D01*
X135405594Y-53120725D01*
X135417005Y-53095576D01*
X135426963Y-53068815D01*
X135435592Y-53040638D01*
X135443019Y-53011243D01*
X135449370Y-52980826D01*
X135454771Y-52949586D01*
X135459348Y-52917720D01*
X135461587Y-52898463D01*
X135464185Y-52876086D01*
X135467149Y-52851129D01*
X135470482Y-52824132D01*
X135474192Y-52795635D01*
X135478282Y-52766179D01*
X135482759Y-52736302D01*
X135487627Y-52706545D01*
X135492893Y-52677448D01*
X135498561Y-52649552D01*
X135504637Y-52623396D01*
X135511126Y-52599519D01*
X135518034Y-52578463D01*
X135525365Y-52560768D01*
X135537170Y-52541706D01*
X135541322Y-52537617D01*
X135339822Y-52537617D01*
X135306338Y-52539270D01*
X135273201Y-52544207D01*
X135240661Y-52552397D01*
X135208968Y-52563806D01*
X135178373Y-52578403D01*
X135149126Y-52596156D01*
X135121476Y-52617033D01*
X135095675Y-52641000D01*
X135071971Y-52668027D01*
X135050617Y-52698080D01*
X135040899Y-52714232D01*
X135031861Y-52731128D01*
X135023536Y-52748765D01*
X135015955Y-52767138D01*
X135009148Y-52786244D01*
X135003147Y-52806079D01*
X134997984Y-52826638D01*
X134993689Y-52847917D01*
X134990294Y-52869913D01*
X134987831Y-52892622D01*
X134986330Y-52916038D01*
X134985823Y-52940160D01*
X134788904Y-52940160D01*
X134789516Y-52928180D01*
X134791380Y-52906506D01*
X134793934Y-52885512D01*
X134797146Y-52865190D01*
X134800985Y-52845536D01*
X134805417Y-52826543D01*
X134810411Y-52808204D01*
X134815936Y-52790514D01*
X134828446Y-52757056D01*
X134842692Y-52726119D01*
X134858417Y-52697655D01*
X134875365Y-52671614D01*
X134893280Y-52647947D01*
X134911905Y-52626606D01*
X134930984Y-52607541D01*
X134950261Y-52590704D01*
X134969480Y-52576045D01*
X134988384Y-52563516D01*
X135006717Y-52553067D01*
X135015590Y-52548608D01*
X135015590Y-52537617D01*
X134821875Y-52537617D01*
X134821875Y-52317340D01*
X135764805Y-52317340D01*
X135806269Y-52318340D01*
G37*
G36*
X135575342Y-50651569D02*
G01*
X135616164Y-50653737D01*
X135655981Y-50657319D01*
X135694769Y-50662291D01*
X135732506Y-50668625D01*
X135769170Y-50676298D01*
X135804737Y-50685283D01*
X135839187Y-50695556D01*
X135872495Y-50707090D01*
X135904639Y-50719861D01*
X135935597Y-50733843D01*
X135965347Y-50749010D01*
X135993865Y-50765338D01*
X136021130Y-50782801D01*
X136047117Y-50801373D01*
X136071806Y-50821028D01*
X136095174Y-50841743D01*
X136117197Y-50863490D01*
X136137854Y-50886246D01*
X136157121Y-50909984D01*
X136174977Y-50934678D01*
X136191398Y-50960304D01*
X136206363Y-50986837D01*
X136219848Y-51014250D01*
X136231831Y-51042518D01*
X136242289Y-51071616D01*
X136251200Y-51101519D01*
X136258542Y-51132201D01*
X136264292Y-51163637D01*
X136268426Y-51195800D01*
X136270924Y-51228667D01*
X136271761Y-51262211D01*
X136271267Y-51287879D01*
X136269819Y-51312439D01*
X136267466Y-51335918D01*
X136264256Y-51358345D01*
X136260238Y-51379750D01*
X136255463Y-51400161D01*
X136249978Y-51419607D01*
X136243833Y-51438116D01*
X136237077Y-51455718D01*
X136221927Y-51488313D01*
X136204922Y-51517624D01*
X136186453Y-51543879D01*
X136166913Y-51567308D01*
X136146695Y-51588143D01*
X136126191Y-51606613D01*
X136105793Y-51622947D01*
X136085893Y-51637377D01*
X136066885Y-51650132D01*
X136049161Y-51661442D01*
X136033112Y-51671538D01*
X136025839Y-51676203D01*
X136025839Y-51702306D01*
X136253443Y-51702306D01*
X136253443Y-51914798D01*
X134284693Y-51914798D01*
X134284693Y-51694979D01*
X135041693Y-51694979D01*
X135041693Y-51676203D01*
X135025980Y-51666546D01*
X135008465Y-51655646D01*
X134989538Y-51643297D01*
X134969587Y-51629298D01*
X134948999Y-51613445D01*
X134928164Y-51595534D01*
X134907470Y-51575362D01*
X134887305Y-51552727D01*
X134868058Y-51527424D01*
X134850117Y-51499250D01*
X134833870Y-51468003D01*
X134826504Y-51451164D01*
X134819706Y-51433479D01*
X134813527Y-51414925D01*
X134808014Y-51395475D01*
X134803216Y-51375104D01*
X134799182Y-51353787D01*
X134795959Y-51331498D01*
X134793597Y-51308212D01*
X134792408Y-51288315D01*
X134989486Y-51288315D01*
X134990137Y-51312780D01*
X134992075Y-51336544D01*
X134995278Y-51359600D01*
X134999723Y-51381943D01*
X135005388Y-51403570D01*
X135012251Y-51424474D01*
X135020288Y-51444652D01*
X135029479Y-51464098D01*
X135039799Y-51482807D01*
X135051228Y-51500775D01*
X135063742Y-51517997D01*
X135077320Y-51534467D01*
X135091938Y-51550182D01*
X135107575Y-51565135D01*
X135124207Y-51579323D01*
X135141814Y-51592740D01*
X135160371Y-51605382D01*
X135179857Y-51617244D01*
X135200250Y-51628320D01*
X135221527Y-51638606D01*
X135243666Y-51648097D01*
X135266644Y-51656788D01*
X135290439Y-51664675D01*
X135315028Y-51671752D01*
X135340389Y-51678015D01*
X135366501Y-51683458D01*
X135393339Y-51688078D01*
X135420883Y-51691868D01*
X135449109Y-51694825D01*
X135477995Y-51696942D01*
X135507519Y-51698217D01*
X135537659Y-51698643D01*
X135567403Y-51698227D01*
X135596514Y-51696983D01*
X135624973Y-51694912D01*
X135652759Y-51692018D01*
X135679852Y-51688304D01*
X135706230Y-51683772D01*
X135731873Y-51678426D01*
X135756762Y-51672267D01*
X135780875Y-51665300D01*
X135804192Y-51657526D01*
X135826693Y-51648949D01*
X135848356Y-51639572D01*
X135869163Y-51629397D01*
X135889092Y-51618427D01*
X135908122Y-51606665D01*
X135926234Y-51594114D01*
X135943406Y-51580777D01*
X135959619Y-51566657D01*
X135974852Y-51551756D01*
X135989085Y-51536077D01*
X136002296Y-51519624D01*
X136014466Y-51502399D01*
X136025574Y-51484404D01*
X136035599Y-51465644D01*
X136044522Y-51446119D01*
X136052321Y-51425835D01*
X136058977Y-51404792D01*
X136064468Y-51382995D01*
X136068775Y-51360446D01*
X136071877Y-51337147D01*
X136073752Y-51313103D01*
X136074382Y-51288315D01*
X136073699Y-51262540D01*
X136071670Y-51237593D01*
X136068326Y-51213475D01*
X136063698Y-51190183D01*
X136057817Y-51167718D01*
X136050712Y-51146079D01*
X136042416Y-51125265D01*
X136032959Y-51105276D01*
X136022371Y-51086110D01*
X136010684Y-51067767D01*
X135997928Y-51050247D01*
X135984134Y-51033548D01*
X135969333Y-51017671D01*
X135953555Y-51002614D01*
X135936831Y-50988377D01*
X135919193Y-50974959D01*
X135900670Y-50962359D01*
X135881294Y-50950577D01*
X135861096Y-50939612D01*
X135840105Y-50929464D01*
X135818354Y-50920131D01*
X135795872Y-50911613D01*
X135772691Y-50903910D01*
X135748841Y-50897020D01*
X135724353Y-50890944D01*
X135699257Y-50885680D01*
X135673586Y-50881227D01*
X135647369Y-50877586D01*
X135620636Y-50874755D01*
X135593420Y-50872734D01*
X135565751Y-50871521D01*
X135537659Y-50871117D01*
X135509171Y-50871532D01*
X135481089Y-50872774D01*
X135453446Y-50874842D01*
X135426274Y-50877736D01*
X135399605Y-50881454D01*
X135373473Y-50885994D01*
X135347910Y-50891355D01*
X135322949Y-50897536D01*
X135298623Y-50904535D01*
X135274964Y-50912351D01*
X135252005Y-50920983D01*
X135229779Y-50930430D01*
X135208318Y-50940689D01*
X135187655Y-50951760D01*
X135167823Y-50963642D01*
X135148855Y-50976333D01*
X135130782Y-50989831D01*
X135113639Y-51004135D01*
X135097458Y-51019245D01*
X135082270Y-51035158D01*
X135068110Y-51051874D01*
X135055010Y-51069391D01*
X135043002Y-51087707D01*
X135032119Y-51106821D01*
X135022394Y-51126733D01*
X135013860Y-51147440D01*
X135006548Y-51168941D01*
X135000493Y-51191235D01*
X134995727Y-51214321D01*
X134992282Y-51238197D01*
X134990190Y-51262862D01*
X134989486Y-51288315D01*
X134792408Y-51288315D01*
X134792144Y-51283904D01*
X134791649Y-51258548D01*
X134792487Y-51225336D01*
X134794985Y-51192782D01*
X134799122Y-51160910D01*
X134804876Y-51129747D01*
X134812224Y-51099319D01*
X134821146Y-51069651D01*
X134831618Y-51040771D01*
X134843620Y-51012704D01*
X134857130Y-50985476D01*
X134872124Y-50959114D01*
X134888583Y-50933643D01*
X134906483Y-50909089D01*
X134925803Y-50885479D01*
X134946520Y-50862838D01*
X134968614Y-50841194D01*
X134992062Y-50820570D01*
X135016842Y-50800995D01*
X135042933Y-50782494D01*
X135070312Y-50765093D01*
X135098958Y-50748817D01*
X135128849Y-50733694D01*
X135159962Y-50719749D01*
X135192276Y-50707009D01*
X135225770Y-50695499D01*
X135260420Y-50685245D01*
X135296206Y-50676274D01*
X135333105Y-50668611D01*
X135371096Y-50662283D01*
X135410157Y-50657316D01*
X135450265Y-50653736D01*
X135491399Y-50651569D01*
X135533537Y-50650841D01*
X135575342Y-50651569D01*
G37*
G36*
X136253443Y-49692798D02*
G01*
X136253443Y-49998712D01*
X136595993Y-49998712D01*
X136595993Y-50218531D01*
X136253443Y-50218531D01*
X136253443Y-50434686D01*
X136066597Y-50434686D01*
X136066597Y-50218531D01*
X135172210Y-50218531D01*
X135149152Y-50217949D01*
X135126859Y-50216228D01*
X135105329Y-50213408D01*
X135084560Y-50209528D01*
X135064550Y-50204629D01*
X135045296Y-50198749D01*
X135026797Y-50191928D01*
X135009049Y-50184206D01*
X134992052Y-50175621D01*
X134975803Y-50166214D01*
X134960299Y-50156024D01*
X134945539Y-50145091D01*
X134918239Y-50121151D01*
X134893888Y-50094711D01*
X134872467Y-50066087D01*
X134853958Y-50035595D01*
X134838345Y-50003550D01*
X134825610Y-49970269D01*
X134815735Y-49936068D01*
X134808703Y-49901262D01*
X134804497Y-49866168D01*
X134803098Y-49831101D01*
X134803470Y-49808824D01*
X134804526Y-49788079D01*
X134806179Y-49768826D01*
X134809157Y-49745411D01*
X134812828Y-49724491D01*
X134816984Y-49705973D01*
X134822541Y-49686066D01*
X134829202Y-49666695D01*
X135026581Y-49711574D01*
X135022864Y-49730198D01*
X135019711Y-49748955D01*
X135017401Y-49768415D01*
X135016084Y-49787252D01*
X135015590Y-49808661D01*
X135016479Y-49835679D01*
X135019565Y-49862082D01*
X135025476Y-49887423D01*
X135034837Y-49911258D01*
X135048277Y-49933140D01*
X135066422Y-49952622D01*
X135081443Y-49964057D01*
X135099020Y-49974096D01*
X135119338Y-49982605D01*
X135142584Y-49989454D01*
X135168943Y-49994509D01*
X135198601Y-49997640D01*
X135231745Y-49998712D01*
X136066597Y-49998712D01*
X136066597Y-49692798D01*
X136253443Y-49692798D01*
G37*
G36*
X135604930Y-48185669D02*
G01*
X135651861Y-48188383D01*
X135696801Y-48192831D01*
X135739780Y-48198951D01*
X135780829Y-48206682D01*
X135819979Y-48215962D01*
X135857260Y-48226731D01*
X135892703Y-48238926D01*
X135926339Y-48252486D01*
X135958198Y-48267350D01*
X135988312Y-48283457D01*
X136016710Y-48300744D01*
X136043424Y-48319150D01*
X136068485Y-48338614D01*
X136091922Y-48359075D01*
X136113767Y-48380470D01*
X136134050Y-48402739D01*
X136152802Y-48425819D01*
X136170053Y-48449651D01*
X136185835Y-48474171D01*
X136200179Y-48499319D01*
X136213114Y-48525033D01*
X136224671Y-48551251D01*
X136234881Y-48577913D01*
X136243776Y-48604957D01*
X136251385Y-48632320D01*
X136257739Y-48659943D01*
X136262869Y-48687762D01*
X136266805Y-48715718D01*
X136269579Y-48743748D01*
X136271221Y-48771791D01*
X136271761Y-48799785D01*
X136270871Y-48835762D01*
X136268223Y-48870949D01*
X136263848Y-48905322D01*
X136257776Y-48938858D01*
X136250040Y-48971535D01*
X136240671Y-49003328D01*
X136229699Y-49034217D01*
X136217157Y-49064176D01*
X136203075Y-49093183D01*
X136187485Y-49121216D01*
X136170418Y-49148250D01*
X136151905Y-49174263D01*
X136131977Y-49199232D01*
X136110667Y-49223134D01*
X136088004Y-49245946D01*
X136064021Y-49267644D01*
X136038749Y-49288206D01*
X136012218Y-49307608D01*
X135984461Y-49325828D01*
X135955508Y-49342843D01*
X135925391Y-49358628D01*
X135894141Y-49373162D01*
X135861789Y-49386422D01*
X135828367Y-49398383D01*
X135793906Y-49409024D01*
X135758437Y-49418320D01*
X135721992Y-49426250D01*
X135684601Y-49432790D01*
X135646296Y-49437916D01*
X135607108Y-49441606D01*
X135567069Y-49443838D01*
X135526210Y-49444586D01*
X135485382Y-49443847D01*
X135445435Y-49441641D01*
X135406396Y-49437985D01*
X135368291Y-49432896D01*
X135331149Y-49426391D01*
X135294997Y-49418486D01*
X135259861Y-49409200D01*
X135225770Y-49398548D01*
X135192749Y-49386547D01*
X135160828Y-49373215D01*
X135130032Y-49358569D01*
X135100389Y-49342625D01*
X135071927Y-49325401D01*
X135044672Y-49306912D01*
X135018652Y-49287178D01*
X134993894Y-49266213D01*
X134970425Y-49244035D01*
X134948273Y-49220662D01*
X134927465Y-49196109D01*
X134908028Y-49170395D01*
X134889990Y-49143535D01*
X134873376Y-49115547D01*
X134858216Y-49086448D01*
X134844536Y-49056255D01*
X134832363Y-49024984D01*
X134821725Y-48992653D01*
X134812649Y-48959278D01*
X134805162Y-48924877D01*
X134799291Y-48889466D01*
X134795064Y-48853063D01*
X134792508Y-48815683D01*
X134791649Y-48777346D01*
X134792074Y-48750314D01*
X134793338Y-48723754D01*
X134795427Y-48697678D01*
X134798329Y-48672097D01*
X134802029Y-48647025D01*
X134806514Y-48622473D01*
X134811769Y-48598453D01*
X134817782Y-48574979D01*
X134824537Y-48552063D01*
X134832022Y-48529716D01*
X134840223Y-48507951D01*
X134849126Y-48486781D01*
X134858718Y-48466217D01*
X134868984Y-48446273D01*
X134879910Y-48426960D01*
X134891484Y-48408291D01*
X134903691Y-48390278D01*
X134916517Y-48372933D01*
X134929949Y-48356269D01*
X134943973Y-48340298D01*
X134958576Y-48325032D01*
X134973743Y-48310484D01*
X134989460Y-48296666D01*
X135005715Y-48283591D01*
X135022493Y-48271270D01*
X135039780Y-48259716D01*
X135057563Y-48248942D01*
X135075829Y-48238959D01*
X135094562Y-48229780D01*
X135113750Y-48221418D01*
X135133379Y-48213884D01*
X135153434Y-48207191D01*
X135212968Y-48419682D01*
X135185931Y-48431015D01*
X135160634Y-48444029D01*
X135137076Y-48458681D01*
X135115259Y-48474923D01*
X135095184Y-48492712D01*
X135076851Y-48512000D01*
X135060261Y-48532742D01*
X135045414Y-48554894D01*
X135032311Y-48578408D01*
X135020954Y-48603240D01*
X135011341Y-48629344D01*
X135003475Y-48656674D01*
X134997356Y-48685185D01*
X134992984Y-48714831D01*
X134990361Y-48745566D01*
X134989486Y-48777346D01*
X134989974Y-48801322D01*
X134991433Y-48824814D01*
X134993860Y-48847803D01*
X134997248Y-48870275D01*
X135001594Y-48892212D01*
X135006892Y-48913600D01*
X135013138Y-48934421D01*
X135020327Y-48954660D01*
X135028453Y-48974301D01*
X135037512Y-48993327D01*
X135047500Y-49011722D01*
X135058410Y-49029471D01*
X135070239Y-49046558D01*
X135082982Y-49062965D01*
X135096633Y-49078677D01*
X135111188Y-49093678D01*
X135126642Y-49107952D01*
X135142990Y-49121483D01*
X135160227Y-49134254D01*
X135178348Y-49146250D01*
X135197349Y-49157454D01*
X135217224Y-49167851D01*
X135237970Y-49177424D01*
X135259580Y-49186157D01*
X135282050Y-49194033D01*
X135305375Y-49201038D01*
X135329550Y-49207155D01*
X135354571Y-49212367D01*
X135380433Y-49216659D01*
X135407130Y-49220015D01*
X135434658Y-49222418D01*
X135463012Y-49223852D01*
X135463012Y-48408234D01*
X135653063Y-48408234D01*
X135653063Y-49223852D01*
X135673854Y-49222061D01*
X135694473Y-49219442D01*
X135714888Y-49216003D01*
X135735068Y-49211754D01*
X135754980Y-49206703D01*
X135774592Y-49200859D01*
X135793873Y-49194232D01*
X135812790Y-49186829D01*
X135831311Y-49178661D01*
X135849404Y-49169735D01*
X135867037Y-49160061D01*
X135884179Y-49149647D01*
X135900796Y-49138503D01*
X135916858Y-49126637D01*
X135932332Y-49114059D01*
X135947185Y-49100776D01*
X135961387Y-49086799D01*
X135974904Y-49072136D01*
X135987706Y-49056795D01*
X135999759Y-49040786D01*
X136011032Y-49024118D01*
X136021493Y-49006799D01*
X136031109Y-48988838D01*
X136039850Y-48970245D01*
X136047682Y-48951028D01*
X136054573Y-48931195D01*
X136060493Y-48910757D01*
X136065407Y-48889722D01*
X136069286Y-48868098D01*
X136072096Y-48845895D01*
X136073805Y-48823121D01*
X136074382Y-48799785D01*
X136073861Y-48777670D01*
X136072312Y-48756069D01*
X136069756Y-48734994D01*
X136066215Y-48714458D01*
X136061710Y-48694473D01*
X136056261Y-48675052D01*
X136049890Y-48656206D01*
X136042619Y-48637948D01*
X136034468Y-48620291D01*
X136025459Y-48603246D01*
X136015613Y-48586827D01*
X136004951Y-48571045D01*
X135993495Y-48555912D01*
X135981265Y-48541442D01*
X135968283Y-48527646D01*
X135954570Y-48514536D01*
X135940147Y-48502126D01*
X135925036Y-48490427D01*
X135909257Y-48479452D01*
X135892833Y-48469212D01*
X135875783Y-48459721D01*
X135858130Y-48450991D01*
X135839894Y-48443033D01*
X135821097Y-48435861D01*
X135801760Y-48429487D01*
X135781905Y-48423922D01*
X135761551Y-48419180D01*
X135740722Y-48415272D01*
X135719437Y-48412211D01*
X135697718Y-48410010D01*
X135675586Y-48408680D01*
X135653063Y-48408234D01*
X135463012Y-48408234D01*
X135463012Y-48184751D01*
X135555977Y-48184751D01*
X135604930Y-48185669D01*
G37*
G36*
X134821875Y-47849986D02*
G01*
X134821875Y-47630167D01*
X135727710Y-47630167D01*
X135763398Y-47628399D01*
X135797732Y-47623187D01*
X135830580Y-47614675D01*
X135861812Y-47603005D01*
X135891298Y-47588319D01*
X135918906Y-47570758D01*
X135944505Y-47550467D01*
X135967965Y-47527585D01*
X135989155Y-47502257D01*
X136007944Y-47474624D01*
X136024201Y-47444827D01*
X136037796Y-47413011D01*
X136048597Y-47379316D01*
X136056475Y-47343884D01*
X136059276Y-47325562D01*
X136061297Y-47306859D01*
X136062522Y-47287794D01*
X136062933Y-47268383D01*
X136062454Y-47246388D01*
X136061159Y-47224748D01*
X136059263Y-47204031D01*
X136056980Y-47184806D01*
X136053910Y-47163739D01*
X136050463Y-47144274D01*
X136048279Y-47134202D01*
X136271761Y-47134202D01*
X136272944Y-47154795D01*
X136273725Y-47173212D01*
X136274406Y-47193223D01*
X136274944Y-47213506D01*
X136275298Y-47232740D01*
X136275425Y-47249606D01*
X136274305Y-47281520D01*
X136270995Y-47312789D01*
X136265572Y-47343305D01*
X136258108Y-47372961D01*
X136248681Y-47401648D01*
X136237364Y-47429258D01*
X136224234Y-47455684D01*
X136209365Y-47480817D01*
X136192832Y-47504549D01*
X136174710Y-47526772D01*
X136155076Y-47547379D01*
X136134002Y-47566261D01*
X136111566Y-47583310D01*
X136087842Y-47598419D01*
X136062905Y-47611479D01*
X136036830Y-47622382D01*
X136036830Y-47637495D01*
X136253443Y-47637495D01*
X136253443Y-47849986D01*
X134821875Y-47849986D01*
G37*
G36*
X132990791Y-63531555D02*
G01*
X132994527Y-63522695D01*
X132998515Y-63514102D01*
X133002753Y-63505777D01*
X133007238Y-63497722D01*
X133011968Y-63489937D01*
X133016938Y-63482424D01*
X133022147Y-63475182D01*
X133027592Y-63468214D01*
X133033270Y-63461520D01*
X133039178Y-63455100D01*
X133045314Y-63448956D01*
X133051674Y-63443089D01*
X133058256Y-63437499D01*
X133065057Y-63432187D01*
X133072074Y-63427155D01*
X133079304Y-63422403D01*
X133086746Y-63417932D01*
X133094395Y-63413743D01*
X133102249Y-63409837D01*
X133110306Y-63406215D01*
X133118562Y-63402877D01*
X133127015Y-63399825D01*
X133135661Y-63397059D01*
X133144499Y-63394581D01*
X133153525Y-63392391D01*
X133162737Y-63390490D01*
X133172131Y-63388879D01*
X133181706Y-63387559D01*
X133191457Y-63386530D01*
X133201383Y-63385795D01*
X133211481Y-63385353D01*
X133221747Y-63385205D01*
X133236179Y-63385498D01*
X133250305Y-63386376D01*
X133264116Y-63387837D01*
X133277602Y-63389877D01*
X133290752Y-63392494D01*
X133303557Y-63395687D01*
X133316006Y-63399451D01*
X133328090Y-63403786D01*
X133339798Y-63408687D01*
X133351121Y-63414154D01*
X133362048Y-63420183D01*
X133372570Y-63426771D01*
X133382676Y-63433917D01*
X133392356Y-63441618D01*
X133401601Y-63449871D01*
X133410400Y-63458673D01*
X133418743Y-63468023D01*
X133426621Y-63477918D01*
X133434023Y-63488355D01*
X133440940Y-63499331D01*
X133447360Y-63510845D01*
X133453275Y-63522894D01*
X133458674Y-63535475D01*
X133463547Y-63548585D01*
X133467885Y-63562223D01*
X133471676Y-63576385D01*
X133474912Y-63591070D01*
X133477582Y-63606275D01*
X133479676Y-63621996D01*
X133481184Y-63638232D01*
X133482097Y-63654981D01*
X133482403Y-63672239D01*
X133482403Y-63977640D01*
X132668000Y-63977640D01*
X132668000Y-63830118D01*
X132966171Y-63830118D01*
X133088683Y-63830118D01*
X133359109Y-63830118D01*
X133359109Y-63694905D01*
X133358961Y-63684769D01*
X133358520Y-63674986D01*
X133357787Y-63665553D01*
X133356765Y-63656470D01*
X133355458Y-63647733D01*
X133353867Y-63639341D01*
X133351996Y-63631292D01*
X133349846Y-63623583D01*
X133344724Y-63609179D01*
X133338522Y-63596114D01*
X133331260Y-63584370D01*
X133322961Y-63573931D01*
X133313645Y-63564782D01*
X133303334Y-63556906D01*
X133292048Y-63550286D01*
X133279810Y-63544906D01*
X133266639Y-63540750D01*
X133252557Y-63537802D01*
X133237586Y-63536045D01*
X133229774Y-63535608D01*
X133221747Y-63535463D01*
X133213749Y-63535608D01*
X133198463Y-63536775D01*
X133184130Y-63539123D01*
X133170760Y-63542668D01*
X133158361Y-63547425D01*
X133146944Y-63553408D01*
X133136517Y-63560634D01*
X133127090Y-63569116D01*
X133118674Y-63578871D01*
X133111276Y-63589914D01*
X133104907Y-63602259D01*
X133099576Y-63615923D01*
X133095292Y-63630919D01*
X133093546Y-63638922D01*
X133092065Y-63647264D01*
X133090851Y-63655946D01*
X133089904Y-63664972D01*
X133089227Y-63674342D01*
X133088819Y-63684058D01*
X133088683Y-63694123D01*
X133088683Y-63830118D01*
X132966171Y-63830118D01*
X132966171Y-63679860D01*
X132668000Y-63520027D01*
X132668000Y-63355310D01*
X132990791Y-63531555D01*
G37*
G36*
X133482403Y-62926028D02*
G01*
X133482403Y-63066322D01*
X133352270Y-63268750D01*
X133217057Y-63268750D01*
X133338788Y-63078241D01*
X133338788Y-63073551D01*
X132668000Y-63073551D01*
X132668000Y-62926028D01*
X133482403Y-62926028D01*
G37*
G36*
X132659207Y-62672993D02*
G01*
X132659655Y-62664286D01*
X132660972Y-62655784D01*
X132663115Y-62647534D01*
X132666039Y-62639587D01*
X132669704Y-62631989D01*
X132674065Y-62624791D01*
X132679080Y-62618040D01*
X132684706Y-62611786D01*
X132690899Y-62606076D01*
X132697618Y-62600960D01*
X132704818Y-62596487D01*
X132712458Y-62592704D01*
X132720493Y-62589661D01*
X132728882Y-62587406D01*
X132737582Y-62585989D01*
X132746548Y-62585456D01*
X132755411Y-62585989D01*
X132764020Y-62587406D01*
X132772331Y-62589661D01*
X132780299Y-62592704D01*
X132787882Y-62596487D01*
X132795035Y-62600960D01*
X132801715Y-62606076D01*
X132807877Y-62611786D01*
X132813479Y-62618040D01*
X132818476Y-62624791D01*
X132822824Y-62631989D01*
X132826480Y-62639587D01*
X132829399Y-62647534D01*
X132831539Y-62655784D01*
X132832855Y-62664286D01*
X132833303Y-62672993D01*
X132832855Y-62681966D01*
X132831539Y-62690683D01*
X132829399Y-62699099D01*
X132826480Y-62707169D01*
X132822824Y-62714847D01*
X132818476Y-62722088D01*
X132813479Y-62728847D01*
X132807877Y-62735079D01*
X132801715Y-62740739D01*
X132795035Y-62745781D01*
X132787882Y-62750160D01*
X132780299Y-62753831D01*
X132772331Y-62756749D01*
X132764020Y-62758868D01*
X132755411Y-62760143D01*
X132746548Y-62760529D01*
X132737582Y-62760143D01*
X132728882Y-62758868D01*
X132720493Y-62756749D01*
X132712458Y-62753831D01*
X132704818Y-62750160D01*
X132697618Y-62745781D01*
X132690899Y-62740739D01*
X132684706Y-62735079D01*
X132679080Y-62728847D01*
X132674065Y-62722088D01*
X132669704Y-62714847D01*
X132666039Y-62707169D01*
X132663115Y-62699099D01*
X132660972Y-62690683D01*
X132659655Y-62681966D01*
X132659207Y-62672993D01*
G37*
G36*
X133098807Y-61855808D02*
G01*
X133122723Y-61856836D01*
X133145966Y-61858542D01*
X133168529Y-61860916D01*
X133190403Y-61863953D01*
X133211581Y-61867644D01*
X133232055Y-61871982D01*
X133251819Y-61876960D01*
X133270865Y-61882570D01*
X133289184Y-61888804D01*
X133306770Y-61895657D01*
X133323615Y-61903119D01*
X133339712Y-61911184D01*
X133355052Y-61919844D01*
X133369630Y-61929092D01*
X133383436Y-61938921D01*
X133396463Y-61949322D01*
X133408705Y-61960290D01*
X133420153Y-61971815D01*
X133430800Y-61983891D01*
X133440638Y-61996511D01*
X133449660Y-62009666D01*
X133457859Y-62023350D01*
X133465226Y-62037555D01*
X133471755Y-62052274D01*
X133477438Y-62067500D01*
X133482267Y-62083224D01*
X133486235Y-62099440D01*
X133489334Y-62116140D01*
X133491557Y-62133317D01*
X133492897Y-62150963D01*
X133493345Y-62169071D01*
X133492898Y-62187196D01*
X133491562Y-62204855D01*
X133489344Y-62222043D01*
X133486251Y-62238750D01*
X133482291Y-62254972D01*
X133477472Y-62270699D01*
X133471799Y-62285926D01*
X133465281Y-62300645D01*
X133457926Y-62314848D01*
X133449739Y-62328529D01*
X133440729Y-62341681D01*
X133430903Y-62354296D01*
X133420268Y-62366367D01*
X133408831Y-62377887D01*
X133396600Y-62388849D01*
X133383582Y-62399245D01*
X133369785Y-62409070D01*
X133355215Y-62418314D01*
X133339880Y-62426972D01*
X133323787Y-62435036D01*
X133306944Y-62442499D01*
X133289357Y-62449354D01*
X133271035Y-62455593D01*
X133251984Y-62461210D01*
X133232212Y-62466197D01*
X133211726Y-62470547D01*
X133190533Y-62474253D01*
X133168641Y-62477309D01*
X133146057Y-62479705D01*
X133122788Y-62481437D01*
X133098841Y-62482495D01*
X133074224Y-62482874D01*
X133049548Y-62482532D01*
X133025534Y-62481510D01*
X133002189Y-62479814D01*
X132979522Y-62477453D01*
X132957540Y-62474432D01*
X132936252Y-62470759D01*
X132915666Y-62466441D01*
X132895790Y-62461485D01*
X132876630Y-62455897D01*
X132858197Y-62449684D01*
X132840497Y-62442854D01*
X132823538Y-62435414D01*
X132807329Y-62427370D01*
X132791878Y-62418729D01*
X132777191Y-62409499D01*
X132763279Y-62399685D01*
X132750147Y-62389296D01*
X132737805Y-62378338D01*
X132726261Y-62366817D01*
X132715521Y-62354742D01*
X132705595Y-62342119D01*
X132696490Y-62328954D01*
X132688215Y-62315255D01*
X132680776Y-62301029D01*
X132674183Y-62286283D01*
X132668443Y-62271023D01*
X132663565Y-62255257D01*
X132659555Y-62238991D01*
X132656423Y-62222232D01*
X132654175Y-62204988D01*
X132652821Y-62187266D01*
X132652368Y-62169071D01*
X132776834Y-62169071D01*
X132777132Y-62178467D01*
X132778025Y-62187637D01*
X132779512Y-62196576D01*
X132781590Y-62205280D01*
X132784260Y-62213744D01*
X132787518Y-62221963D01*
X132791364Y-62229931D01*
X132795797Y-62237645D01*
X132800814Y-62245100D01*
X132806414Y-62252289D01*
X132812596Y-62259210D01*
X132819359Y-62265856D01*
X132826700Y-62272224D01*
X132834619Y-62278308D01*
X132843114Y-62284103D01*
X132852183Y-62289605D01*
X132861825Y-62294808D01*
X132872039Y-62299709D01*
X132882823Y-62304302D01*
X132894176Y-62308581D01*
X132906095Y-62312544D01*
X132918581Y-62316184D01*
X132931630Y-62319496D01*
X132945243Y-62322477D01*
X132959416Y-62325121D01*
X132974150Y-62327423D01*
X132989441Y-62329378D01*
X133005290Y-62330982D01*
X133021694Y-62332230D01*
X133038652Y-62333117D01*
X133056163Y-62333638D01*
X133074224Y-62333788D01*
X133092163Y-62333568D01*
X133109560Y-62332984D01*
X133126414Y-62332040D01*
X133142724Y-62330742D01*
X133158486Y-62329093D01*
X133173701Y-62327099D01*
X133188365Y-62324764D01*
X133202476Y-62322092D01*
X133216034Y-62319089D01*
X133229035Y-62315759D01*
X133241479Y-62312106D01*
X133253363Y-62308135D01*
X133264685Y-62303851D01*
X133275444Y-62299258D01*
X133285637Y-62294361D01*
X133295264Y-62289165D01*
X133304321Y-62283674D01*
X133312808Y-62277893D01*
X133320722Y-62271826D01*
X133328061Y-62265479D01*
X133334824Y-62258855D01*
X133341009Y-62251959D01*
X133346613Y-62244796D01*
X133351635Y-62237370D01*
X133356074Y-62229687D01*
X133359926Y-62221751D01*
X133363191Y-62213565D01*
X133365867Y-62205136D01*
X133367951Y-62196467D01*
X133369442Y-62187564D01*
X133370338Y-62178430D01*
X133370637Y-62169071D01*
X133370338Y-62159694D01*
X133369442Y-62150544D01*
X133367951Y-62141625D01*
X133365867Y-62132941D01*
X133363191Y-62124499D01*
X133359926Y-62116301D01*
X133356074Y-62108353D01*
X133351635Y-62100659D01*
X133346613Y-62093223D01*
X133341009Y-62086051D01*
X133334824Y-62079147D01*
X133328061Y-62072516D01*
X133320722Y-62066161D01*
X133312808Y-62060088D01*
X133304321Y-62054302D01*
X133295264Y-62048806D01*
X133285637Y-62043605D01*
X133275444Y-62038705D01*
X133264685Y-62034109D01*
X133253363Y-62029822D01*
X133241479Y-62025849D01*
X133229035Y-62022194D01*
X133216034Y-62018862D01*
X133202476Y-62015857D01*
X133188365Y-62013185D01*
X133173701Y-62010849D01*
X133158486Y-62008854D01*
X133142724Y-62007205D01*
X133126414Y-62005906D01*
X133109560Y-62004963D01*
X133092163Y-62004378D01*
X133074224Y-62004158D01*
X133056163Y-62004342D01*
X133038652Y-62004892D01*
X133021694Y-62005802D01*
X133005290Y-62007069D01*
X132989441Y-62008688D01*
X132974150Y-62010654D01*
X132959416Y-62012963D01*
X132945243Y-62015610D01*
X132931630Y-62018592D01*
X132918581Y-62021903D01*
X132906095Y-62025539D01*
X132894176Y-62029496D01*
X132882823Y-62033769D01*
X132872039Y-62038353D01*
X132861825Y-62043245D01*
X132852183Y-62048439D01*
X132843114Y-62053932D01*
X132834619Y-62059719D01*
X132826700Y-62065794D01*
X132819359Y-62072155D01*
X132812596Y-62078796D01*
X132806414Y-62085713D01*
X132800814Y-62092901D01*
X132795797Y-62100356D01*
X132791364Y-62108074D01*
X132787518Y-62116050D01*
X132784260Y-62124279D01*
X132781590Y-62132757D01*
X132779512Y-62141480D01*
X132778025Y-62150443D01*
X132777132Y-62159641D01*
X132776834Y-62169071D01*
X132652368Y-62169071D01*
X132652786Y-62150894D01*
X132654107Y-62133188D01*
X132656323Y-62115960D01*
X132659427Y-62099216D01*
X132663410Y-62082963D01*
X132668265Y-62067210D01*
X132673983Y-62051961D01*
X132680557Y-62037226D01*
X132687978Y-62023009D01*
X132696238Y-62009320D01*
X132705331Y-61996163D01*
X132715246Y-61983548D01*
X132725978Y-61971479D01*
X132737517Y-61959965D01*
X132749855Y-61949012D01*
X132762986Y-61938628D01*
X132776899Y-61928819D01*
X132791589Y-61919592D01*
X132807046Y-61910954D01*
X132823264Y-61902913D01*
X132840232Y-61895475D01*
X132857945Y-61888647D01*
X132876393Y-61882436D01*
X132895570Y-61876850D01*
X132915466Y-61871894D01*
X132936074Y-61867577D01*
X132957386Y-61863905D01*
X132979393Y-61860884D01*
X133002089Y-61858523D01*
X133025465Y-61856828D01*
X133049513Y-61855806D01*
X133074224Y-61855463D01*
X133098807Y-61855808D01*
G37*
G36*
X132668000Y-61446308D02*
G01*
X132668000Y-60888066D01*
X132791098Y-60888066D01*
X132791098Y-61242707D01*
X132796764Y-61242707D01*
X132939598Y-61102414D01*
X132953605Y-61087909D01*
X132967174Y-61074063D01*
X132980321Y-61060861D01*
X132993064Y-61048292D01*
X133005420Y-61036341D01*
X133017408Y-61024997D01*
X133029045Y-61014246D01*
X133040348Y-61004075D01*
X133051335Y-60994472D01*
X133062023Y-60985423D01*
X133072431Y-60976915D01*
X133082576Y-60968936D01*
X133092475Y-60961472D01*
X133102146Y-60954511D01*
X133111607Y-60948039D01*
X133120875Y-60942044D01*
X133129967Y-60936512D01*
X133138903Y-60931432D01*
X133147698Y-60926789D01*
X133156371Y-60922571D01*
X133164939Y-60918765D01*
X133173420Y-60915357D01*
X133181831Y-60912336D01*
X133190191Y-60909688D01*
X133198516Y-60907400D01*
X133206824Y-60905458D01*
X133215133Y-60903851D01*
X133223461Y-60902566D01*
X133231825Y-60901588D01*
X133240242Y-60900906D01*
X133248731Y-60900506D01*
X133257309Y-60900376D01*
X133269985Y-60900699D01*
X133282435Y-60901662D01*
X133294647Y-60903254D01*
X133306608Y-60905465D01*
X133318309Y-60908283D01*
X133329736Y-60911697D01*
X133340879Y-60915699D01*
X133351727Y-60920276D01*
X133362267Y-60925418D01*
X133372488Y-60931114D01*
X133382378Y-60937354D01*
X133391927Y-60944127D01*
X133401122Y-60951422D01*
X133409952Y-60959229D01*
X133418406Y-60967537D01*
X133426471Y-60976335D01*
X133434137Y-60985614D01*
X133441392Y-60995361D01*
X133448224Y-61005566D01*
X133454623Y-61016220D01*
X133460575Y-61027310D01*
X133466070Y-61038827D01*
X133471097Y-61050759D01*
X133475643Y-61063097D01*
X133479698Y-61075829D01*
X133483250Y-61088944D01*
X133486286Y-61102433D01*
X133488797Y-61116284D01*
X133490769Y-61130487D01*
X133492193Y-61145031D01*
X133493055Y-61159906D01*
X133493345Y-61175100D01*
X133493053Y-61190092D01*
X133492184Y-61204798D01*
X133490744Y-61219206D01*
X133488744Y-61233302D01*
X133486191Y-61247075D01*
X133483092Y-61260512D01*
X133479458Y-61273601D01*
X133475295Y-61286329D01*
X133470613Y-61298683D01*
X133465419Y-61310652D01*
X133459722Y-61322223D01*
X133453530Y-61333383D01*
X133446852Y-61344121D01*
X133439695Y-61354422D01*
X133432068Y-61364276D01*
X133423980Y-61373670D01*
X133415438Y-61382590D01*
X133406451Y-61391026D01*
X133397028Y-61398963D01*
X133387176Y-61406391D01*
X133376903Y-61413295D01*
X133366219Y-61419665D01*
X133355131Y-61425487D01*
X133343648Y-61430749D01*
X133331779Y-61435439D01*
X133319530Y-61439544D01*
X133306911Y-61443051D01*
X133293930Y-61445949D01*
X133280595Y-61448224D01*
X133266915Y-61449865D01*
X133252897Y-61450858D01*
X133238551Y-61451192D01*
X133238551Y-61310704D01*
X133253754Y-61310094D01*
X133268203Y-61308287D01*
X133281866Y-61305319D01*
X133294711Y-61301224D01*
X133306709Y-61296039D01*
X133317826Y-61289797D01*
X133328033Y-61282535D01*
X133337298Y-61274287D01*
X133345590Y-61265089D01*
X133352877Y-61254977D01*
X133359129Y-61243984D01*
X133364314Y-61232146D01*
X133368402Y-61219499D01*
X133371360Y-61206078D01*
X133373157Y-61191918D01*
X133373764Y-61177054D01*
X133373214Y-61162752D01*
X133371582Y-61148973D01*
X133368894Y-61135771D01*
X133365175Y-61123202D01*
X133360453Y-61111321D01*
X133354753Y-61100183D01*
X133348100Y-61089844D01*
X133340522Y-61080359D01*
X133332044Y-61071782D01*
X133322692Y-61064170D01*
X133312492Y-61057578D01*
X133301471Y-61052060D01*
X133289654Y-61047672D01*
X133277067Y-61044470D01*
X133263736Y-61042508D01*
X133249688Y-61041841D01*
X133237155Y-61042326D01*
X133225002Y-61043778D01*
X133213153Y-61046194D01*
X133201530Y-61049569D01*
X133190055Y-61053900D01*
X133178653Y-61059183D01*
X133167244Y-61065415D01*
X133155752Y-61072592D01*
X133144101Y-61080709D01*
X133132211Y-61089765D01*
X133120007Y-61099753D01*
X133113763Y-61105097D01*
X133107411Y-61110672D01*
X133100941Y-61116479D01*
X133094345Y-61122517D01*
X133087612Y-61128786D01*
X133080733Y-61135285D01*
X133073697Y-61142013D01*
X133066496Y-61148971D01*
X133059120Y-61156157D01*
X133051558Y-61163572D01*
X132774489Y-61446308D01*
X132668000Y-61446308D01*
G37*
G36*
X133098807Y-60136338D02*
G01*
X133122723Y-60137367D01*
X133145966Y-60139072D01*
X133168529Y-60141447D01*
X133190403Y-60144483D01*
X133211581Y-60148174D01*
X133232055Y-60152512D01*
X133251819Y-60157490D01*
X133270865Y-60163100D01*
X133289184Y-60169335D01*
X133306770Y-60176187D01*
X133323615Y-60183650D01*
X133339712Y-60191715D01*
X133355052Y-60200375D01*
X133369630Y-60209623D01*
X133383436Y-60219451D01*
X133396463Y-60229853D01*
X133408705Y-60240820D01*
X133420153Y-60252345D01*
X133430800Y-60264421D01*
X133440638Y-60277041D01*
X133449660Y-60290196D01*
X133457859Y-60303881D01*
X133465226Y-60318086D01*
X133471755Y-60332805D01*
X133477438Y-60348030D01*
X133482267Y-60363755D01*
X133486235Y-60379970D01*
X133489334Y-60396670D01*
X133491557Y-60413847D01*
X133492897Y-60431493D01*
X133493345Y-60449601D01*
X133492898Y-60467726D01*
X133491562Y-60485386D01*
X133489344Y-60502573D01*
X133486251Y-60519281D01*
X133482291Y-60535502D01*
X133477472Y-60551230D01*
X133471799Y-60566456D01*
X133465281Y-60581175D01*
X133457926Y-60595378D01*
X133449739Y-60609060D01*
X133440729Y-60622211D01*
X133430903Y-60634826D01*
X133420268Y-60646897D01*
X133408831Y-60658417D01*
X133396600Y-60669379D01*
X133383582Y-60679776D01*
X133369785Y-60689600D01*
X133355215Y-60698845D01*
X133339880Y-60707503D01*
X133323787Y-60715567D01*
X133306944Y-60723029D01*
X133289357Y-60729884D01*
X133271035Y-60736123D01*
X133251984Y-60741740D01*
X133232212Y-60746727D01*
X133211726Y-60751078D01*
X133190533Y-60754784D01*
X133168641Y-60757839D01*
X133146057Y-60760236D01*
X133122788Y-60761967D01*
X133098841Y-60763026D01*
X133074224Y-60763405D01*
X133049548Y-60763062D01*
X133025534Y-60762040D01*
X133002189Y-60760345D01*
X132979522Y-60757983D01*
X132957540Y-60754963D01*
X132936252Y-60751290D01*
X132915666Y-60746972D01*
X132895790Y-60742015D01*
X132876630Y-60736427D01*
X132858197Y-60730215D01*
X132840497Y-60723385D01*
X132823538Y-60715944D01*
X132807329Y-60707900D01*
X132791878Y-60699259D01*
X132777191Y-60690029D01*
X132763279Y-60680215D01*
X132750147Y-60669826D01*
X132737805Y-60658868D01*
X132726261Y-60647348D01*
X132715521Y-60635272D01*
X132705595Y-60622649D01*
X132696490Y-60609485D01*
X132688215Y-60595786D01*
X132680776Y-60581560D01*
X132674183Y-60566813D01*
X132668443Y-60551553D01*
X132663565Y-60535787D01*
X132659555Y-60519521D01*
X132656423Y-60502763D01*
X132654175Y-60485519D01*
X132652821Y-60467796D01*
X132652368Y-60449601D01*
X132776834Y-60449601D01*
X132777132Y-60458997D01*
X132778025Y-60468167D01*
X132779512Y-60477107D01*
X132781590Y-60485811D01*
X132784260Y-60494274D01*
X132787518Y-60502493D01*
X132791364Y-60510462D01*
X132795797Y-60518176D01*
X132800814Y-60525630D01*
X132806414Y-60532820D01*
X132812596Y-60539740D01*
X132819359Y-60546387D01*
X132826700Y-60552754D01*
X132834619Y-60558838D01*
X132843114Y-60564633D01*
X132852183Y-60570135D01*
X132861825Y-60575339D01*
X132872039Y-60580239D01*
X132882823Y-60584832D01*
X132894176Y-60589112D01*
X132906095Y-60593074D01*
X132918581Y-60596714D01*
X132931630Y-60600027D01*
X132945243Y-60603007D01*
X132959416Y-60605651D01*
X132974150Y-60607953D01*
X132989441Y-60609909D01*
X133005290Y-60611513D01*
X133021694Y-60612761D01*
X133038652Y-60613647D01*
X133056163Y-60614168D01*
X133074224Y-60614319D01*
X133092163Y-60614099D01*
X133109560Y-60613514D01*
X133126414Y-60612571D01*
X133142724Y-60611272D01*
X133158486Y-60609624D01*
X133173701Y-60607629D01*
X133188365Y-60605294D01*
X133202476Y-60602623D01*
X133216034Y-60599619D01*
X133229035Y-60596289D01*
X133241479Y-60592636D01*
X133253363Y-60588665D01*
X133264685Y-60584381D01*
X133275444Y-60579788D01*
X133285637Y-60574892D01*
X133295264Y-60569696D01*
X133304321Y-60564205D01*
X133312808Y-60558423D01*
X133320722Y-60552357D01*
X133328061Y-60546009D01*
X133334824Y-60539385D01*
X133341009Y-60532489D01*
X133346613Y-60525326D01*
X133351635Y-60517901D01*
X133356074Y-60510218D01*
X133359926Y-60502281D01*
X133363191Y-60494096D01*
X133365867Y-60485667D01*
X133367951Y-60476998D01*
X133369442Y-60468094D01*
X133370338Y-60458961D01*
X133370637Y-60449601D01*
X133370338Y-60440224D01*
X133369442Y-60431074D01*
X133367951Y-60422155D01*
X133365867Y-60413472D01*
X133363191Y-60405029D01*
X133359926Y-60396831D01*
X133356074Y-60388883D01*
X133351635Y-60381189D01*
X133346613Y-60373754D01*
X133341009Y-60366582D01*
X133334824Y-60359678D01*
X133328061Y-60353046D01*
X133320722Y-60346692D01*
X133312808Y-60340619D01*
X133304321Y-60334832D01*
X133295264Y-60329336D01*
X133285637Y-60324136D01*
X133275444Y-60319235D01*
X133264685Y-60314639D01*
X133253363Y-60310352D01*
X133241479Y-60306379D01*
X133229035Y-60302724D01*
X133216034Y-60299392D01*
X133202476Y-60296388D01*
X133188365Y-60293715D01*
X133173701Y-60291379D01*
X133158486Y-60289385D01*
X133142724Y-60287736D01*
X133126414Y-60286437D01*
X133109560Y-60285493D01*
X133092163Y-60284909D01*
X133074224Y-60284689D01*
X133056163Y-60284873D01*
X133038652Y-60285422D01*
X133021694Y-60286333D01*
X133005290Y-60287599D01*
X132989441Y-60289218D01*
X132974150Y-60291184D01*
X132959416Y-60293493D01*
X132945243Y-60296141D01*
X132931630Y-60299122D01*
X132918581Y-60302433D01*
X132906095Y-60306069D01*
X132894176Y-60310026D01*
X132882823Y-60314299D01*
X132872039Y-60318884D01*
X132861825Y-60323775D01*
X132852183Y-60328970D01*
X132843114Y-60334463D01*
X132834619Y-60340249D01*
X132826700Y-60346325D01*
X132819359Y-60352685D01*
X132812596Y-60359326D01*
X132806414Y-60366243D01*
X132800814Y-60373432D01*
X132795797Y-60380887D01*
X132791364Y-60388604D01*
X132787518Y-60396580D01*
X132784260Y-60404809D01*
X132781590Y-60413287D01*
X132779512Y-60422010D01*
X132778025Y-60430973D01*
X132777132Y-60440172D01*
X132776834Y-60449601D01*
X132652368Y-60449601D01*
X132652786Y-60431425D01*
X132654107Y-60413718D01*
X132656323Y-60396490D01*
X132659427Y-60379746D01*
X132663410Y-60363494D01*
X132668265Y-60347740D01*
X132673983Y-60332492D01*
X132680557Y-60317756D01*
X132687978Y-60303540D01*
X132696238Y-60289850D01*
X132705331Y-60276694D01*
X132715246Y-60264078D01*
X132725978Y-60252009D01*
X132737517Y-60240495D01*
X132749855Y-60229543D01*
X132762986Y-60219158D01*
X132776899Y-60209349D01*
X132791589Y-60200122D01*
X132807046Y-60191485D01*
X132823264Y-60183443D01*
X132840232Y-60176005D01*
X132857945Y-60169177D01*
X132876393Y-60162967D01*
X132895570Y-60157380D01*
X132915466Y-60152425D01*
X132936074Y-60148107D01*
X132957386Y-60144435D01*
X132979393Y-60141415D01*
X133002089Y-60139053D01*
X133025465Y-60137358D01*
X133049513Y-60136336D01*
X133074224Y-60135994D01*
X133098807Y-60136338D01*
G37*
G36*
X132668000Y-60004298D02*
G01*
X132668000Y-59446056D01*
X132791098Y-59446056D01*
X132791098Y-59800697D01*
X132796764Y-59800697D01*
X132939598Y-59660404D01*
X132953605Y-59645899D01*
X132967174Y-59632053D01*
X132980321Y-59618851D01*
X132993064Y-59606282D01*
X133005420Y-59594332D01*
X133017408Y-59582987D01*
X133029045Y-59572236D01*
X133040348Y-59562066D01*
X133051335Y-59552462D01*
X133062023Y-59543413D01*
X133072431Y-59534905D01*
X133082576Y-59526926D01*
X133092475Y-59519462D01*
X133102146Y-59512501D01*
X133111607Y-59506029D01*
X133120875Y-59500034D01*
X133129967Y-59494503D01*
X133138903Y-59489422D01*
X133147698Y-59484779D01*
X133156371Y-59480561D01*
X133164939Y-59476755D01*
X133173420Y-59473348D01*
X133181831Y-59470326D01*
X133190191Y-59467678D01*
X133198516Y-59465390D01*
X133206824Y-59463449D01*
X133215133Y-59461842D01*
X133223461Y-59460556D01*
X133231825Y-59459579D01*
X133240242Y-59458896D01*
X133248731Y-59458497D01*
X133257309Y-59458366D01*
X133269985Y-59458690D01*
X133282435Y-59459653D01*
X133294647Y-59461245D01*
X133306608Y-59463455D01*
X133318309Y-59466273D01*
X133329736Y-59469688D01*
X133340879Y-59473689D01*
X133351727Y-59478266D01*
X133362267Y-59483408D01*
X133372488Y-59489104D01*
X133382378Y-59495344D01*
X133391927Y-59502117D01*
X133401122Y-59509412D01*
X133409952Y-59517219D01*
X133418406Y-59525527D01*
X133426471Y-59534326D01*
X133434137Y-59543604D01*
X133441392Y-59553351D01*
X133448224Y-59563557D01*
X133454623Y-59574210D01*
X133460575Y-59585300D01*
X133466070Y-59596817D01*
X133471097Y-59608749D01*
X133475643Y-59621087D01*
X133479698Y-59633819D01*
X133483250Y-59646935D01*
X133486286Y-59660423D01*
X133488797Y-59674275D01*
X133490769Y-59688478D01*
X133492193Y-59703022D01*
X133493055Y-59717896D01*
X133493345Y-59733091D01*
X133493053Y-59748083D01*
X133492184Y-59762788D01*
X133490744Y-59777196D01*
X133488744Y-59791292D01*
X133486191Y-59805065D01*
X133483092Y-59818502D01*
X133479458Y-59831591D01*
X133475295Y-59844319D01*
X133470613Y-59856673D01*
X133465419Y-59868642D01*
X133459722Y-59880213D01*
X133453530Y-59891374D01*
X133446852Y-59902111D01*
X133439695Y-59912413D01*
X133432068Y-59922267D01*
X133423980Y-59931660D01*
X133415438Y-59940581D01*
X133406451Y-59949016D01*
X133397028Y-59956954D01*
X133387176Y-59964381D01*
X133376903Y-59971286D01*
X133366219Y-59977655D01*
X133355131Y-59983477D01*
X133343648Y-59988740D01*
X133331779Y-59993429D01*
X133319530Y-59997534D01*
X133306911Y-60001041D01*
X133293930Y-60003939D01*
X133280595Y-60006214D01*
X133266915Y-60007855D01*
X133252897Y-60008849D01*
X133238551Y-60009183D01*
X133238551Y-59868694D01*
X133253754Y-59868084D01*
X133268203Y-59866277D01*
X133281866Y-59863309D01*
X133294711Y-59859215D01*
X133306709Y-59854029D01*
X133317826Y-59847787D01*
X133328033Y-59840525D01*
X133337298Y-59832278D01*
X133345590Y-59823080D01*
X133352877Y-59812967D01*
X133359129Y-59801974D01*
X133364314Y-59790137D01*
X133368402Y-59777490D01*
X133371360Y-59764069D01*
X133373157Y-59749908D01*
X133373764Y-59735044D01*
X133373214Y-59720743D01*
X133371582Y-59706963D01*
X133368894Y-59693761D01*
X133365175Y-59681192D01*
X133360453Y-59669311D01*
X133354753Y-59658173D01*
X133348100Y-59647834D01*
X133340522Y-59638349D01*
X133332044Y-59629772D01*
X133322692Y-59622160D01*
X133312492Y-59615568D01*
X133301471Y-59610050D01*
X133289654Y-59605662D01*
X133277067Y-59602460D01*
X133263736Y-59600498D01*
X133249688Y-59599832D01*
X133237155Y-59600316D01*
X133225002Y-59601768D01*
X133213153Y-59604184D01*
X133201530Y-59607559D01*
X133190055Y-59611890D01*
X133178653Y-59617173D01*
X133167244Y-59623405D01*
X133155752Y-59630582D01*
X133144101Y-59638700D01*
X133132211Y-59647755D01*
X133120007Y-59657744D01*
X133113763Y-59663087D01*
X133107411Y-59668662D01*
X133100941Y-59674469D01*
X133094345Y-59680507D01*
X133087612Y-59686776D01*
X133080733Y-59693275D01*
X133073697Y-59700003D01*
X133066496Y-59706961D01*
X133059120Y-59714148D01*
X133051558Y-59721562D01*
X132774489Y-60004298D01*
X132668000Y-60004298D01*
G37*
G36*
X132656862Y-59016384D02*
G01*
X132657152Y-59000204D01*
X132658015Y-58984315D01*
X132659439Y-58968732D01*
X132661413Y-58953471D01*
X132663926Y-58938545D01*
X132666966Y-58923969D01*
X132670523Y-58909758D01*
X132674585Y-58895927D01*
X132679140Y-58882490D01*
X132684178Y-58869461D01*
X132689687Y-58856856D01*
X132695657Y-58844689D01*
X132702074Y-58832974D01*
X132708929Y-58821727D01*
X132716211Y-58810962D01*
X132723907Y-58800693D01*
X132732006Y-58790936D01*
X132740498Y-58781704D01*
X132749371Y-58773013D01*
X132758614Y-58764877D01*
X132768215Y-58757311D01*
X132778164Y-58750329D01*
X132788448Y-58743946D01*
X132799057Y-58738176D01*
X132809980Y-58733035D01*
X132821204Y-58728537D01*
X132832720Y-58724696D01*
X132844515Y-58721528D01*
X132856578Y-58719046D01*
X132868899Y-58717266D01*
X132881465Y-58716202D01*
X132894266Y-58715868D01*
X132903725Y-58716018D01*
X132913010Y-58716540D01*
X132922117Y-58717432D01*
X132931040Y-58718690D01*
X132939774Y-58720314D01*
X132948314Y-58722299D01*
X132956655Y-58724645D01*
X132964791Y-58727347D01*
X132972718Y-58730405D01*
X132980430Y-58733815D01*
X132987923Y-58737575D01*
X132995190Y-58741683D01*
X133002228Y-58746136D01*
X133009030Y-58750931D01*
X133015591Y-58756067D01*
X133021907Y-58761541D01*
X133027973Y-58767351D01*
X133033782Y-58773493D01*
X133039331Y-58779966D01*
X133044613Y-58786767D01*
X133049624Y-58793894D01*
X133054358Y-58801344D01*
X133058811Y-58809115D01*
X133062977Y-58817204D01*
X133066851Y-58825610D01*
X133070428Y-58834329D01*
X133073702Y-58843359D01*
X133076670Y-58852697D01*
X133079324Y-58862342D01*
X133081661Y-58872291D01*
X133083676Y-58882541D01*
X133085362Y-58893091D01*
X133091810Y-58893091D01*
X133093740Y-58884914D01*
X133095938Y-58876912D01*
X133098400Y-58869089D01*
X133101122Y-58861452D01*
X133104101Y-58854005D01*
X133107332Y-58846756D01*
X133110813Y-58839708D01*
X133118508Y-58826244D01*
X133127155Y-58813658D01*
X133136726Y-58801995D01*
X133147190Y-58791301D01*
X133158519Y-58781622D01*
X133170682Y-58773003D01*
X133183651Y-58765489D01*
X133197395Y-58759126D01*
X133211886Y-58753960D01*
X133227094Y-58750036D01*
X133234957Y-58748554D01*
X133242989Y-58747400D01*
X133251185Y-58746578D01*
X133259541Y-58746096D01*
X133268055Y-58745959D01*
X133279618Y-58746232D01*
X133291032Y-58747119D01*
X133302284Y-58748611D01*
X133313359Y-58750698D01*
X133324242Y-58753371D01*
X133334920Y-58756622D01*
X133345378Y-58760442D01*
X133355601Y-58764820D01*
X133365576Y-58769749D01*
X133375287Y-58775219D01*
X133384721Y-58781220D01*
X133393864Y-58787745D01*
X133402700Y-58794783D01*
X133411216Y-58802326D01*
X133419397Y-58810365D01*
X133427228Y-58818890D01*
X133434697Y-58827892D01*
X133441787Y-58837363D01*
X133448485Y-58847293D01*
X133454777Y-58857673D01*
X133460648Y-58868494D01*
X133466083Y-58879748D01*
X133471069Y-58891424D01*
X133475592Y-58903514D01*
X133479635Y-58916008D01*
X133483186Y-58928899D01*
X133486231Y-58942175D01*
X133488754Y-58955830D01*
X133490741Y-58969852D01*
X133492178Y-58984234D01*
X133493051Y-58998966D01*
X133493345Y-59014040D01*
X133493071Y-59028770D01*
X133492254Y-59043276D01*
X133490904Y-59057541D01*
X133489032Y-59071551D01*
X133486645Y-59085290D01*
X133483754Y-59098744D01*
X133480369Y-59111895D01*
X133476498Y-59124730D01*
X133472152Y-59137234D01*
X133467339Y-59149389D01*
X133462070Y-59161182D01*
X133456354Y-59172597D01*
X133450200Y-59183619D01*
X133443617Y-59194233D01*
X133436617Y-59204422D01*
X133429207Y-59214172D01*
X133421397Y-59223468D01*
X133413198Y-59232294D01*
X133404618Y-59240634D01*
X133395667Y-59248475D01*
X133386354Y-59255799D01*
X133376690Y-59262592D01*
X133366683Y-59268839D01*
X133356343Y-59274525D01*
X133345680Y-59279633D01*
X133334702Y-59284149D01*
X133323421Y-59288057D01*
X133311844Y-59291342D01*
X133299982Y-59293989D01*
X133287845Y-59295983D01*
X133275441Y-59297307D01*
X133262780Y-59297948D01*
X133262780Y-59156091D01*
X133275296Y-59154913D01*
X133287183Y-59152377D01*
X133298417Y-59148557D01*
X133308972Y-59143525D01*
X133318824Y-59137352D01*
X133327949Y-59130111D01*
X133336321Y-59121875D01*
X133343917Y-59112714D01*
X133350711Y-59102701D01*
X133356680Y-59091909D01*
X133361797Y-59080409D01*
X133366039Y-59068274D01*
X133369382Y-59055575D01*
X133371800Y-59042386D01*
X133373269Y-59028777D01*
X133373764Y-59014821D01*
X133373229Y-59000876D01*
X133371649Y-58987567D01*
X133369057Y-58974932D01*
X133365490Y-58963008D01*
X133360981Y-58951832D01*
X133355567Y-58941440D01*
X133349281Y-58931869D01*
X133342159Y-58923157D01*
X133334235Y-58915340D01*
X133325545Y-58908455D01*
X133316123Y-58902540D01*
X133306005Y-58897630D01*
X133295224Y-58893764D01*
X133283817Y-58890977D01*
X133271818Y-58889308D01*
X133259263Y-58888792D01*
X133246178Y-58889404D01*
X133233690Y-58891355D01*
X133221834Y-58894595D01*
X133210643Y-58899075D01*
X133200152Y-58904745D01*
X133190394Y-58911557D01*
X133181404Y-58919461D01*
X133173216Y-58928408D01*
X133165863Y-58938349D01*
X133159381Y-58949234D01*
X133153802Y-58961015D01*
X133149161Y-58973642D01*
X133145492Y-58987065D01*
X133142829Y-59001237D01*
X133141207Y-59016106D01*
X133140658Y-59031625D01*
X133140658Y-59103530D01*
X133026939Y-59103530D01*
X133026939Y-59031625D01*
X133026789Y-59022077D01*
X133026341Y-59012778D01*
X133025603Y-59003733D01*
X133024578Y-58994944D01*
X133023273Y-58986416D01*
X133021693Y-58978153D01*
X133019842Y-58970156D01*
X133017728Y-58962431D01*
X133015354Y-58954981D01*
X133009851Y-58940919D01*
X133003377Y-58927999D01*
X132995974Y-58916249D01*
X132987687Y-58905699D01*
X132978558Y-58896377D01*
X132968631Y-58888311D01*
X132957949Y-58881531D01*
X132946554Y-58876064D01*
X132934491Y-58871940D01*
X132921802Y-58869186D01*
X132908531Y-58867832D01*
X132901691Y-58867689D01*
X132888479Y-58868344D01*
X132875833Y-58870417D01*
X132863792Y-58873852D01*
X132852397Y-58878592D01*
X132841686Y-58884581D01*
X132831699Y-58891763D01*
X132822477Y-58900081D01*
X132814057Y-58909479D01*
X132806480Y-58919901D01*
X132799785Y-58931290D01*
X132794011Y-58943589D01*
X132789199Y-58956743D01*
X132785387Y-58970695D01*
X132782616Y-58985389D01*
X132780924Y-59000768D01*
X132780495Y-59008696D01*
X132780351Y-59016775D01*
X132780846Y-59031930D01*
X132782311Y-59046582D01*
X132784720Y-59060670D01*
X132788045Y-59074136D01*
X132792258Y-59086919D01*
X132797332Y-59098960D01*
X132803240Y-59110200D01*
X132809953Y-59120578D01*
X132817446Y-59130037D01*
X132825689Y-59138515D01*
X132834656Y-59145954D01*
X132844318Y-59152293D01*
X132854650Y-59157474D01*
X132865622Y-59161437D01*
X132877209Y-59164122D01*
X132889381Y-59165470D01*
X132889381Y-59315142D01*
X132876612Y-59314412D01*
X132864101Y-59312998D01*
X132851859Y-59310913D01*
X132839896Y-59308171D01*
X132828221Y-59304784D01*
X132816843Y-59300766D01*
X132805772Y-59296127D01*
X132795018Y-59290883D01*
X132784590Y-59285045D01*
X132774498Y-59278626D01*
X132764752Y-59271638D01*
X132755361Y-59264096D01*
X132746334Y-59256012D01*
X132737681Y-59247397D01*
X132729413Y-59238266D01*
X132721538Y-59228631D01*
X132714065Y-59218505D01*
X132707006Y-59207901D01*
X132700368Y-59196831D01*
X132694162Y-59185308D01*
X132688398Y-59173345D01*
X132683085Y-59160956D01*
X132678232Y-59148152D01*
X132673849Y-59134946D01*
X132669946Y-59121352D01*
X132666532Y-59107382D01*
X132663617Y-59093048D01*
X132661211Y-59078365D01*
X132659323Y-59063344D01*
X132657962Y-59047998D01*
X132657139Y-59032341D01*
X132656862Y-59016384D01*
G37*
G36*
X133482403Y-58248289D02*
G01*
X133482403Y-58388583D01*
X133352270Y-58591011D01*
X133217057Y-58591011D01*
X133338788Y-58400502D01*
X133338788Y-58395812D01*
X132668000Y-58395812D01*
X132668000Y-58248289D01*
X133482403Y-58248289D01*
G37*
G36*
X132668000Y-58040976D02*
G01*
X132668000Y-57482735D01*
X132791098Y-57482735D01*
X132791098Y-57837375D01*
X132796764Y-57837375D01*
X132939598Y-57697082D01*
X132953605Y-57682578D01*
X132967174Y-57668731D01*
X132980321Y-57655530D01*
X132993064Y-57642960D01*
X133005420Y-57631010D01*
X133017408Y-57619666D01*
X133029045Y-57608915D01*
X133040348Y-57598744D01*
X133051335Y-57589140D01*
X133062023Y-57580091D01*
X133072431Y-57571584D01*
X133082576Y-57563604D01*
X133092475Y-57556140D01*
X133102146Y-57549179D01*
X133111607Y-57542707D01*
X133120875Y-57536712D01*
X133129967Y-57531181D01*
X133138903Y-57526100D01*
X133147698Y-57521457D01*
X133156371Y-57517239D01*
X133164939Y-57513433D01*
X133173420Y-57510026D01*
X133181831Y-57507005D01*
X133190191Y-57504356D01*
X133198516Y-57502068D01*
X133206824Y-57500127D01*
X133215133Y-57498520D01*
X133223461Y-57497234D01*
X133231825Y-57496257D01*
X133240242Y-57495575D01*
X133248731Y-57495175D01*
X133257309Y-57495044D01*
X133269985Y-57495368D01*
X133282435Y-57496331D01*
X133294647Y-57497923D01*
X133306608Y-57500133D01*
X133318309Y-57502951D01*
X133329736Y-57506366D01*
X133340879Y-57510367D01*
X133351727Y-57514944D01*
X133362267Y-57520086D01*
X133372488Y-57525782D01*
X133382378Y-57532022D01*
X133391927Y-57538795D01*
X133401122Y-57546091D01*
X133409952Y-57553898D01*
X133418406Y-57562206D01*
X133426471Y-57571004D01*
X133434137Y-57580282D01*
X133441392Y-57590029D01*
X133448224Y-57600235D01*
X133454623Y-57610888D01*
X133460575Y-57621978D01*
X133466070Y-57633495D01*
X133471097Y-57645428D01*
X133475643Y-57657765D01*
X133479698Y-57670497D01*
X133483250Y-57683613D01*
X133486286Y-57697102D01*
X133488797Y-57710953D01*
X133490769Y-57725156D01*
X133492193Y-57739700D01*
X133493055Y-57754575D01*
X133493345Y-57769769D01*
X133493053Y-57784761D01*
X133492184Y-57799467D01*
X133490744Y-57813874D01*
X133488744Y-57827970D01*
X133486191Y-57841743D01*
X133483092Y-57855180D01*
X133479458Y-57868269D01*
X133475295Y-57880997D01*
X133470613Y-57893352D01*
X133465419Y-57905321D01*
X133459722Y-57916892D01*
X133453530Y-57928052D01*
X133446852Y-57938789D01*
X133439695Y-57949091D01*
X133432068Y-57958945D01*
X133423980Y-57968338D01*
X133415438Y-57977259D01*
X133406451Y-57985694D01*
X133397028Y-57993632D01*
X133387176Y-58001059D01*
X133376903Y-58007964D01*
X133366219Y-58014334D01*
X133355131Y-58020156D01*
X133343648Y-58025418D01*
X133331779Y-58030108D01*
X133319530Y-58034212D01*
X133306911Y-58037720D01*
X133293930Y-58040617D01*
X133280595Y-58042893D01*
X133266915Y-58044533D01*
X133252897Y-58045527D01*
X133238551Y-58045861D01*
X133238551Y-57905372D01*
X133253754Y-57904762D01*
X133268203Y-57902956D01*
X133281866Y-57899987D01*
X133294711Y-57895893D01*
X133306709Y-57890707D01*
X133317826Y-57884466D01*
X133328033Y-57877204D01*
X133337298Y-57868956D01*
X133345590Y-57859758D01*
X133352877Y-57849645D01*
X133359129Y-57838652D01*
X133364314Y-57826815D01*
X133368402Y-57814168D01*
X133371360Y-57800747D01*
X133373157Y-57786587D01*
X133373764Y-57771723D01*
X133373214Y-57757421D01*
X133371582Y-57743641D01*
X133368894Y-57730439D01*
X133365175Y-57717870D01*
X133360453Y-57705989D01*
X133354753Y-57694852D01*
X133348100Y-57684512D01*
X133340522Y-57675027D01*
X133332044Y-57666451D01*
X133322692Y-57658839D01*
X133312492Y-57652246D01*
X133301471Y-57646728D01*
X133289654Y-57642341D01*
X133277067Y-57639138D01*
X133263736Y-57637176D01*
X133249688Y-57636510D01*
X133237155Y-57636995D01*
X133225002Y-57638447D01*
X133213153Y-57640862D01*
X133201530Y-57644237D01*
X133190055Y-57648568D01*
X133178653Y-57653852D01*
X133167244Y-57660083D01*
X133155752Y-57667260D01*
X133144101Y-57675378D01*
X133132211Y-57684433D01*
X133120007Y-57694422D01*
X133113763Y-57699765D01*
X133107411Y-57705341D01*
X133100941Y-57711148D01*
X133094345Y-57717186D01*
X133087612Y-57723454D01*
X133080733Y-57729953D01*
X133073697Y-57736682D01*
X133066496Y-57743639D01*
X133059120Y-57750826D01*
X133051558Y-57758241D01*
X132774489Y-58040976D01*
X132668000Y-58040976D01*
G37*
G36*
X132656862Y-57053063D02*
G01*
X132657152Y-57036882D01*
X132658015Y-57020993D01*
X132659439Y-57005411D01*
X132661413Y-56990149D01*
X132663926Y-56975223D01*
X132666966Y-56960647D01*
X132670523Y-56946437D01*
X132674585Y-56932605D01*
X132679140Y-56919168D01*
X132684178Y-56906139D01*
X132689687Y-56893534D01*
X132695657Y-56881367D01*
X132702074Y-56869653D01*
X132708929Y-56858406D01*
X132716211Y-56847640D01*
X132723907Y-56837372D01*
X132732006Y-56827614D01*
X132740498Y-56818383D01*
X132749371Y-56809692D01*
X132758614Y-56801555D01*
X132768215Y-56793989D01*
X132778164Y-56787007D01*
X132788448Y-56780624D01*
X132799057Y-56774855D01*
X132809980Y-56769714D01*
X132821204Y-56765215D01*
X132832720Y-56761375D01*
X132844515Y-56758206D01*
X132856578Y-56755724D01*
X132868899Y-56753944D01*
X132881465Y-56752880D01*
X132894266Y-56752546D01*
X132903725Y-56752696D01*
X132913010Y-56753218D01*
X132922117Y-56754110D01*
X132931040Y-56755369D01*
X132939774Y-56756992D01*
X132948314Y-56758978D01*
X132956655Y-56761323D01*
X132964791Y-56764026D01*
X132972718Y-56767083D01*
X132980430Y-56770493D01*
X132987923Y-56774253D01*
X132995190Y-56778361D01*
X133002228Y-56782814D01*
X133009030Y-56787610D01*
X133015591Y-56792746D01*
X133021907Y-56798220D01*
X133027973Y-56804029D01*
X133033782Y-56810171D01*
X133039331Y-56816644D01*
X133044613Y-56823445D01*
X133049624Y-56830572D01*
X133054358Y-56838022D01*
X133058811Y-56845793D01*
X133062977Y-56853883D01*
X133066851Y-56862288D01*
X133070428Y-56871007D01*
X133073702Y-56880037D01*
X133076670Y-56889376D01*
X133079324Y-56899021D01*
X133081661Y-56908969D01*
X133083676Y-56919220D01*
X133085362Y-56929769D01*
X133091810Y-56929769D01*
X133093740Y-56921592D01*
X133095938Y-56913590D01*
X133098400Y-56905767D01*
X133101122Y-56898130D01*
X133104101Y-56890684D01*
X133107332Y-56883434D01*
X133110813Y-56876387D01*
X133118508Y-56862922D01*
X133127155Y-56850336D01*
X133136726Y-56838673D01*
X133147190Y-56827980D01*
X133158519Y-56818300D01*
X133170682Y-56809681D01*
X133183651Y-56802167D01*
X133197395Y-56795805D01*
X133211886Y-56790639D01*
X133227094Y-56786714D01*
X133234957Y-56785232D01*
X133242989Y-56784078D01*
X133251185Y-56783257D01*
X133259541Y-56782775D01*
X133268055Y-56782637D01*
X133279618Y-56782910D01*
X133291032Y-56783797D01*
X133302284Y-56785289D01*
X133313359Y-56787376D01*
X133324242Y-56790050D01*
X133334920Y-56793301D01*
X133345378Y-56797120D01*
X133355601Y-56801499D01*
X133365576Y-56806427D01*
X133375287Y-56811897D01*
X133384721Y-56817899D01*
X133393864Y-56824423D01*
X133402700Y-56831461D01*
X133411216Y-56839004D01*
X133419397Y-56847043D01*
X133427228Y-56855568D01*
X133434697Y-56864570D01*
X133441787Y-56874041D01*
X133448485Y-56883971D01*
X133454777Y-56894351D01*
X133460648Y-56905173D01*
X133466083Y-56916426D01*
X133471069Y-56928102D01*
X133475592Y-56940192D01*
X133479635Y-56952687D01*
X133483186Y-56965577D01*
X133486231Y-56978854D01*
X133488754Y-56992508D01*
X133490741Y-57006531D01*
X133492178Y-57020913D01*
X133493051Y-57035645D01*
X133493345Y-57050718D01*
X133493071Y-57065448D01*
X133492254Y-57079954D01*
X133490904Y-57094219D01*
X133489032Y-57108229D01*
X133486645Y-57121969D01*
X133483754Y-57135422D01*
X133480369Y-57148574D01*
X133476498Y-57161409D01*
X133472152Y-57173912D01*
X133467339Y-57186068D01*
X133462070Y-57197861D01*
X133456354Y-57209276D01*
X133450200Y-57220298D01*
X133443617Y-57230911D01*
X133436617Y-57241100D01*
X133429207Y-57250851D01*
X133421397Y-57260146D01*
X133413198Y-57268972D01*
X133404618Y-57277313D01*
X133395667Y-57285153D01*
X133386354Y-57292477D01*
X133376690Y-57299271D01*
X133366683Y-57305518D01*
X133356343Y-57311203D01*
X133345680Y-57316311D01*
X133334702Y-57320827D01*
X133323421Y-57324735D01*
X133311844Y-57328021D01*
X133299982Y-57330668D01*
X133287845Y-57332661D01*
X133275441Y-57333985D01*
X133262780Y-57334626D01*
X133262780Y-57192770D01*
X133275296Y-57191591D01*
X133287183Y-57189056D01*
X133298417Y-57185236D01*
X133308972Y-57180203D01*
X133318824Y-57174031D01*
X133327949Y-57166790D01*
X133336321Y-57158553D01*
X133343917Y-57149392D01*
X133350711Y-57139379D01*
X133356680Y-57128587D01*
X133361797Y-57117087D01*
X133366039Y-57104952D01*
X133369382Y-57092254D01*
X133371800Y-57079064D01*
X133373269Y-57065455D01*
X133373764Y-57051499D01*
X133373229Y-57037554D01*
X133371649Y-57024245D01*
X133369057Y-57011611D01*
X133365490Y-56999686D01*
X133360981Y-56988510D01*
X133355567Y-56978118D01*
X133349281Y-56968547D01*
X133342159Y-56959835D01*
X133334235Y-56952018D01*
X133325545Y-56945134D01*
X133316123Y-56939218D01*
X133306005Y-56934309D01*
X133295224Y-56930442D01*
X133283817Y-56927656D01*
X133271818Y-56925986D01*
X133259263Y-56925470D01*
X133246178Y-56926083D01*
X133233690Y-56928033D01*
X133221834Y-56931273D01*
X133210643Y-56935753D01*
X133200152Y-56941423D01*
X133190394Y-56948235D01*
X133181404Y-56956139D01*
X133173216Y-56965086D01*
X133165863Y-56975027D01*
X133159381Y-56985913D01*
X133153802Y-56997693D01*
X133149161Y-57010320D01*
X133145492Y-57023744D01*
X133142829Y-57037915D01*
X133141207Y-57052785D01*
X133140658Y-57068303D01*
X133140658Y-57140208D01*
X133026939Y-57140208D01*
X133026939Y-57068303D01*
X133026789Y-57058755D01*
X133026341Y-57049456D01*
X133025603Y-57040411D01*
X133024578Y-57031623D01*
X133023273Y-57023095D01*
X133021693Y-57014831D01*
X133019842Y-57006835D01*
X133017728Y-56999109D01*
X133015354Y-56991659D01*
X133009851Y-56977597D01*
X133003377Y-56964677D01*
X132995974Y-56952928D01*
X132987687Y-56942378D01*
X132978558Y-56933055D01*
X132968631Y-56924990D01*
X132957949Y-56918209D01*
X132946554Y-56912742D01*
X132934491Y-56908618D01*
X132921802Y-56905864D01*
X132908531Y-56904511D01*
X132901691Y-56904368D01*
X132888479Y-56905022D01*
X132875833Y-56907095D01*
X132863792Y-56910530D01*
X132852397Y-56915270D01*
X132841686Y-56921259D01*
X132831699Y-56928441D01*
X132822477Y-56936759D01*
X132814057Y-56946158D01*
X132806480Y-56956579D01*
X132799785Y-56967968D01*
X132794011Y-56980268D01*
X132789199Y-56993422D01*
X132785387Y-57007374D01*
X132782616Y-57022067D01*
X132780924Y-57037446D01*
X132780495Y-57045375D01*
X132780351Y-57053453D01*
X132780846Y-57068609D01*
X132782311Y-57083260D01*
X132784720Y-57097348D01*
X132788045Y-57110814D01*
X132792258Y-57123597D01*
X132797332Y-57135638D01*
X132803240Y-57146878D01*
X132809953Y-57157257D01*
X132817446Y-57166715D01*
X132825689Y-57175193D01*
X132834656Y-57182632D01*
X132844318Y-57188972D01*
X132854650Y-57194153D01*
X132865622Y-57198115D01*
X132877209Y-57200801D01*
X132889381Y-57202148D01*
X132889381Y-57351820D01*
X132876612Y-57351090D01*
X132864101Y-57349676D01*
X132851859Y-57347592D01*
X132839896Y-57344850D01*
X132828221Y-57341463D01*
X132816843Y-57337444D01*
X132805772Y-57332806D01*
X132795018Y-57327561D01*
X132784590Y-57321723D01*
X132774498Y-57315304D01*
X132764752Y-57308317D01*
X132755361Y-57300775D01*
X132746334Y-57292690D01*
X132737681Y-57284076D01*
X132729413Y-57274945D01*
X132721538Y-57265310D01*
X132714065Y-57255184D01*
X132707006Y-57244579D01*
X132700368Y-57233509D01*
X132694162Y-57221986D01*
X132688398Y-57210024D01*
X132683085Y-57197634D01*
X132678232Y-57184830D01*
X132673849Y-57171624D01*
X132669946Y-57158030D01*
X132666532Y-57144060D01*
X132663617Y-57129727D01*
X132661211Y-57115043D01*
X132659323Y-57100022D01*
X132657962Y-57084677D01*
X132657139Y-57069019D01*
X132656862Y-57053063D01*
G37*
G36*
X133098807Y-56001795D02*
G01*
X133122723Y-56002824D01*
X133145966Y-56004529D01*
X133168529Y-56006904D01*
X133190403Y-56009940D01*
X133211581Y-56013631D01*
X133232055Y-56017969D01*
X133251819Y-56022947D01*
X133270865Y-56028557D01*
X133289184Y-56034792D01*
X133306770Y-56041644D01*
X133323615Y-56049107D01*
X133339712Y-56057172D01*
X133355052Y-56065832D01*
X133369630Y-56075080D01*
X133383436Y-56084908D01*
X133396463Y-56095310D01*
X133408705Y-56106277D01*
X133420153Y-56117802D01*
X133430800Y-56129878D01*
X133440638Y-56142498D01*
X133449660Y-56155654D01*
X133457859Y-56169338D01*
X133465226Y-56183543D01*
X133471755Y-56198262D01*
X133477438Y-56213487D01*
X133482267Y-56229212D01*
X133486235Y-56245427D01*
X133489334Y-56262128D01*
X133491557Y-56279304D01*
X133492897Y-56296950D01*
X133493345Y-56315058D01*
X133492898Y-56333183D01*
X133491562Y-56350843D01*
X133489344Y-56368030D01*
X133486251Y-56384738D01*
X133482291Y-56400959D01*
X133477472Y-56416687D01*
X133471799Y-56431913D01*
X133465281Y-56446632D01*
X133457926Y-56460836D01*
X133449739Y-56474517D01*
X133440729Y-56487668D01*
X133430903Y-56500283D01*
X133420268Y-56512354D01*
X133408831Y-56523874D01*
X133396600Y-56534836D01*
X133383582Y-56545233D01*
X133369785Y-56555057D01*
X133355215Y-56564302D01*
X133339880Y-56572960D01*
X133323787Y-56581024D01*
X133306944Y-56588487D01*
X133289357Y-56595341D01*
X133271035Y-56601581D01*
X133251984Y-56607197D01*
X133232212Y-56612184D01*
X133211726Y-56616535D01*
X133190533Y-56620241D01*
X133168641Y-56623296D01*
X133146057Y-56625693D01*
X133122788Y-56627424D01*
X133098841Y-56628483D01*
X133074224Y-56628862D01*
X133049548Y-56628519D01*
X133025534Y-56627497D01*
X133002189Y-56625802D01*
X132979522Y-56623440D01*
X132957540Y-56620420D01*
X132936252Y-56616747D01*
X132915666Y-56612429D01*
X132895790Y-56607472D01*
X132876630Y-56601884D01*
X132858197Y-56595672D01*
X132840497Y-56588842D01*
X132823538Y-56581401D01*
X132807329Y-56573357D01*
X132791878Y-56564717D01*
X132777191Y-56555486D01*
X132763279Y-56545673D01*
X132750147Y-56535283D01*
X132737805Y-56524325D01*
X132726261Y-56512805D01*
X132715521Y-56500730D01*
X132705595Y-56488106D01*
X132696490Y-56474942D01*
X132688215Y-56461243D01*
X132680776Y-56447017D01*
X132674183Y-56432270D01*
X132668443Y-56417010D01*
X132663565Y-56401244D01*
X132659555Y-56384978D01*
X132656423Y-56368220D01*
X132654175Y-56350976D01*
X132652821Y-56333253D01*
X132652368Y-56315058D01*
X132776834Y-56315058D01*
X132777132Y-56324454D01*
X132778025Y-56333624D01*
X132779512Y-56342564D01*
X132781590Y-56351268D01*
X132784260Y-56359732D01*
X132787518Y-56367950D01*
X132791364Y-56375919D01*
X132795797Y-56383633D01*
X132800814Y-56391087D01*
X132806414Y-56398277D01*
X132812596Y-56405197D01*
X132819359Y-56411844D01*
X132826700Y-56418211D01*
X132834619Y-56424295D01*
X132843114Y-56430090D01*
X132852183Y-56435592D01*
X132861825Y-56440796D01*
X132872039Y-56445696D01*
X132882823Y-56450289D01*
X132894176Y-56454569D01*
X132906095Y-56458531D01*
X132918581Y-56462171D01*
X132931630Y-56465484D01*
X132945243Y-56468464D01*
X132959416Y-56471108D01*
X132974150Y-56473410D01*
X132989441Y-56475366D01*
X133005290Y-56476970D01*
X133021694Y-56478218D01*
X133038652Y-56479104D01*
X133056163Y-56479626D01*
X133074224Y-56479776D01*
X133092163Y-56479556D01*
X133109560Y-56478971D01*
X133126414Y-56478028D01*
X133142724Y-56476729D01*
X133158486Y-56475081D01*
X133173701Y-56473086D01*
X133188365Y-56470751D01*
X133202476Y-56468080D01*
X133216034Y-56465076D01*
X133229035Y-56461746D01*
X133241479Y-56458093D01*
X133253363Y-56454122D01*
X133264685Y-56449838D01*
X133275444Y-56445246D01*
X133285637Y-56440349D01*
X133295264Y-56435153D01*
X133304321Y-56429662D01*
X133312808Y-56423881D01*
X133320722Y-56417814D01*
X133328061Y-56411466D01*
X133334824Y-56404842D01*
X133341009Y-56397946D01*
X133346613Y-56390783D01*
X133351635Y-56383358D01*
X133356074Y-56375675D01*
X133359926Y-56367738D01*
X133363191Y-56359553D01*
X133365867Y-56351124D01*
X133367951Y-56342455D01*
X133369442Y-56333551D01*
X133370338Y-56324418D01*
X133370637Y-56315058D01*
X133370338Y-56305681D01*
X133369442Y-56296531D01*
X133367951Y-56287612D01*
X133365867Y-56278929D01*
X133363191Y-56270486D01*
X133359926Y-56262288D01*
X133356074Y-56254340D01*
X133351635Y-56246646D01*
X133346613Y-56239211D01*
X133341009Y-56232039D01*
X133334824Y-56225135D01*
X133328061Y-56218503D01*
X133320722Y-56212149D01*
X133312808Y-56206076D01*
X133304321Y-56200289D01*
X133295264Y-56194793D01*
X133285637Y-56189593D01*
X133275444Y-56184692D01*
X133264685Y-56180096D01*
X133253363Y-56175810D01*
X133241479Y-56171836D01*
X133229035Y-56168181D01*
X133216034Y-56164849D01*
X133202476Y-56161845D01*
X133188365Y-56159172D01*
X133173701Y-56156836D01*
X133158486Y-56154842D01*
X133142724Y-56153193D01*
X133126414Y-56151894D01*
X133109560Y-56150950D01*
X133092163Y-56150366D01*
X133074224Y-56150146D01*
X133056163Y-56150330D01*
X133038652Y-56150879D01*
X133021694Y-56151790D01*
X133005290Y-56153056D01*
X132989441Y-56154675D01*
X132974150Y-56156641D01*
X132959416Y-56158950D01*
X132945243Y-56161598D01*
X132931630Y-56164579D01*
X132918581Y-56167890D01*
X132906095Y-56171526D01*
X132894176Y-56175483D01*
X132882823Y-56179756D01*
X132872039Y-56184341D01*
X132861825Y-56189232D01*
X132852183Y-56194427D01*
X132843114Y-56199920D01*
X132834619Y-56205706D01*
X132826700Y-56211782D01*
X132819359Y-56218143D01*
X132812596Y-56224783D01*
X132806414Y-56231700D01*
X132800814Y-56238889D01*
X132795797Y-56246344D01*
X132791364Y-56254061D01*
X132787518Y-56262037D01*
X132784260Y-56270266D01*
X132781590Y-56278745D01*
X132779512Y-56287467D01*
X132778025Y-56296430D01*
X132777132Y-56305629D01*
X132776834Y-56315058D01*
X132652368Y-56315058D01*
X132652786Y-56296882D01*
X132654107Y-56279176D01*
X132656323Y-56261947D01*
X132659427Y-56245203D01*
X132663410Y-56228951D01*
X132668265Y-56213197D01*
X132673983Y-56197949D01*
X132680557Y-56183213D01*
X132687978Y-56168997D01*
X132696238Y-56155307D01*
X132705331Y-56142151D01*
X132715246Y-56129535D01*
X132725978Y-56117467D01*
X132737517Y-56105952D01*
X132749855Y-56095000D01*
X132762986Y-56084615D01*
X132776899Y-56074806D01*
X132791589Y-56065579D01*
X132807046Y-56056942D01*
X132823264Y-56048901D01*
X132840232Y-56041462D01*
X132857945Y-56034635D01*
X132876393Y-56028424D01*
X132895570Y-56022837D01*
X132915466Y-56017882D01*
X132936074Y-56013564D01*
X132957386Y-56009892D01*
X132979393Y-56006872D01*
X133002089Y-56004510D01*
X133025465Y-56002815D01*
X133049513Y-56001793D01*
X133074224Y-56001451D01*
X133098807Y-56001795D01*
G37*
%LPC*%
D11*
%TO.C,J1*%
X132870000Y-77440000D03*
D12*
X130330000Y-77440000D03*
X132870000Y-74900000D03*
X130330000Y-74900000D03*
X132870000Y-72360000D03*
X130330000Y-72360000D03*
%TD*%
D13*
%TO.C,USB1*%
X137890000Y-41250000D03*
X132110000Y-41250000D03*
D14*
X139320000Y-41780000D03*
D15*
X139320000Y-37600000D03*
D14*
X130680000Y-41780000D03*
D15*
X130680000Y-37600000D03*
%TD*%
D16*
%TO.C,SW1*%
X130500000Y-52550000D03*
X130500000Y-57050000D03*
%TD*%
D11*
%TO.C,J2*%
X138100000Y-77425000D03*
D12*
X138100000Y-74885000D03*
X138100000Y-72345000D03*
%TD*%
D16*
%TO.C,SW2*%
X130500000Y-64750000D03*
X130500000Y-60250000D03*
%TD*%
%LPD*%
M02*
